<svg xmlns="http://www.w3.org/2000/svg" width="23.804" height="23.201" viewBox="0 0 23.804 23.201">
  <path id="Icon_awesome-arrow-right" data-name="Icon awesome-arrow-right" d="M10.121,4.2,11.3,3.022a1.27,1.27,0,0,1,1.8,0L23.43,13.345a1.27,1.27,0,0,1,0,1.8L13.1,25.474a1.27,1.27,0,0,1-1.8,0l-1.179-1.179a1.277,1.277,0,0,1,.021-1.822l6.4-6.1H1.275A1.272,1.272,0,0,1,0,15.1V13.4a1.272,1.272,0,0,1,1.275-1.275H16.544l-6.4-6.1A1.267,1.267,0,0,1,10.121,4.2Z" transform="translate(0 -2.647)" fill="#fff"/>
</svg>
