<svg xmlns="http://www.w3.org/2000/svg" width="27.818" height="27.122" viewBox="0 0 27.818 27.122">
  <path id="Icon_awesome-github" data-name="Icon awesome-github" d="M9.3,22.4c0,.112-.129.2-.292.2-.185.017-.314-.073-.314-.2,0-.112.129-.2.292-.2C9.158,22.183,9.3,22.272,9.3,22.4ZM7.56,22.149c-.039.112.073.241.241.275a.263.263,0,0,0,.348-.112c.034-.112-.073-.241-.241-.292A.288.288,0,0,0,7.56,22.149Zm2.479-.1c-.163.039-.275.146-.258.275.017.112.163.185.331.146s.275-.146.258-.258S10.2,22.037,10.039,22.054ZM13.729.563A13.448,13.448,0,0,0,0,14.247,14.061,14.061,0,0,0,9.506,27.662c.718.129.97-.314.97-.679,0-.348-.017-2.266-.017-3.444,0,0-3.926.841-4.75-1.671,0,0-.639-1.632-1.559-2.053,0,0-1.284-.881.09-.864A2.96,2.96,0,0,1,6.4,20.4a2.965,2.965,0,0,0,4.089,1.172,3.117,3.117,0,0,1,.9-1.89c-3.135-.348-6.3-.8-6.3-6.2a4.25,4.25,0,0,1,1.324-3.3,5.3,5.3,0,0,1,.146-3.808c1.172-.365,3.87,1.514,3.87,1.514a13.249,13.249,0,0,1,7.044,0s2.7-1.884,3.87-1.514a5.3,5.3,0,0,1,.146,3.808,4.36,4.36,0,0,1,1.447,3.3c0,5.412-3.3,5.844-6.438,6.2a3.317,3.317,0,0,1,.953,2.6c0,1.89-.017,4.229-.017,4.689,0,.365.258.808.97.679a13.931,13.931,0,0,0,9.411-13.4A13.752,13.752,0,0,0,13.729.563ZM5.451,19.906c-.073.056-.056.185.039.292.09.09.219.129.292.056.073-.056.056-.185-.039-.292C5.653,19.872,5.524,19.833,5.451,19.906Zm-.606-.454c-.039.073.017.163.129.219a.167.167,0,0,0,.241-.039c.039-.073-.017-.163-.129-.219C4.975,19.379,4.885,19.4,4.846,19.451Zm1.817,2c-.09.073-.056.241.073.348.129.129.292.146.365.056.073-.073.039-.241-.073-.348C6.9,21.375,6.736,21.358,6.663,21.448Zm-.639-.824c-.09.056-.09.2,0,.331s.241.185.314.129a.256.256,0,0,0,0-.348C6.259,20.607,6.113,20.551,6.023,20.624Z" transform="translate(0 -0.563)" fill="#fff"/>
</svg>
