<svg xmlns="http://www.w3.org/2000/svg" width="24.724" height="24.723" viewBox="0 0 24.724 24.723">
  <path id="Icon_awesome-linkedin-in" data-name="Icon awesome-linkedin-in" d="M5.534,24.724H.408V8.218H5.534ZM2.969,5.966a2.983,2.983,0,1,1,2.969-3A2.994,2.994,0,0,1,2.969,5.966Zm21.75,18.758H19.6V16.689c0-1.915-.039-4.371-2.665-4.371-2.665,0-3.073,2.081-3.073,4.233v8.173H8.745V8.218h4.916v2.252h.072A5.386,5.386,0,0,1,18.583,7.8c5.188,0,6.141,3.416,6.141,7.853v9.067Z" transform="translate(0 -0.001)" fill="#fff"/>
</svg>
