<svg id="Orion_settings-server" xmlns="http://www.w3.org/2000/svg" width="38" height="38" viewBox="0 0 38 38">
  <path id="Shape" d="M6.964,19V16.657a7.514,7.514,0,0,1-2.4-1.413l-2.056,1.2L0,12.056l2.076-1.21A7.576,7.576,0,0,1,1.951,9.5,7.467,7.467,0,0,1,2.1,8.044L.207,6.944,2.714,2.556,4.647,3.684A7.489,7.489,0,0,1,6.966,2.343V0h5.015V2.343A7.518,7.518,0,0,1,14.319,3.7l1.964-1.145L18.79,6.944,16.855,8.071a7.376,7.376,0,0,1,.023,2.746L19,12.054l-2.507,4.388-2.087-1.218a7.551,7.551,0,0,1-2.426,1.433V19Z" transform="translate(19 19)" fill="#ff465e" opacity="0.5"/>
  <path id="Shape-2" data-name="Shape" d="M1.269,31A1.28,1.28,0,0,1,0,29.708v-7.75H18.674L17.1,24.743a3.206,3.206,0,0,0-.5,2.386,2.715,2.715,0,0,0,1.184,1.57l.5.292v.03l-.707.415A2.575,2.575,0,0,0,16.388,31ZM0,19.375v-7.75H33v6.215A2.514,2.514,0,0,0,30.969,16.8H25.892a2.56,2.56,0,0,0-2.538,2.579ZM0,9.041V1.291A1.281,1.281,0,0,1,1.269,0H31.73A1.281,1.281,0,0,1,33,1.291v7.75Z" fill="#ff465e"/>
</svg>
