<svg xmlns="http://www.w3.org/2000/svg" width="28.406" height="23.071" viewBox="0 0 28.406 23.071">
  <path id="Icon_awesome-twitter" data-name="Icon awesome-twitter" d="M25.486,9.13c.018.252.018.5.018.757,0,7.7-5.858,16.564-16.564,16.564A16.452,16.452,0,0,1,0,23.838a12.043,12.043,0,0,0,1.406.072,11.659,11.659,0,0,0,7.228-2.487A5.832,5.832,0,0,1,3.19,17.385a7.342,7.342,0,0,0,1.1.09,6.157,6.157,0,0,0,1.532-.2,5.823,5.823,0,0,1-4.668-5.714v-.072a5.863,5.863,0,0,0,2.631.739,5.83,5.83,0,0,1-1.8-7.786,16.548,16.548,0,0,0,12,6.092A6.572,6.572,0,0,1,13.842,9.2,5.827,5.827,0,0,1,23.918,5.219a11.462,11.462,0,0,0,3.695-1.406,5.806,5.806,0,0,1-2.559,3.208,11.671,11.671,0,0,0,3.352-.9,12.514,12.514,0,0,1-2.92,3.01Z" transform="translate(0 -3.381)" fill="#fff"/>
</svg>
