<svg id="Orion_design_2_" data-name="Orion_design (2)" xmlns="http://www.w3.org/2000/svg" width="41" height="41" viewBox="0 0 41 41">
  <path id="Shape" d="M5.057,29.536l6.4,6.4L0,41ZM30.023,4.03,34.052,0,41,6.952l-4.029,4.03Z" fill="#ff465e" opacity="0.51"/>
  <path id="Combined_Shape" data-name="Combined Shape" d="M32.132,41h0L19.6,28.38,13.559,34.4,6.62,27.418,12.66,21.4,0,8.713,8.74,0,21.464,12.685,28.34,5.829l6.941,6.983L28.4,19.6,41,32.16,32.133,41ZM30.589,30.558h0l1.8,1.793-2.634,2.627,2.378,2.37,5.206-5.188L26.6,21.525,21.4,26.65l2.7,2.691,1.993-1.986,1.8,1.794L25.9,31.135l2.057,2.05,2.634-2.626ZM13.174,12.428h0l1.8,1.793-2.957,2.947L14.459,19.6,19.6,14.478,8.74,3.715,3.663,8.777,6.17,11.339,8.1,9.418l1.8,1.794L7.969,13.133l2.249,2.242,2.956-2.946Z" fill="#ff465e"/>
</svg>
