<svg xmlns="http://www.w3.org/2000/svg" width="80.52" height="88.117" viewBox="0 0 80.52 88.117">
  <g id="Group_8784" data-name="Group 8784" transform="translate(3.362 -328.011)" opacity="0.55">
    <g id="Group_5848" data-name="Group 5848" transform="translate(-3.362 328.011)">
      <path id="Path_1256" data-name="Path 1256" d="M28.956,392.706a32.516,32.516,0,0,1-31.55-25.4,32.335,32.335,0,0,1,24.637-38.535A32.3,32.3,0,0,1,60.577,353.41a32.332,32.332,0,0,1-24.637,38.533A32.587,32.587,0,0,1,28.956,392.706Zm.069-62.054a29.883,29.883,0,0,0-6.416.7A29.694,29.694,0,0,0-.016,366.741a29.659,29.659,0,0,0,35.39,22.623A29.691,29.691,0,0,0,58,353.976,29.863,29.863,0,0,0,29.026,330.652Z" transform="translate(3.362 -328.011)" fill="#01a6ff"/>
    </g>
    <path id="Path_1257" data-name="Path 1257" d="M62.206,394.9l-26.849,9.531L13.677,385.94l5.17-28.018L45.7,348.392l21.68,18.487Z" transform="translate(9.783 11.701)" fill="#09e8e3"/>
  </g>
</svg>
