<svg xmlns="http://www.w3.org/2000/svg" width="105.11" height="110.553" viewBox="0 0 105.11 110.553">
  <g id="Group_5735" data-name="Group 5735" transform="translate(35.037) rotate(30)" opacity="0.48">
    <g id="Group_5894" data-name="Group 5894">
      <path id="Path_1177" data-name="Path 1177" d="M20.228,0,0,35.037,20.228,70.073H60.684l20.23-35.037L60.684,0Z" transform="translate(0)" fill="#ff2f8b"/>
    </g>
    <g id="Group_5734" data-name="Group 5734" transform="translate(22.931 14.811)">
      <g id="Group_5733" data-name="Group 5733">
        <path id="Path_1178" data-name="Path 1178" d="M76.844,2.632H0L1.405,0H75.828l1.4,2.632Z" transform="translate(0 26.326)" fill="#ff2f8b"/>
        <path id="Path_1179" data-name="Path 1179" d="M23.465,0H66.457l1.4,2.632H0L1.4,0H23.465Z" transform="translate(4.686 17.55)" fill="#ff2f8b"/>
        <path id="Path_1180" data-name="Path 1180" d="M26.2,0H74.005L72.6,2.634H1.4L0,0Z" transform="translate(1.615 35.101)" fill="#ff2f8b"/>
        <path id="Path_1181" data-name="Path 1181" d="M16.83,0H55.264L53.859,2.631H1.405L0,0Z" transform="translate(10.984 52.654)" fill="#ff2f8b"/>
        <path id="Path_1182" data-name="Path 1182" d="M21.514,0H64.635L63.228,2.632H1.406L0,0Z" transform="translate(6.3 43.878)" fill="#ff2f8b"/>
        <path id="Path_1183" data-name="Path 1183" d="M0,0H45.894L44.488,2.632H1.4Z" transform="translate(15.67 61.429)" fill="#ff2f8b"/>
        <path id="Path_1184" data-name="Path 1184" d="M13.757,0H47.714L49.12,2.631H0L1.405,0Z" transform="translate(14.057 0)" fill="#ff2f8b"/>
        <path id="Path_1185" data-name="Path 1185" d="M1.406,0H57.085l1.406,2.632H0Z" transform="translate(9.372 8.775)" fill="#ff2f8b"/>
      </g>
    </g>
  </g>
</svg>
