<svg xmlns="http://www.w3.org/2000/svg" width="98.136" height="97.699" viewBox="0 0 98.136 97.699">
  <g id="Shapes" transform="translate(29.909 -12.854) rotate(30)" opacity="0.48">
    <path id="Subtraction_4" data-name="Subtraction 4" d="M8746.684-3381.927h-40.456l-13.335-23.1,60.686-35.036,13.336,23.1-20.23,35.037Z" transform="translate(-8686 3452)" fill="#00e80f" stroke="rgba(0,0,0,0)" stroke-miterlimit="10" stroke-width="1"/>
    <g id="Group_5734" data-name="Group 5734" transform="translate(22.931 14.811)">
      <g id="Group_5733" data-name="Group 5733">
        <path id="Path_1178" data-name="Path 1178" d="M76.844,2.632H0L1.405,0H75.828l1.4,2.632Z" transform="translate(0 26.326)" fill="#fb0"/>
        <path id="Path_1180" data-name="Path 1180" d="M26.2,0H74.005L72.6,2.634H1.4L0,0Z" transform="translate(1.615 35.101)" fill="#fb0"/>
        <path id="Path_1181" data-name="Path 1181" d="M16.83,0H55.264L53.859,2.631H1.405L0,0Z" transform="translate(10.984 52.654)" fill="#fb0"/>
        <path id="Path_1182" data-name="Path 1182" d="M21.514,0H64.635L63.228,2.632H1.406L0,0Z" transform="translate(6.3 43.878)" fill="#fb0"/>
        <path id="Path_1183" data-name="Path 1183" d="M0,0H45.894L44.488,2.632H1.4Z" transform="translate(15.67 61.429)" fill="#fb0"/>
        <path id="Subtraction_1" data-name="Subtraction 1" d="M8758.547-3431.819h-67.826l4.557-2.631h61.864l1.4,2.63Z" transform="translate(-8686 3452)" fill="#fb0" stroke="rgba(0,0,0,0)" stroke-miterlimit="10" stroke-width="1"/>
        <path id="Subtraction_2" data-name="Subtraction 2" d="M8753.862-3440.594H8705.92l4.558-2.631h41.978l1.406,2.63Z" transform="translate(-8686 3452)" fill="#fb0" stroke="rgba(0,0,0,0)" stroke-miterlimit="10" stroke-width="1"/>
        <path id="Subtraction_3" data-name="Subtraction 3" d="M8749.178-3449.37h-28.059l4.558-2.631h22.094l1.406,2.63Z" transform="translate(-8686 3452)" fill="#fb0" stroke="rgba(0,0,0,0)" stroke-miterlimit="10" stroke-width="1"/>
      </g>
    </g>
  </g>
</svg>
