<svg xmlns="http://www.w3.org/2000/svg" width="142.36" height="41.5" viewBox="0 0 142.36 41.5">
  <g id="Group_5878" data-name="Group 5878" transform="translate(-103.683 -38)">
    <path id="Path_1" data-name="Path 1" d="M132.56,73.872V71.279c.023-.118.052-.234.069-.353.141-.947.232-1.9.425-2.838a20.751,20.751,0,0,1,16.64-15.941c.77-.125,1.545-.214,2.319-.321h2.593c.1.023.208.049.312.067a31.354,31.354,0,0,1,3.9.692Q171.106,56.37,173.74,69c.155.75.215,1.519.32,2.279v2.593a2.409,2.409,0,0,0-.067.313,20.757,20.757,0,0,1-17.109,18.826c-.754.134-1.518.211-2.277.314h-2.593a1.7,1.7,0,0,0-.271-.064,20.049,20.049,0,0,1-9.909-3.408,20.438,20.438,0,0,1-8.951-13.662C132.739,75.426,132.665,74.646,132.56,73.872Zm21.1-5.718a3.747,3.747,0,0,0-2.35-3.361,3.542,3.542,0,0,0-4.452,4.873.494.494,0,0,1-.059.607c-.721.979-1.438,1.961-2.131,2.958a.634.634,0,0,1-.7.3,3.53,3.53,0,0,0-3.931,3.741,3.548,3.548,0,0,0,6.158,2.153,3.452,3.452,0,0,0,.568-3.916.484.484,0,0,1,.067-.577c.681-.924,1.371-1.843,2.007-2.8a.91.91,0,0,1,1.081-.5,1.56,1.56,0,0,0,.643-.036.434.434,0,0,1,.5.219q1.11,1.57,2.252,3.12a.52.52,0,0,1,.058.616,3.542,3.542,0,1,0,6.374-.089.468.468,0,0,1,.059-.572c.719-.98,1.439-1.96,2.13-2.959a.66.66,0,0,1,.73-.317,3.54,3.54,0,1,0-2.241-5.912,3.487,3.487,0,0,0-.585,3.916.511.511,0,0,1-.069.612c-.705.957-1.406,1.916-2.085,2.891-.221.317-.429.5-.851.4a2.18,2.18,0,0,0-.8.026.42.42,0,0,1-.468-.208c-.757-1.069-1.535-2.122-2.285-3.2a.685.685,0,0,1-.047-.5C153.358,69.15,153.517,68.654,153.662,68.154Z" transform="translate(-28.877 -13.826)" fill="#ff465e"/>
    <text id="POCO" transform="translate(160.042 68)" fill="#000560" font-size="29" font-family="Poppins-Bold, Poppins" font-weight="700"><tspan x="0" y="0">POCO</tspan></text>
  </g>
</svg>
