<svg xmlns="http://www.w3.org/2000/svg" xmlns:xlink="http://www.w3.org/1999/xlink" width="153.6" height="64" viewBox="0 0 153.6 64">
  <defs>
    <clipPath id="clip-path">
      <rect id="Rectangle_325" data-name="Rectangle 325" width="153.6" height="64" transform="translate(208 512)" fill="#fff"/>
    </clipPath>
  </defs>
  <g id="Group_5868" data-name="Group 5868" transform="translate(-208 -512)" clip-path="url(#clip-path)">
    <path id="Path_2152" data-name="Path 2152" d="M208,539.812v5.628a14.632,14.632,0,0,1,14.64,14.64h5.624A20.287,20.287,0,0,0,208,539.812Z" fill="#fff"/>
    <path id="Path_2153" data-name="Path 2153" d="M236.126,529.68h-8.913A36.157,36.157,0,0,1,238.4,540.866v-8.913a2.276,2.276,0,0,0-2.274-2.273Z" fill="#fff"/>
    <path id="Path_2154" data-name="Path 2154" d="M213.6,529.68H208v5.067a25.361,25.361,0,0,1,25.334,25.333H238.4v-5.6a31,31,0,0,0-24.8-24.8Z" fill="#fff"/>
    <path id="Path_2155" data-name="Path 2155" d="M252.185,533.026h-3.57v17.992h3.57Z" fill="#fff"/>
    <path id="Path_2156" data-name="Path 2156" d="M265.31,540.822a6.073,6.073,0,0,0-2.047-1.227,7.586,7.586,0,0,0-5.021,0,6.061,6.061,0,0,0-2.048,1.227,5.761,5.761,0,0,0-1.368,1.915,6.493,6.493,0,0,0,0,5,5.743,5.743,0,0,0,1.368,1.92,6.024,6.024,0,0,0,2.046,1.226,7.563,7.563,0,0,0,5.022,0,6.024,6.024,0,0,0,2.046-1.226,5.729,5.729,0,0,0,1.368-1.92,6.493,6.493,0,0,0,0-5A5.755,5.755,0,0,0,265.31,540.822Zm-2.452,6.532a3.146,3.146,0,0,1-4.212,0,3.368,3.368,0,0,1,0-4.24,3.149,3.149,0,0,1,4.212,0,3.368,3.368,0,0,1,0,4.24Z" fill="#fff"/>
    <path id="Path_2157" data-name="Path 2157" d="M278.125,540.976h-.045a3.635,3.635,0,0,0-.571-.63,4.153,4.153,0,0,0-.856-.584,5.386,5.386,0,0,0-2.523-.6,4.7,4.7,0,0,0-2.213.512,5.242,5.242,0,0,0-1.655,1.345,6.122,6.122,0,0,0-1.047,1.927,7,7,0,0,0-.369,2.24,6.86,6.86,0,0,0,.4,2.4,5.518,5.518,0,0,0,1.149,1.893,5.193,5.193,0,0,0,1.8,1.236,5.953,5.953,0,0,0,2.332.44,4.9,4.9,0,0,0,1.725-.345,3.36,3.36,0,0,0,1.535-1.178h.048v1.12a2.8,2.8,0,0,1-.773,2.034,3.23,3.23,0,0,1-2.416.8,4.91,4.91,0,0,1-2.011-.405,7.444,7.444,0,0,1-1.749-1.094l-1.976,2.948a6.9,6.9,0,0,0,2.761,1.345,13.58,13.58,0,0,0,3.047.345,6.727,6.727,0,0,0,5.032-1.7,6.878,6.878,0,0,0,1.655-4.986V539.453h-3.28Zm-.215,5.271a2.772,2.772,0,0,1-.607.9,3.086,3.086,0,0,1-.916.63,2.765,2.765,0,0,1-2.249,0,3.134,3.134,0,0,1-.9-.63,2.807,2.807,0,0,1,0-3.974,3.162,3.162,0,0,1,.9-.632,2.786,2.786,0,0,1,2.249,0,3.113,3.113,0,0,1,.916.632,2.821,2.821,0,0,1,.607,3.069Z" fill="#fff"/>
    <path id="Path_2158" data-name="Path 2158" d="M294.819,540.822a6.068,6.068,0,0,0-2.046-1.227,7.589,7.589,0,0,0-5.022,0,6.047,6.047,0,0,0-2.047,1.227,5.747,5.747,0,0,0-1.368,1.915,6.493,6.493,0,0,0,0,5,5.728,5.728,0,0,0,1.368,1.92,6.028,6.028,0,0,0,2.047,1.226,7.563,7.563,0,0,0,5.022,0,6.014,6.014,0,0,0,2.046-1.226,5.729,5.729,0,0,0,1.368-1.92,6.493,6.493,0,0,0,0-5A5.747,5.747,0,0,0,294.819,540.822Zm-2.451,6.532a3.147,3.147,0,0,1-4.213,0,3.368,3.368,0,0,1,0-4.24,3.15,3.15,0,0,1,4.213,0,3.368,3.368,0,0,1,0,4.24Z" fill="#fff"/>
    <path id="Path_2159" data-name="Path 2159" d="M301.422,539.533h-1.914v11.485h1.914Z" fill="#fff"/>
    <path id="Path_2160" data-name="Path 2160" d="M300.466,533.643a1.345,1.345,0,0,0-.542.1,1.325,1.325,0,0,0-.453.313,1.4,1.4,0,1,0,1.988,0,1.306,1.306,0,0,0-.453-.313A1.335,1.335,0,0,0,300.466,533.643Z" fill="#fff"/>
    <path id="Path_2161" data-name="Path 2161" d="M315.583,540.96a5.5,5.5,0,0,0-1.9-1.265,6.525,6.525,0,0,0-2.467-.453,5.081,5.081,0,0,0-2.295.516,5.633,5.633,0,0,0-1.829,1.447h-.051v-1.672h-1.912v17.081h1.912v-7.632h.049a4.378,4.378,0,0,0,1.711,1.658,5.308,5.308,0,0,0,2.711.675,5.675,5.675,0,0,0,2.259-.454A5.512,5.512,0,0,0,315.6,549.6a5.924,5.924,0,0,0,1.215-1.914,6.77,6.77,0,0,0,0-4.811A5.807,5.807,0,0,0,315.583,540.96Zm-.675,6a3.88,3.88,0,0,1-2.108,2.255,4.432,4.432,0,0,1-3.36,0,3.879,3.879,0,0,1-2.11-2.257,5.146,5.146,0,0,1,0-3.36,3.877,3.877,0,0,1,2.11-2.258,4.432,4.432,0,0,1,3.36,0,3.877,3.877,0,0,1,2.11,2.258,5.145,5.145,0,0,1,0,3.36Z" fill="#fff"/>
    <path id="Path_2162" data-name="Path 2162" d="M326.9,545.28a4.228,4.228,0,0,0-1.2-.626,11.018,11.018,0,0,0-1.448-.38,10.959,10.959,0,0,1-1.092-.245,5.605,5.605,0,0,1-.933-.344,2.053,2.053,0,0,1-.64-.455.894.894,0,0,1-.233-.625,1.209,1.209,0,0,1,.209-.7,1.7,1.7,0,0,1,.527-.5,2.5,2.5,0,0,1,.725-.294,3.322,3.322,0,0,1,.8-.1,2.676,2.676,0,0,1,1.46.38,2.971,2.971,0,0,1,.969.994l1.6-1.055a3.546,3.546,0,0,0-1.633-1.6,5.279,5.279,0,0,0-2.27-.491,5.6,5.6,0,0,0-1.57.221,4.843,4.843,0,0,0-1.375.64,3.186,3.186,0,0,0-.982,1.055,2.906,2.906,0,0,0-.368,1.472,2.842,2.842,0,0,0,.331,1.449,2.709,2.709,0,0,0,.88.92,5,5,0,0,0,1.288.577q.736.221,1.547.393.467.1.908.221a3.115,3.115,0,0,1,.785.331,1.83,1.83,0,0,1,.552.5,1.284,1.284,0,0,1,.209.761,1.4,1.4,0,0,1-.221.8,1.809,1.809,0,0,1-.589.552,2.669,2.669,0,0,1-.822.32,4.281,4.281,0,0,1-.9.1,3.194,3.194,0,0,1-1.706-.417A4.832,4.832,0,0,1,320.467,548l-1.52,1.178a4.6,4.6,0,0,0,1.927,1.68,6.468,6.468,0,0,0,2.54.455,7.318,7.318,0,0,0,1.68-.2,4.6,4.6,0,0,0,1.472-.626,3.253,3.253,0,0,0,1.04-1.12,3.308,3.308,0,0,0,.394-1.665,3.212,3.212,0,0,0-.294-1.448A2.784,2.784,0,0,0,326.9,545.28Z" fill="#fff"/>
    <path id="Path_2163" data-name="Path 2163" d="M340.69,548.294v-8.761h-1.915v5.6a7.163,7.163,0,0,1-.209,1.792,4.066,4.066,0,0,1-.64,1.4,2.848,2.848,0,0,1-1.1.908,3.725,3.725,0,0,1-1.608.32,2.347,2.347,0,0,1-1.988-.834,3.677,3.677,0,0,1-.64-2.283v-6.9h-1.914v7.093a6.676,6.676,0,0,0,.258,1.9,3.863,3.863,0,0,0,.8,1.486,3.647,3.647,0,0,0,1.36.96,5.061,5.061,0,0,0,1.951.344,4.606,4.606,0,0,0,1.325-.185,4.5,4.5,0,0,0,1.1-.49,4.01,4.01,0,0,0,.847-.7,3.322,3.322,0,0,0,.553-.81h.048c0,.328.009.648.025.96s.025.623.024.933h1.817q0-.566-.05-1.252T340.69,548.294Z" fill="#fff"/>
    <path id="Path_2164" data-name="Path 2164" d="M361.379,542.049a3.766,3.766,0,0,0-.737-1.52,3.279,3.279,0,0,0-1.349-.96,5.6,5.6,0,0,0-2.062-.331,3.727,3.727,0,0,0-2.16.576,5.309,5.309,0,0,0-1.472,1.608q-.147-.294-.381-.675a2.772,2.772,0,0,0-.65-.712,3.8,3.8,0,0,0-1.04-.56,4.49,4.49,0,0,0-1.559-.233,4.561,4.561,0,0,0-2.43.675,4,4,0,0,0-.846.7,3.261,3.261,0,0,0-.552.81h-.05c0-.328-.008-.646-.024-.96s-.025-.621-.025-.932h-1.816q0,.566.049,1.252t.049,1.472v8.761h1.916v-5.595a7.177,7.177,0,0,1,.209-1.793,4.048,4.048,0,0,1,.64-1.4,2.825,2.825,0,0,1,1.1-.908,3.721,3.721,0,0,1,1.608-.32,1.865,1.865,0,0,1,1.693.8,5.249,5.249,0,0,1,.516,2.712v6.5h1.91v-6.629a3.944,3.944,0,0,1,.234-1.386,3.206,3.206,0,0,1,.64-1.068,2.917,2.917,0,0,1,.944-.687,2.751,2.751,0,0,1,1.154-.245,3.063,3.063,0,0,1,1.374.269,2.319,2.319,0,0,1,.859.713,2.673,2.673,0,0,1,.442,1.006,5.448,5.448,0,0,1,.123,1.153v6.872h1.91v-6.97A8.362,8.362,0,0,0,361.379,542.049Z" fill="#fff"/>
  </g>
</svg>
