<svg xmlns="http://www.w3.org/2000/svg" xmlns:xlink="http://www.w3.org/1999/xlink" width="153.6" height="64" viewBox="0 0 153.6 64">
  <defs>
    <clipPath id="clip-path">
      <rect id="Rectangle_324" data-name="Rectangle 324" width="153.6" height="64" transform="translate(399.6 512)" fill="#fff"/>
    </clipPath>
  </defs>
  <g id="Group_5867" data-name="Group 5867" transform="translate(-399.6 -512)" clip-path="url(#clip-path)">
    <path id="Path_2139" data-name="Path 2139" d="M420.852,549.216a9.908,9.908,0,0,0,.96-4.48,7.823,7.823,0,0,0-1.04-4.309,8.117,8.117,0,0,0-2.632-2.569,14.175,14.175,0,0,0-3.416-1.48q-1.83-.522-3.418-1.04a9.884,9.884,0,0,1-2.634-1.263,2.455,2.455,0,0,1-1.04-2.131,2.48,2.48,0,0,1,.436-1.48,3.21,3.21,0,0,1,1.132-.98,5.783,5.783,0,0,1,1.48-.543,7,7,0,0,1,1.52-.175,8.046,8.046,0,0,1,2.676.5,4.848,4.848,0,0,1,2.24,1.545l4.657-5.093a11.673,11.673,0,0,0-4.4-2.48,17.3,17.3,0,0,0-5.049-.74,15.46,15.46,0,0,0-4.395.631,11.338,11.338,0,0,0-3.773,1.886,9.436,9.436,0,0,0-2.612,3.134,9.262,9.262,0,0,0-.979,4.352,7.228,7.228,0,0,0,1.066,4.138,8.4,8.4,0,0,0,2.678,2.524,15.486,15.486,0,0,0,3.481,1.52q1.87.567,3.482,1.132a9.858,9.858,0,0,1,2.677,1.371,2.608,2.608,0,0,1,1.066,2.2,2.5,2.5,0,0,1-.412,1.44,3.273,3.273,0,0,1-1.087,1,5.476,5.476,0,0,1-1.52.589,7.412,7.412,0,0,1-4.96-.566,7.026,7.026,0,0,1-2.64-2.155L399.568,551a13.948,13.948,0,0,0,4.788,2.96,16.509,16.509,0,0,0,5.572.915,16.725,16.725,0,0,0,4.548-.609,11.027,11.027,0,0,0,3.786-1.872A9.1,9.1,0,0,0,420.852,549.216Z" fill="#fff"/>
    <path id="Path_2140" data-name="Path 2140" d="M424.028,529.282h8.793V554.09h6.789V529.282H448.4v-6.007H424.028Z" fill="#fff"/>
    <path id="Path_2141" data-name="Path 2141" d="M499.567,526.868a16.534,16.534,0,0,0-5.959-2.745,29.81,29.81,0,0,0-7.208-.848H471.034v18.671a7.517,7.517,0,0,1-.457,2.656,6.332,6.332,0,0,1-1.285,2.112,5.893,5.893,0,0,1-1.957,1.392,6.057,6.057,0,0,1-2.48.5,6.2,6.2,0,0,1-2.5-.5,5.842,5.842,0,0,1-1.98-1.392,6.359,6.359,0,0,1-1.285-2.112,7.517,7.517,0,0,1-.457-2.656V523.275h-6.79v18.933a14.835,14.835,0,0,0,.827,5.049,11.13,11.13,0,0,0,2.458,4.005,11.275,11.275,0,0,0,4.075,2.658,14.629,14.629,0,0,0,4.568.915l-.055.043h23.628a22.005,22.005,0,0,0,6.739-1.028,17.228,17.228,0,0,0,5.669-3.012,14.549,14.549,0,0,0,3.906-4.909,15.049,15.049,0,0,0,1.45-6.763,16.524,16.524,0,0,0-1.5-7.36A13.447,13.447,0,0,0,499.567,526.868ZM497,543.336a7.8,7.8,0,0,1-2.388,2.991,9.551,9.551,0,0,1-3.593,1.629,19.39,19.39,0,0,1-4.485.49h-3.615V529.7h4.106a15.407,15.407,0,0,1,4.174.56,10.315,10.315,0,0,1,3.458,1.675A8.078,8.078,0,0,1,497,534.771a8.842,8.842,0,0,1,.87,4.039A10.615,10.615,0,0,1,497,543.336Z" fill="#fff"/>
    <path id="Path_2142" data-name="Path 2142" d="M515.39,523.275H508.6V554.09h6.79Z" fill="#fff"/>
    <path id="Path_2143" data-name="Path 2143" d="M551.928,545.385a18.734,18.734,0,0,0,0-13.405,14.719,14.719,0,0,0-3.46-5.115,15.257,15.257,0,0,0-5.267-3.242,20.156,20.156,0,0,0-13.318,0,15.256,15.256,0,0,0-5.267,3.242,14.718,14.718,0,0,0-3.46,5.115,18.735,18.735,0,0,0,0,13.405,14.723,14.723,0,0,0,3.46,5.114,15.229,15.229,0,0,0,5.267,3.243,20.143,20.143,0,0,0,13.318,0,15.229,15.229,0,0,0,5.267-3.243A14.724,14.724,0,0,0,551.928,545.385Zm-6.48-2.72a9.108,9.108,0,0,1-1.939,3.133,8.8,8.8,0,0,1-3.024,2.068,10.85,10.85,0,0,1-7.878,0,8.806,8.806,0,0,1-3.024-2.068,9.108,9.108,0,0,1-1.939-3.133,12.046,12.046,0,0,1,0-7.943,9.086,9.086,0,0,1,1.939-3.156,8.863,8.863,0,0,1,3.024-2.067,10.86,10.86,0,0,1,7.878,0,8.863,8.863,0,0,1,3.024,2.067,9.085,9.085,0,0,1,1.939,3.156A12.059,12.059,0,0,1,545.448,542.665Z" fill="#fff"/>
    <path id="Path_2144" data-name="Path 2144" d="M399.631,560.484h1.781v5.025h1.374v-5.025h1.782v-1.217h-4.937Z" fill="#fff"/>
    <path id="Path_2145" data-name="Path 2145" d="M419.643,559.267l-2.7,6.24h1.515l.521-1.322H421.4l.538,1.322h1.552l-2.715-6.24Zm-.23,3.76.758-1.94.767,1.94Z" fill="#fff"/>
    <path id="Path_2146" data-name="Path 2146" d="M441.8,563.6h-.019l-2.653-4.338h-1.868v6.242h1.375v-4.443h.017l2.724,4.443h1.8v-6.242H441.8Z" fill="#fff"/>
    <path id="Path_2147" data-name="Path 2147" d="M459.629,559.267l-2.7,6.24h1.516l.52-1.322h2.424l.537,1.322h1.552l-2.715-6.24Zm-.229,3.76.757-1.94.767,1.94Z" fill="#fff"/>
    <path id="Path_2148" data-name="Path 2148" d="M481.288,561.595h-2.671v-2.328h-1.375v6.242h1.375v-2.7h2.671v2.7h1.376v-6.242h-1.376Z" fill="#fff"/>
    <path id="Path_2149" data-name="Path 2149" d="M514.867,559.267l-2.7,6.24h1.52l.52-1.322h2.424l.538,1.322h1.552l-2.715-6.24Zm-.23,3.76.758-1.94.767,1.94Z" fill="#fff"/>
    <path id="Path_2150" data-name="Path 2150" d="M533.837,559.267h-1.376v6.242h1.376Z" fill="#fff"/>
    <path id="Path_2151" data-name="Path 2151" d="M551.644,562.873a1.548,1.548,0,0,0,1.005-.587,1.832,1.832,0,0,0,.344-1.12,1.965,1.965,0,0,0-.189-.912,1.545,1.545,0,0,0-.512-.582,2.151,2.151,0,0,0-.749-.309,4.287,4.287,0,0,0-.9-.093h-2.415v6.24H549.6v-2.5h.679l1.3,2.495h1.648Zm-.19-1.323a.643.643,0,0,1-.278.208,1.226,1.226,0,0,1-.374.08c-.138.009-.269.013-.393.013H549.6v-1.42h.9a2.658,2.658,0,0,1,.378.027,1.062,1.062,0,0,1,.345.1.606.606,0,0,1,.343.595A.621.621,0,0,1,551.454,561.55Z" fill="#fff"/>
  </g>
</svg>
