<svg xmlns="http://www.w3.org/2000/svg" xmlns:xlink="http://www.w3.org/1999/xlink" width="153.6" height="64" viewBox="0 0 153.6 64">
  <defs>
    <clipPath id="clip-path">
      <rect id="Rectangle_323" data-name="Rectangle 323" width="153.6" height="64" transform="translate(591.199 512)" fill="#fff"/>
    </clipPath>
  </defs>
  <g id="Group_5866" data-name="Group 5866" transform="translate(-591.199 -512)" clip-path="url(#clip-path)">
    <path id="Path_2127" data-name="Path 2127" d="M609.591,548.72l.122,15.986q.013,1.92.069,2.412a1.014,1.014,0,0,0,.422.756,2.323,2.323,0,0,0,1.3.252h.351l.006.672-6.4.048-.005-.672h.409a2.392,2.392,0,0,0,1.247-.251.948.948,0,0,0,.3-.292.937.937,0,0,0,.145-.389,22.948,22.948,0,0,0,.054-2.516l-.09-11.84a5.084,5.084,0,0,0-.353-2.371q-.339-.488-1.641-.48l-.005-.672a12.6,12.6,0,0,0,2.1-.221,7.617,7.617,0,0,0,1.655-.421Z" fill="#fff"/>
    <path id="Path_2128" data-name="Path 2128" d="M613.4,562.782a6.26,6.26,0,0,1,1.8-4.61,6.486,6.486,0,0,1,9.075-.061,6.261,6.261,0,0,1,1.876,4.575,6.163,6.163,0,0,1-1.831,4.77,6.41,6.41,0,0,1-4.5,1.766,6.322,6.322,0,0,1-4.521-1.727,6.2,6.2,0,0,1-1.9-4.713Zm2.426.055q.024,3.186,1.071,4.456a3.843,3.843,0,0,0,5.838-.044q1.005-1.285.982-4.472a7.706,7.706,0,0,0-1.04-4.493,3.766,3.766,0,0,0-5.873.036A7.667,7.667,0,0,0,615.821,562.837Z" fill="#fff"/>
    <path id="Path_2129" data-name="Path 2129" d="M637.468,557.691a3.46,3.46,0,0,1,2.5-1.423,1.5,1.5,0,0,1,.584.077,1.485,1.485,0,0,1,.508.3,1.141,1.141,0,0,1,.394.829q.008.966-.87.972a1,1,0,0,1-.837-.594c-.218-.367-.443-.552-.676-.55a1.8,1.8,0,0,0-1.222.77,4.686,4.686,0,0,1,.779,2.537,4.4,4.4,0,0,1-1.233,3.106q-1.248,1.37-4.227,1.495-3.1.125-3.088,1.28,0,.54.707.753a13.307,13.307,0,0,0,2.9.329,20.083,20.083,0,0,1,3.715.418,3.831,3.831,0,0,1,1.319,6.792A7.469,7.469,0,0,1,634.187,576a7.956,7.956,0,0,1-4.363-1.02,3.1,3.1,0,0,1-1.656-2.646,2.23,2.23,0,0,1,.456-1.466,1.624,1.624,0,0,1,1.326-.58,1.222,1.222,0,0,1,.424.07,3.092,3.092,0,0,0-.89,2.112,2.508,2.508,0,0,0,1.222,2.116,6.3,6.3,0,0,0,3.608.814,5.619,5.619,0,0,0,3.317-.88,2.588,2.588,0,0,0,1.175-2.2,2.166,2.166,0,0,0-1.082-2.052,9.5,9.5,0,0,0-3.8-.668q-3.141-.108-4.08-.744a1.888,1.888,0,0,1-.948-1.614q-.013-1.915,2.657-2.432a6.251,6.251,0,0,1-2.109-1.857,4.153,4.153,0,0,1-.72-2.347,4,4,0,0,1,1.416-3.116,4.968,4.968,0,0,1,3.4-1.3,5.175,5.175,0,0,1,3.93,1.505Zm-6.551,3.235a4.105,4.105,0,0,0,.794,2.754,2.595,2.595,0,0,0,3.881-.022,4.468,4.468,0,0,0,.773-3.024,4.1,4.1,0,0,0-.869-2.974,2.7,2.7,0,0,0-1.92-.8,2.262,2.262,0,0,0-2.009,1.025A5.526,5.526,0,0,0,630.917,560.926Z" fill="#fff"/>
    <path id="Path_2130" data-name="Path 2130" d="M642.386,562.56a6.247,6.247,0,0,1,1.806-4.609,6.478,6.478,0,0,1,9.074-.062,6.257,6.257,0,0,1,1.876,4.575,6.159,6.159,0,0,1-1.836,4.77,6.4,6.4,0,0,1-4.5,1.765,6.324,6.324,0,0,1-4.522-1.719,6.193,6.193,0,0,1-1.9-4.72Zm2.426.055q.024,3.186,1.07,4.457a3.97,3.97,0,0,0,5.84-.045q1.007-1.284.983-4.472a7.7,7.7,0,0,0-1.04-4.492,3.879,3.879,0,0,0-5.867.036,7.6,7.6,0,0,0-.986,4.519Z" fill="#fff"/>
    <path id="Path_2131" data-name="Path 2131" d="M661.159,555.589l.065,8.6q.015,1.973.08,2.485a1.07,1.07,0,0,0,.443.78,2.416,2.416,0,0,0,1.343.261h.32l.006.694-6.646.049-.005-.693.513,0a2.15,2.15,0,0,0,1.391-.32,1.205,1.205,0,0,0,.371-.742q.051-.429.034-2.494l-.035-3.738a9.636,9.636,0,0,0-.222-2.65,1,1,0,0,0-.549-.6,4.02,4.02,0,0,0-1.182-.111h-.408l-.005-.693a18.383,18.383,0,0,0,4.153-.831Zm-2.96-6.278a1.534,1.534,0,0,1,.452-1.12,1.487,1.487,0,0,1,1.1-.475,1.471,1.471,0,0,1,1.1.458,1.554,1.554,0,0,1,.343.509,1.538,1.538,0,0,1,.117.6,1.561,1.561,0,0,1-.443,1.135,1.553,1.553,0,0,1-1.7.361,1.5,1.5,0,0,1-.508-.345,1.56,1.56,0,0,1-.465-1.126Z" fill="#fff"/>
    <path id="Path_2132" data-name="Path 2132" d="M667.714,555.538h.408a7.164,7.164,0,0,1,.271,2.033,6.648,6.648,0,0,1,2.06-1.545,5.864,5.864,0,0,1,6.617,1.247,6.633,6.633,0,0,1,1.739,4.741,7.056,7.056,0,0,1-1.674,4.85,5.7,5.7,0,0,1-4.484,1.977,5.382,5.382,0,0,1-2.2-.443,6.737,6.737,0,0,1-1.993-1.348l.035,4.686a22.46,22.46,0,0,0,.1,2.606.974.974,0,0,0,.48.7,3.154,3.154,0,0,0,1.463.223l.005.693L664.1,576l-.006-.694h.452a2.152,2.152,0,0,0,1.392-.32,1.188,1.188,0,0,0,.371-.741q.05-.429.034-2.494l-.084-11.211q-.015-1.973-.072-2.486a1.059,1.059,0,0,0-.13-.439,1.072,1.072,0,0,0-.3-.341,2.414,2.414,0,0,0-1.343-.26h-.452l-.006-.694A24.886,24.886,0,0,0,667.714,555.538Zm.743,10.514a6.017,6.017,0,0,0,1.737,1.486,3.9,3.9,0,0,0,1.924.491,3.827,3.827,0,0,0,2.96-1.483,7.034,7.034,0,0,0,1.23-4.667,6.082,6.082,0,0,0-1.251-4.135,3.771,3.771,0,0,0-2.919-1.349,3.946,3.946,0,0,0-1.97.543,6.219,6.219,0,0,0-1.769,1.609Z" fill="#fff"/>
    <path id="Path_2133" data-name="Path 2133" d="M681.33,568.668l-.031-4.053.588-.005q1.05,3.5,3.689,3.484a2.081,2.081,0,0,0,1.705-.707,2.356,2.356,0,0,0,.553-1.525,2.156,2.156,0,0,0-.147-.852,2.186,2.186,0,0,0-.468-.727,9.754,9.754,0,0,0-2.406-1.473,9.217,9.217,0,0,1-2.7-1.788,3.049,3.049,0,0,1-.83-2.149,3.707,3.707,0,0,1,.857-2.335,2.945,2.945,0,0,1,2.447-1.126,3.285,3.285,0,0,1,2.679,1.291,4.005,4.005,0,0,0,.578-1.1h.56l.028,3.813-.56,0a5.2,5.2,0,0,0-1.185-2.35,2.638,2.638,0,0,0-2.049-.971,1.965,1.965,0,0,0-.788.133,1.993,1.993,0,0,0-.67.435,1.78,1.78,0,0,0-.547,1.3,1.869,1.869,0,0,0,.627,1.4,8.341,8.341,0,0,0,2.316,1.354q2.573,1.141,3.151,2.24a4.686,4.686,0,0,1,.59,2.135,3.451,3.451,0,0,1-1.04,2.63,3.732,3.732,0,0,1-2.667,1.029,4.063,4.063,0,0,1-3.04-1.377,3.369,3.369,0,0,0-.654,1.3Z" fill="#fff"/>
    <path id="Path_2134" data-name="Path 2134" d="M703.688,555.766l.061,8.092q.013,2.019.08,2.53a1.014,1.014,0,0,0,.451.766,2.647,2.647,0,0,0,1.38.245l.006.694a9.417,9.417,0,0,0-3.342.506h-.181a6.271,6.271,0,0,1-.533-2.859,6.7,6.7,0,0,1-2.087,2.171,4.9,4.9,0,0,1-2.609.742,4.194,4.194,0,0,1-2.189-.547,3.053,3.053,0,0,1-1.315-1.37,6.5,6.5,0,0,1-.372-2.453l-.032-4.2a24.533,24.533,0,0,0-.095-2.615.926.926,0,0,0-.48-.7,3.3,3.3,0,0,0-1.471-.215l-.006-.694,4.189-.032.065,8.56a7.95,7.95,0,0,0,.166,1.84,1.79,1.79,0,0,0,.775,1,2.444,2.444,0,0,0,1.435.419,3.745,3.745,0,0,0,2.21-.778,4.2,4.2,0,0,0,1.426-1.622,6.118,6.118,0,0,0,.366-2.438l-.02-2.787q-.015-2.019-.064-2.457a1.21,1.21,0,0,0-.391-.758,2.147,2.147,0,0,0-1.411-.313h-.32l-.005-.694Z" fill="#fff"/>
    <path id="Path_2135" data-name="Path 2135" d="M710.675,555.215h.151a6.594,6.594,0,0,1,.456,2.587,7.3,7.3,0,0,1,2.16-1.958,5.089,5.089,0,0,1,2.5-.668,4.092,4.092,0,0,1,2.48.675,3.654,3.654,0,0,1,1.342,2.07,8.789,8.789,0,0,1,2.335-2.1,4.863,4.863,0,0,1,2.45-.712,4.283,4.283,0,0,1,2.432.645,2.656,2.656,0,0,1,1.217,1.5,12.471,12.471,0,0,1,.231,2.726l.028,3.707a22.939,22.939,0,0,0,.1,2.621.941.941,0,0,0,.487.69,3.324,3.324,0,0,0,1.487.214l.005.694-6.16.047-.005-.694a3.1,3.1,0,0,0,1.376-.229.927.927,0,0,0,.32-.277.939.939,0,0,0,.165-.39,20.877,20.877,0,0,0,.07-2.659l-.03-4.114a9.434,9.434,0,0,0-.16-1.883,1.875,1.875,0,0,0-.756-1.081,2.552,2.552,0,0,0-1.569-.44,3.508,3.508,0,0,0-1.962.679,8.437,8.437,0,0,0-1.967,2.019l.038,4.868q.014,1.973.07,2.48a1.077,1.077,0,0,0,.429.781,2.287,2.287,0,0,0,1.32.269l.006.693-5.969.045,0-.694a3.3,3.3,0,0,0,1.407-.22.943.943,0,0,0,.493-.652,19.554,19.554,0,0,0,.08-2.684l-.027-3.42a15.238,15.238,0,0,0-.145-2.358,2.03,2.03,0,0,0-.785-1.245,2.5,2.5,0,0,0-1.617-.507,3.611,3.611,0,0,0-1.9.616,8.656,8.656,0,0,0-1.968,1.823l.04,5.139q.013,2.034.08,2.532a1,1,0,0,0,.456.75,2.75,2.75,0,0,0,1.4.246l.005.693-6.041.045-.006-.694a3.158,3.158,0,0,0,1.392-.228.94.94,0,0,0,.485-.659,21.019,21.019,0,0,0,.07-2.668l-.028-3.692q-.015-2.11-.087-2.585a.951.951,0,0,0-.473-.712,3.022,3.022,0,0,0-1.44-.23l0-.694A16.5,16.5,0,0,0,710.675,555.215Z" fill="#fff"/>
    <path id="Path_2136" data-name="Path 2136" d="M719.3,541.174H690.228V512.1A29.077,29.077,0,0,1,719.3,541.174Z" fill="#fff"/>
    <path id="Path_2137" data-name="Path 2137" d="M631.232,541.174H616.694V526.635a14.537,14.537,0,1,1,14.538,14.539Z" fill="#fff"/>
    <path id="Path_2138" data-name="Path 2138" d="M682.586,541.174H653.51l-.1-29.174,19.95,19.949Z" fill="#fff"/>
  </g>
</svg>
