<svg xmlns="http://www.w3.org/2000/svg" width="70.099" height="65.607" viewBox="0 0 70.099 65.607">
  <g id="banner" transform="translate(0 -16.404)">
    <path id="Path_2098" data-name="Path 2098" d="M303.3,156.891a1.027,1.027,0,0,0-1.864,0l-2.57,5.555a1.027,1.027,0,0,0,1.864.862l.079-.172h3.118l.079.172a1.027,1.027,0,1,0,1.864-.862Zm-1.541,4.192.609-1.316.609,1.316Z" transform="translate(-257.857 -120.738)" fill="#ed880a"/>
    <path id="Path_2099" data-name="Path 2099" d="M366.633,155.69h-1.907a1.027,1.027,0,0,0-1.027,1.027v5.638a1.027,1.027,0,0,0,1.027,1.027h1.907a3.846,3.846,0,1,0,0-7.692Zm0,5.638h-.88v-3.584h.88a1.792,1.792,0,1,1,0,3.584Z" transform="translate(-313.905 -120.216)" fill="#ed880a"/>
    <path id="Path_2100" data-name="Path 2100" d="M99.069,73.6a1.027,1.027,0,0,0-1.027-1.027H45.718a1.027,1.027,0,0,0,0,2.054H98.042A1.027,1.027,0,0,0,99.069,73.6Z" transform="translate(-38.601 -48.482)" fill="#ed880a"/>
    <path id="Path_2101" data-name="Path 2101" d="M71.309,114.058H45.718a1.027,1.027,0,0,0,0,2.054H71.309A1.027,1.027,0,0,0,71.309,114.058Z" transform="translate(-38.601 -84.284)" fill="#ed880a"/>
    <path id="Path_2102" data-name="Path 2102" d="M71.309,155.54H45.718a1.027,1.027,0,0,0,0,2.054H71.309A1.027,1.027,0,0,0,71.309,155.54Z" transform="translate(-38.601 -120.087)" fill="#ed880a"/>
    <path id="Path_2103" data-name="Path 2103" d="M71.309,197.021H45.718a1.027,1.027,0,0,0,0,2.054H71.309A1.027,1.027,0,0,0,71.309,197.021Z" transform="translate(-38.601 -155.889)" fill="#ed880a"/>
    <path id="Path_2104" data-name="Path 2104" d="M71.309,238.5H45.718a1.027,1.027,0,0,0,0,2.054H71.309A1.027,1.027,0,0,0,71.309,238.5Z" transform="translate(-38.601 -191.69)" fill="#ed880a"/>
    <path id="Path_2105" data-name="Path 2105" d="M69.481,52.953l-2.287-1.692V22.112A5.715,5.715,0,0,0,61.486,16.4H14.923a1.027,1.027,0,0,0,0,2.054H61.486a3.658,3.658,0,0,1,3.654,3.654v27.63l-4.7-3.476a1.023,1.023,0,0,0,.027-.231V30.8a1.027,1.027,0,0,0-1.027-1.027h-21.4A1.027,1.027,0,0,0,37.018,30.8V47.839a1.027,1.027,0,0,0,1.027,1.027h18.72v5.213H2.054V22.113a3.659,3.659,0,0,1,3.655-3.655H9.173a1.027,1.027,0,0,0,0-2.054H5.708A5.715,5.715,0,0,0,0,22.113V61.761a5.715,5.715,0,0,0,5.709,5.709H26.8v7.657H21.108c-4.432,0-4.445,6.885,0,6.885H39.293a1.027,1.027,0,0,0,0-2.054H21.108a1.39,1.39,0,0,1,0-2.778H46.086a1.39,1.39,0,0,1,0,2.778h-.768a1.027,1.027,0,0,0,0,2.054h.768c4.432,0,4.445-6.885,0-6.885H40.545V67.469h20.94a5.715,5.715,0,0,0,5.709-5.709V55.715h1.4A1.53,1.53,0,0,0,69.481,52.953Zm-6.884.71a1.581,1.581,0,0,0-1.217.686L58.81,57.836V47.615l8.177,6.049ZM39.071,46.812V31.828H58.414V45.039a1.523,1.523,0,0,0-1.664,1.525v.248Zm-.58,28.315H28.853V67.469h9.638ZM65.14,61.761a3.659,3.659,0,0,1-3.655,3.655H5.708a3.659,3.659,0,0,1-3.655-3.655V56.132H56.809v3.35a1.549,1.549,0,0,0,2.778.879l3.3-4.6h2.25v5.995Z" transform="translate(0 0)" fill="#ed880a"/>
  </g>
</svg>
