<svg xmlns="http://www.w3.org/2000/svg" width="81.571" height="81.824" viewBox="0 0 81.571 81.824">
  <path id="XMLID_2024_" d="M43.442,55.692A1.812,1.812,0,0,1,41.629,57.5H41.2a1.812,1.812,0,1,1,0-3.625h.431A1.812,1.812,0,0,1,43.442,55.692Zm12.665-1.812h1.546a1.812,1.812,0,1,1,0,3.625H56.106a14.832,14.832,0,0,1-12.88,12.881V71.93a1.812,1.812,0,1,1-3.625,0V70.385A14.833,14.833,0,0,1,26.721,57.5H25.175a1.812,1.812,0,1,1,0-3.625h1.546A14.833,14.833,0,0,1,39.6,41V39.453a1.812,1.812,0,1,1,3.625,0V41A14.833,14.833,0,0,1,56.106,53.879Zm-6.762,1.812a1.812,1.812,0,0,1,1.812-1.812h1.288a11.207,11.207,0,0,0-9.219-9.219v1.289a1.812,1.812,0,1,1-3.625,0V44.66a11.207,11.207,0,0,0-9.219,9.219H31.67a1.812,1.812,0,1,1,0,3.625H30.382A11.207,11.207,0,0,0,39.6,66.723V65.435a1.812,1.812,0,1,1,3.625,0v1.288A11.207,11.207,0,0,0,52.445,57.5H51.157A1.812,1.812,0,0,1,49.344,55.692ZM82.2,27.794a27.57,27.57,0,0,1-8.4,19.866,1.812,1.812,0,0,1-2.533-2.593,24.365,24.365,0,0,0,4.919-6.8h-8.6a1.812,1.812,0,1,1,0-3.625H77.587a24.246,24.246,0,0,0,0-13.7H62.235a48.831,48.831,0,0,1,.477,6.848c0,.637-.013,1.3-.039,1.956a1.812,1.812,0,0,1-3.622-.142c.024-.614.036-1.224.036-1.814a44.237,44.237,0,0,0-.53-6.848H43.226v2.268a1.812,1.812,0,0,1-3.625,0V20.947H24.27a44.238,44.238,0,0,0-.53,6.848c0,.587.012,1.2.036,1.814a1.812,1.812,0,0,1-3.622.142c-.026-.664-.039-1.322-.039-1.956a48.862,48.862,0,0,1,.477-6.848H5.241a24.246,24.246,0,0,0,0,13.7H15.246a1.812,1.812,0,1,1,0,3.625h-8.6a24.368,24.368,0,0,0,4.919,6.8,1.813,1.813,0,0,1-2.533,2.594A27.762,27.762,0,0,1,28.423,0H54.4A27.826,27.826,0,0,1,82.2,27.794ZM27.331,3.649A24.211,24.211,0,0,0,6.642,17.322H21.255A35.608,35.608,0,0,1,27.331,3.649ZM39.6,3.625H32.144C28.876,6.9,26.395,11.745,25,17.322H39.6V3.625Zm18.223,13.7c-1.392-5.576-3.873-10.42-7.141-13.7H43.226v13.7Zm18.361,0A24.211,24.211,0,0,0,55.5,3.649a35.608,35.608,0,0,1,6.076,13.672Zm-8.639,38.37A26.133,26.133,0,1,1,41.413,29.559,26.162,26.162,0,0,1,67.546,55.692Zm-3.625,0A22.508,22.508,0,1,0,41.413,78.2,22.533,22.533,0,0,0,63.922,55.692Z" transform="translate(-0.628)" fill="#ed880a"/>
</svg>
