<svg xmlns="http://www.w3.org/2000/svg" width="80.198" height="85.653" viewBox="0 0 80.198 85.653">
  <g id="visibility" transform="translate(-16.303)">
    <g id="Group_74" data-name="Group 74" transform="translate(16.303 19.907)">
      <g id="Group_73" data-name="Group 73" transform="translate(0)">
        <path id="Path_2076" data-name="Path 2076" d="M95.123,137.918a2.044,2.044,0,1,0-3.223,2.514,2.413,2.413,0,0,1,0,2.972,44.889,44.889,0,0,1-18.75,14.138,22.869,22.869,0,0,0,.052-31.2,44.85,44.85,0,0,1,11.7,6.921c.439.36.878.734,1.3,1.11a2.044,2.044,0,1,0,2.71-3.06c-.464-.411-.942-.818-1.421-1.211a49.085,49.085,0,0,0-69.818,7.812,6.5,6.5,0,0,0,0,8,49.084,49.084,0,0,0,77.443,0A6.5,6.5,0,0,0,95.123,137.918ZM20.9,143.4a2.413,2.413,0,0,1,0-2.972A44.887,44.887,0,0,1,39.649,126.3a22.871,22.871,0,0,0,0,31.245A44.887,44.887,0,0,1,20.9,143.4Zm35.523,17.345h-.05a18.831,18.831,0,0,1,0-37.663h.044a18.831,18.831,0,0,1,.006,37.663Z" transform="translate(-16.303 -118.999)" fill="#ed880a"/>
      </g>
    </g>
    <g id="Group_76" data-name="Group 76" transform="translate(47.73 34.154)">
      <g id="Group_75" data-name="Group 75">
        <path id="Path_2077" data-name="Path 2077" d="M212.833,204.16a8.672,8.672,0,1,0,8.672,8.672A8.682,8.682,0,0,0,212.833,204.16Zm0,13.257a4.585,4.585,0,1,1,4.585-4.585A4.591,4.591,0,0,1,212.833,217.417Z" transform="translate(-204.161 -204.16)" fill="#ed880a"/>
      </g>
    </g>
    <g id="Group_78" data-name="Group 78" transform="translate(54.358)">
      <g id="Group_77" data-name="Group 77" transform="translate(0)">
        <path id="Path_2078" data-name="Path 2078" d="M245.828,0a2.044,2.044,0,0,0-2.044,2.044V9.708a2.044,2.044,0,0,0,4.088,0V2.044A2.044,2.044,0,0,0,245.828,0Z" transform="translate(-243.784)" fill="#ed880a"/>
      </g>
    </g>
    <g id="Group_80" data-name="Group 80" transform="translate(54.358 73.901)">
      <g id="Group_79" data-name="Group 79" transform="translate(0)">
        <path id="Path_2079" data-name="Path 2079" d="M245.828,441.753a2.044,2.044,0,0,0-2.044,2.044v7.664a2.044,2.044,0,1,0,4.088,0V443.8A2.044,2.044,0,0,0,245.828,441.753Z" transform="translate(-243.784 -441.753)" fill="#ed880a"/>
      </g>
    </g>
    <g id="Group_82" data-name="Group 82" transform="translate(79.382 11.945)">
      <g id="Group_81" data-name="Group 81">
        <path id="Path_2080" data-name="Path 2080" d="M400.671,72a2.044,2.044,0,0,0-2.891,0l-3.813,3.813a2.044,2.044,0,0,0,2.89,2.891l3.814-3.813A2.044,2.044,0,0,0,400.671,72Z" transform="translate(-393.369 -71.403)" fill="#ed880a"/>
      </g>
    </g>
    <g id="Group_84" data-name="Group 84" transform="translate(25.52 65.807)">
      <g id="Group_83" data-name="Group 83" transform="translate(0)">
        <path id="Path_2081" data-name="Path 2081" d="M78.705,393.967a2.044,2.044,0,0,0-2.89,0L72,397.781a2.044,2.044,0,0,0,2.89,2.891l3.814-3.813A2.044,2.044,0,0,0,78.705,393.967Z" transform="translate(-71.403 -393.369)" fill="#ed880a"/>
      </g>
    </g>
    <g id="Group_86" data-name="Group 86" transform="translate(25.52 11.945)">
      <g id="Group_85" data-name="Group 85" transform="translate(0)">
        <path id="Path_2082" data-name="Path 2082" d="M78.706,75.815,74.892,72A2.044,2.044,0,0,0,72,74.892L75.815,78.7a2.044,2.044,0,1,0,2.89-2.89Z" transform="translate(-71.403 -71.403)" fill="#ed880a"/>
      </g>
    </g>
    <g id="Group_88" data-name="Group 88" transform="translate(79.382 65.807)">
      <g id="Group_87" data-name="Group 87">
        <path id="Path_2083" data-name="Path 2083" d="M400.669,397.78l-3.813-3.813a2.044,2.044,0,1,0-2.891,2.891l3.814,3.813a2.044,2.044,0,1,0,2.89-2.891Z" transform="translate(-393.367 -393.368)" fill="#ed880a"/>
      </g>
    </g>
  </g>
</svg>
