<svg id="businessmen" xmlns="http://www.w3.org/2000/svg" width="48.426" height="48.426" viewBox="0 0 48.426 48.426">
  <path id="Path_5487" data-name="Path 5487" d="M9.08,11.593V2.513A5.372,5.372,0,0,1,9.282,1H3.531A3.548,3.548,0,0,0,0,4.531v9.08a3.548,3.548,0,0,0,3.531,3.531h.747l2.583,3.43a1.558,1.558,0,0,0,1.15.605h.061a1.436,1.436,0,0,0,1.13-.525l3.027-3.45A6.63,6.63,0,0,1,9.08,11.593Z" transform="translate(0 1.018)" fill="#fff"/>
  <path id="Path_5488" data-name="Path 5488" d="M26.636,1H20.886a5.372,5.372,0,0,1,.2,1.513v9.08A6.63,6.63,0,0,1,17.94,17.2l3.027,3.45a1.436,1.436,0,0,0,1.13.525h.061a1.558,1.558,0,0,0,1.15-.605l2.563-3.43h.767a3.548,3.548,0,0,0,3.531-3.531V4.531A3.548,3.548,0,0,0,26.636,1Z" transform="translate(18.258 1.018)" fill="#fff"/>
  <path id="Path_5489" data-name="Path 5489" d="M18.106,20.177H18.05a1.519,1.519,0,0,1-1.154-.605l-2.573-3.43H9.531A3.535,3.535,0,0,1,6,12.611V3.531A3.535,3.535,0,0,1,9.531,0H26.682a3.535,3.535,0,0,1,3.531,3.531v9.08a3.535,3.535,0,0,1-3.531,3.531H22.324l-3.079,3.519a1.509,1.509,0,0,1-1.138.517Z" transform="translate(6.106 0)" fill="#fff"/>
  <circle id="Ellipse_44" data-name="Ellipse 44" cx="3.806" cy="3.806" r="3.806" transform="translate(4.048 26.099)" fill="#fff"/>
  <path id="Path_5490" data-name="Path 5490" d="M13.458,18.807a8.455,8.455,0,0,0-3.37,6.759v.5H1.513A1.524,1.524,0,0,1,0,24.558V23.549A5.546,5.546,0,0,1,5.549,18h5.044A5.513,5.513,0,0,1,13.458,18.807Z" transform="translate(0 18.319)" fill="#fff"/>
  <circle id="Ellipse_45" data-name="Ellipse 45" cx="3.806" cy="3.806" r="3.806" transform="translate(36.672 26.099)" fill="#fff"/>
  <path id="Path_5491" data-name="Path 5491" d="M30.788,23.549v1.009a1.524,1.524,0,0,1-1.513,1.513H20.7v-.5a8.455,8.455,0,0,0-3.37-6.759A5.513,5.513,0,0,1,20.2,18H25.24A5.546,5.546,0,0,1,30.788,23.549Z" transform="translate(17.637 18.319)" fill="#fff"/>
  <circle id="Ellipse_46" data-name="Ellipse 46" cx="6.053" cy="6.053" r="6.053" transform="translate(18.16 23.204)" fill="#fff"/>
  <path id="Path_5492" data-name="Path 5492" d="M23.146,19h-11.1A5.553,5.553,0,0,0,6.5,24.549v3.027a1.514,1.514,0,0,0,1.513,1.513H27.182A1.514,1.514,0,0,0,28.7,27.575V24.549A5.553,5.553,0,0,0,23.146,19Z" transform="translate(6.615 19.337)" fill="#fff"/>
</svg>
