<svg xmlns="http://www.w3.org/2000/svg" width="50.619" height="50.619" viewBox="0 0 50.619 50.619">
  <g id="gear" transform="translate(-0.5 0)">
    <path id="Path_5498" data-name="Path 5498" d="M49.757,19.6l-6.083-.621a18.905,18.905,0,0,0-.755-1.823l3.862-4.741a1.516,1.516,0,0,0-.1-2.029L40.735,4.442a1.516,1.516,0,0,0-2.029-.1L34.723,7.583a1.615,1.615,0,0,1-1.645.222l-.036-.015a1.611,1.611,0,0,1-1-1.318l-.522-5.11A1.516,1.516,0,0,0,30.012,0h-8.4A1.515,1.515,0,0,0,20.1,1.362l-.522,5.11a1.612,1.612,0,0,1-1,1.319l-.034.014A1.614,1.614,0,0,1,16.9,7.583L12.914,4.338a1.516,1.516,0,0,0-2.029.1L4.942,10.384a1.516,1.516,0,0,0-.1,2.029L8.083,16.4a1.613,1.613,0,0,1,.224,1.641l-.017.039a1.611,1.611,0,0,1-1.318,1l-5.11.522A1.515,1.515,0,0,0,.5,21.107v8.4A1.515,1.515,0,0,0,1.862,31.02l5.111.522a1.611,1.611,0,0,1,1.318,1l.015.036a1.614,1.614,0,0,1-.223,1.643L4.839,38.205a1.516,1.516,0,0,0,.1,2.029l5.943,5.943a1.516,1.516,0,0,0,2.029.1L16.9,43.036a1.615,1.615,0,0,1,1.643-.223l.037.015a1.611,1.611,0,0,1,1,1.318l.522,5.11a1.516,1.516,0,0,0,1.508,1.362h8.4a1.516,1.516,0,0,0,1.508-1.362l.522-5.11a1.612,1.612,0,0,1,1-1.318l.036-.015a1.613,1.613,0,0,1,1.643.223l3.982,3.245a1.516,1.516,0,0,0,2.029-.1l5.943-5.943a1.516,1.516,0,0,0,.1-2.029l-3.244-3.983a1.616,1.616,0,0,1-.222-1.645l.015-.035a1.611,1.611,0,0,1,1.318-1l5.11-.522a1.515,1.515,0,0,0,1.362-1.508v-8.4A1.515,1.515,0,0,0,49.757,19.6ZM25.81,37.422A12.112,12.112,0,1,1,37.922,25.31,12.126,12.126,0,0,1,25.81,37.422Zm0,0" fill="#fff"/>
    <path id="Path_5499" data-name="Path 5499" d="M173.74,164.16a9.08,9.08,0,1,0,9.08,9.08A9.091,9.091,0,0,0,173.74,164.16Zm5.334,7.426-5.452,5.452a1.516,1.516,0,0,1-2.144,0l-3.073-3.073a1.516,1.516,0,0,1,2.144-2.144l2,2,4.38-4.38a1.516,1.516,0,0,1,2.144,2.144Zm0,0" transform="translate(-147.93 -147.93)" fill="#fff"/>
  </g>
</svg>
