<svg id="workflow" xmlns="http://www.w3.org/2000/svg" width="52.776" height="52.775" viewBox="0 0 52.776 52.775">
  <path id="Path_5493" data-name="Path 5493" d="M171.1,0H152.546A1.546,1.546,0,0,0,151,1.546V12.885a1.546,1.546,0,0,0,1.546,1.546H171.1a1.546,1.546,0,0,0,1.546-1.546V1.546A1.546,1.546,0,0,0,171.1,0Zm0,0" transform="translate(-135.435)" fill="#fff"/>
  <path id="Path_5494" data-name="Path 5494" d="M171.1,186H152.546A1.546,1.546,0,0,0,151,187.546v11.338a1.546,1.546,0,0,0,1.546,1.546H171.1a1.546,1.546,0,0,0,1.546-1.546V187.546A1.546,1.546,0,0,0,171.1,186Zm0,0" transform="translate(-135.435 -166.828)" fill="#fff"/>
  <path id="Path_5495" data-name="Path 5495" d="M171.1,372H152.546A1.546,1.546,0,0,0,151,373.546v11.338a1.546,1.546,0,0,0,1.546,1.546H171.1a1.546,1.546,0,0,0,1.546-1.546V373.546A1.546,1.546,0,0,0,171.1,372Zm0,0" transform="translate(-135.435 -333.655)" fill="#fff"/>
  <path id="Path_5496" data-name="Path 5496" d="M389.731,78h-6.185a1.546,1.546,0,0,0,0,3.092h6.185a2.58,2.58,0,0,1,2.577,2.577v6.185a2.58,2.58,0,0,1-2.577,2.577h-2.452l1.483-1.484a1.546,1.546,0,0,0-2.186-2.186l-4.123,4.123a1.546,1.546,0,0,0,0,2.186l4.123,4.123a1.546,1.546,0,1,0,2.186-2.186l-1.483-1.484h2.452a5.676,5.676,0,0,0,5.669-5.669V83.669A5.676,5.676,0,0,0,389.731,78Zm0,0" transform="translate(-342.625 -69.96)" fill="#fff"/>
  <path id="Path_5497" data-name="Path 5497" d="M8.824,274.761a1.546,1.546,0,1,0-2.186,2.186l1.483,1.484H5.669a2.58,2.58,0,0,1-2.577-2.577V269.67a2.58,2.58,0,0,1,2.577-2.577h6.185a1.546,1.546,0,0,0,0-3.092H5.669A5.676,5.676,0,0,0,0,269.67v6.185a5.676,5.676,0,0,0,5.669,5.669H8.121l-1.483,1.484a1.546,1.546,0,1,0,2.186,2.186l4.123-4.123a1.546,1.546,0,0,0,0-2.186Zm0,0" transform="translate(0 -236.788)" fill="#fff"/>
</svg>
