<svg xmlns="http://www.w3.org/2000/svg" width="43.743" height="42.205" viewBox="0 0 43.743 42.205">
  <g id="settings" transform="translate(0 -9)">
    <path id="Path_979" data-name="Path 979" d="M40.86,9H2.883A2.886,2.886,0,0,0,0,11.881v27.9a2.886,2.886,0,0,0,2.883,2.881H16.17l-.553,2.81H13.053a2.87,2.87,0,0,0-2.869,2.864v1.8a1.064,1.064,0,0,0,1.065,1.062h22.13a1.063,1.063,0,0,0,1.062-1.062v-1.8a2.87,2.87,0,0,0-2.869-2.864H29.007l-.551-2.81h12.4a2.886,2.886,0,0,0,2.883-2.881v-27.9A2.886,2.886,0,0,0,40.86,9ZM27.7,45.477H23.774a.641.641,0,1,0,0,1.282h7.8a1.587,1.587,0,0,1,1.587,1.583v1.583H11.465V48.341a1.587,1.587,0,0,1,1.587-1.583h7.762a.641.641,0,0,0,0-1.282H16.924l.553-2.81H27.15Zm14.76-5.691a1.6,1.6,0,0,1-1.6,1.6H2.883a1.6,1.6,0,0,1-1.6-1.6v-27.9a1.6,1.6,0,0,1,1.6-1.6H40.86a1.6,1.6,0,0,1,1.6,1.6Z" fill="#ff465e"/>
    <path id="Path_980" data-name="Path 980" d="M76.331,49.95H41.764a1.115,1.115,0,0,0-1.115,1.113V75.5a1.117,1.117,0,0,0,1.116,1.115l16.226,0a.641.641,0,1,0,0-1.282l-16.06,0V51.232H76.162V75.338l-15.212,0h0a.641.641,0,0,0,0,1.282l15.381,0A1.115,1.115,0,0,0,77.444,75.5V51.063a1.114,1.114,0,0,0-1.113-1.113Z" transform="translate(-37.176 -37.451)" fill="#ff465e"/>
    <path id="Path_981" data-name="Path 981" d="M310.741,242.552v-3.465a.641.641,0,1,0-1.282,0v3.465a.641.641,0,1,0,1.282,0Z" transform="translate(-283.02 -209.843)" fill="#ff465e"/>
    <path id="Path_982" data-name="Path 982" d="M361.311,205.489v-6.927a.641.641,0,1,0-1.282,0v6.927a.641.641,0,1,0,1.282,0Z" transform="translate(-329.27 -172.78)" fill="#ff465e"/>
    <path id="Path_983" data-name="Path 983" d="M411.882,151.357V139.373a.641.641,0,1,0-1.282,0v11.984a.641.641,0,1,0,1.282,0Z" transform="translate(-375.52 -118.648)" fill="#ff465e"/>
    <path id="Path_984" data-name="Path 984" d="M101.211,121.322q.124-.26.225-.527h.318a1.418,1.418,0,0,0,1.418-1.415v-2.059a1.419,1.419,0,0,0-1.418-1.417h-.278q-.1-.284-.231-.561l.2-.2a1.42,1.42,0,0,0,0-2l-1.46-1.456a1.422,1.422,0,0,0-2,0l-.194.195q-.277-.127-.561-.23v-.279a1.418,1.418,0,0,0-1.418-1.415H93.742a1.418,1.418,0,0,0-1.418,1.415v.32q-.266.1-.526.224l-.232-.232a1.421,1.421,0,0,0-2,0l-1.458,1.457a1.416,1.416,0,0,0,0,2l.271.271q-.108.24-.2.486h-.388a1.419,1.419,0,0,0-1.418,1.417v2.059a1.418,1.418,0,0,0,1.418,1.415h.429q.087.23.19.453l-.3.3a1.416,1.416,0,0,0,0,2l1.456,1.455a1.4,1.4,0,0,0,1,.416,1.418,1.418,0,0,0,1.005-.414l.305-.3q.222.1.452.19v.428a1.418,1.418,0,0,0,1.418,1.415H95.8a1.418,1.418,0,0,0,1.418-1.415v-.387q.245-.088.486-.2l.27.27a1.408,1.408,0,0,0,1,.414h0a1.4,1.4,0,0,0,1-.414l1.461-1.457a1.42,1.42,0,0,0,0-2Zm-1.238.575.56.56a.139.139,0,0,1,0,.191l-1.463,1.459a.128.128,0,0,1-.093.038.137.137,0,0,1-.1-.039l-.593-.593a.641.641,0,0,0-.753-.113,5.706,5.706,0,0,1-1.13.455.641.641,0,0,0-.468.617v.854a.137.137,0,0,1-.137.134H93.742a.139.139,0,0,1-.137-.134v-.885a.641.641,0,0,0-.453-.613,5.89,5.89,0,0,1-1.1-.463.641.641,0,0,0-.76.109l-.632.631a.134.134,0,0,1-.1.039.118.118,0,0,1-.095-.039l-1.46-1.458a.127.127,0,0,1-.037-.092.133.133,0,0,1,.039-.1l.632-.632a.641.641,0,0,0,.109-.761,5.85,5.85,0,0,1-.463-1.1.641.641,0,0,0-.613-.454h-.886a.139.139,0,0,1-.137-.134v-2.059a.138.138,0,0,1,.137-.136h.855a.641.641,0,0,0,.617-.468,5.616,5.616,0,0,1,.454-1.127.641.641,0,0,0-.111-.754l-.6-.6a.127.127,0,0,1-.037-.092.133.133,0,0,1,.039-.1l1.458-1.457a.14.14,0,0,1,.191,0l.562.561a.641.641,0,0,0,.767.105,5.693,5.693,0,0,1,1.158-.494.641.641,0,0,0,.457-.614v-.779a.139.139,0,0,1,.137-.134H95.8a.137.137,0,0,1,.137.134v.745a.641.641,0,0,0,.465.616,5.908,5.908,0,0,1,1.2.491.641.641,0,0,0,.76-.111l.518-.52a.141.141,0,0,1,.194,0l1.458,1.454a.139.139,0,0,1,0,.191l-.523.523a.641.641,0,0,0-.11.759,5.9,5.9,0,0,1,.492,1.2.641.641,0,0,0,.616.465h.744a.136.136,0,0,1,.137.136v2.059a.137.137,0,0,1-.137.134h-.777a.641.641,0,0,0-.614.458,5.663,5.663,0,0,1-.494,1.158.641.641,0,0,0,.106.768Z" transform="translate(-78.995 -92.333)" fill="#ff465e" opacity="0.32"/>
    <path id="Path_985" data-name="Path 985" d="M156.861,177.785a2.6,2.6,0,1,0,2.6,2.6A2.6,2.6,0,0,0,156.861,177.785Zm0,3.912a1.315,1.315,0,1,1,1.316-1.317A1.319,1.319,0,0,1,156.861,181.7Z" transform="translate(-141.082 -154.365)" fill="#ff465e"/>
  </g>
</svg>
