<svg xmlns="http://www.w3.org/2000/svg" width="40.927" height="39.607" viewBox="0 0 40.927 39.607">
  <path id="Path_977" data-name="Path 977" d="M48.607,29.3l-6.281-3.768V16.66a.66.66,0,0,0-.66-.66h-26.4a.66.66,0,0,0-.66.66v8.868L8.32,29.3a.66.66,0,0,0-.32.566V54.947a.66.66,0,0,0,.66.66H48.267a.66.66,0,0,0,.66-.66V29.862A.66.66,0,0,0,48.607,29.3Zm-6.281-2.229,5.208,3.125-5.208,3.125Zm-26.4-9.747H41.006V34.109L28.463,41.635,15.921,34.109ZM14.6,27.068v6.25L9.393,30.192ZM9.32,54.286v-22.6l11.923,7.154-10.3,15.444Zm3.214,0,9.842-14.764,5.747,3.448a.661.661,0,0,0,.68,0l5.746-3.448,9.766,14.764Zm35.073,0H45.9L35.683,38.842l11.923-7.154Z" transform="translate(-8 -16)" fill="#755bff"/>
</svg>
