<svg id="support" xmlns="http://www.w3.org/2000/svg" width="45.571" height="45.571" viewBox="0 0 45.571 45.571">
  <g id="Group_5723" data-name="Group 5723">
    <g id="Group_5722" data-name="Group 5722">
      <path id="Path_1022" data-name="Path 1022" d="M150.153,137.106,148,136.388a9.082,9.082,0,0,0-.4-.975l1.014-2.027a.76.76,0,0,0-.069-.792,11.482,11.482,0,0,0-2.361-2.361.759.759,0,0,0-.792-.069l-2.027,1.014a9.011,9.011,0,0,0-.975-.4l-.718-2.153a.76.76,0,0,0-.608-.511,11.392,11.392,0,0,0-3.338,0,.76.76,0,0,0-.608.511l-.718,2.153a9.012,9.012,0,0,0-.975.4l-2.027-1.014a.761.761,0,0,0-.792.069,11.484,11.484,0,0,0-2.361,2.36.76.76,0,0,0-.069.792l1.014,2.027a9.11,9.11,0,0,0-.4.975l-2.153.718a.76.76,0,0,0-.511.608,11.478,11.478,0,0,0,0,3.338.76.76,0,0,0,.511.608l2.153.718a9,9,0,0,0,.4.975l-1.014,2.027a.76.76,0,0,0,.069.792,11.486,11.486,0,0,0,2.36,2.361.759.759,0,0,0,.792.069l2.027-1.014a9.111,9.111,0,0,0,.975.4l.718,2.153a.76.76,0,0,0,.608.511,11.477,11.477,0,0,0,3.338,0,.76.76,0,0,0,.608-.511l.718-2.153a9.083,9.083,0,0,0,.975-.4l2.027,1.014a.758.758,0,0,0,.792-.069,11.482,11.482,0,0,0,2.361-2.361.76.76,0,0,0,.069-.792l-1.014-2.027a9.007,9.007,0,0,0,.4-.975l2.153-.718a.76.76,0,0,0,.511-.608,11.477,11.477,0,0,0,0-3.338A.76.76,0,0,0,150.153,137.106Zm-.935,3.265-2.064.688a.759.759,0,0,0-.487.5,7.546,7.546,0,0,1-.588,1.427.76.76,0,0,0-.011.7l.971,1.943c-.206.252-.426.494-.664.733s-.481.458-.733.664l-1.943-.972a.757.757,0,0,0-.7.011,7.54,7.54,0,0,1-1.427.588.759.759,0,0,0-.5.487l-.688,2.064a9.993,9.993,0,0,1-1.975,0l-.688-2.064a.759.759,0,0,0-.5-.487,7.547,7.547,0,0,1-1.427-.588.757.757,0,0,0-.7-.011l-1.943.972c-.252-.207-.494-.426-.733-.664s-.458-.481-.664-.733l.971-1.943a.76.76,0,0,0-.011-.7,7.548,7.548,0,0,1-.588-1.427.759.759,0,0,0-.487-.5l-2.064-.688a10.061,10.061,0,0,1,0-1.975l2.064-.688a.759.759,0,0,0,.487-.5,7.548,7.548,0,0,1,.588-1.427.76.76,0,0,0,.011-.7l-.972-1.943c.207-.252.426-.494.664-.733s.481-.458.733-.664l1.943.971a.761.761,0,0,0,.7-.011,7.547,7.547,0,0,1,1.427-.588.759.759,0,0,0,.5-.487l.688-2.064a9.99,9.99,0,0,1,1.975,0l.688,2.064a.759.759,0,0,0,.5.487A7.549,7.549,0,0,1,143,132.7a.761.761,0,0,0,.7.011l1.943-.971c.252.206.494.426.733.664s.458.481.664.733l-.972,1.943a.76.76,0,0,0,.011.7,7.542,7.542,0,0,1,.588,1.427.759.759,0,0,0,.487.5l2.064.688A10.061,10.061,0,0,1,149.218,140.371Z" transform="translate(-116.607 -116.598)" fill="#0b76fc"/>
      <path id="Path_1023" data-name="Path 1023" d="M201.584,196.267a5.317,5.317,0,1,0,5.317,5.317A5.317,5.317,0,0,0,201.584,196.267Zm0,9.114a3.8,3.8,0,1,1,3.8-3.8A3.8,3.8,0,0,1,201.584,205.381Z" transform="translate(-178.798 -178.798)" fill="#0b76fc"/>
      <path id="Path_1024" data-name="Path 1024" d="M42.517,19.823C42.167,8.831,33.453,0,22.786,0S3.4,8.831,3.055,19.823A3.8,3.8,0,0,0,0,23.545V34.178a3.8,3.8,0,0,0,3.8,3.8,6.844,6.844,0,0,0,6.836,6.836H17.68a1.514,1.514,0,0,0,1.308.759h6.836a1.521,1.521,0,0,0,1.519-1.519V41.014A1.521,1.521,0,0,0,25.824,39.5H18.988a1.514,1.514,0,0,0-1.308.759H10.633a2.281,2.281,0,0,1-2.279-2.279,1.521,1.521,0,0,0,1.519-1.519V21.267a1.521,1.521,0,0,0-1.519-1.519H7.632c.381-8.441,7.022-15.19,15.154-15.19s14.772,6.749,15.154,15.19h-.723A1.521,1.521,0,0,0,35.7,21.267v15.19a1.521,1.521,0,0,0,1.519,1.519h4.557a3.8,3.8,0,0,0,3.8-3.8V23.545A3.8,3.8,0,0,0,42.517,19.823ZM18.988,41.014h6.836v3.038H18.988Zm-8.355.759h6.836v1.519H10.633a5.323,5.323,0,0,1-5.317-5.317H6.836A3.8,3.8,0,0,0,10.633,41.774ZM8.355,21.267v15.19H3.8a2.281,2.281,0,0,1-2.279-2.279V23.545A2.281,2.281,0,0,1,3.8,21.267H8.355ZM22.786,3.038c-8.97,0-16.309,7.428-16.691,16.709H4.576c.385-10.119,8.4-18.229,18.21-18.229S40.611,9.629,41,19.748H39.477C39.095,10.467,31.756,3.038,22.786,3.038Zm21.267,31.14a2.281,2.281,0,0,1-2.279,2.279H37.217V21.267h4.557a2.281,2.281,0,0,1,2.279,2.279Z" fill="#0b76fc"/>
    </g>
  </g>
</svg>
