<svg xmlns="http://www.w3.org/2000/svg" width="47.271" height="47.271" viewBox="0 0 47.271 47.271">
  <g id="Outline" transform="translate(-16 -16)">
    <path id="Path_1010" data-name="Path 1010" d="M17.345,256.23a.788.788,0,0,0-1.345.557v22.06a.788.788,0,0,0,.788.788h22.06a.788.788,0,0,0,.557-1.345Zm.231,21.829v-19.37l19.37,19.37Z" transform="translate(0 -216.364)" fill="#f786ff" opacity="0.4"/>
    <path id="Path_1011" data-name="Path 1011" d="M64.788,375.878h6.3a.788.788,0,0,0,.557-1.345l-6.3-6.3a.788.788,0,0,0-1.345.557v6.3A.788.788,0,0,0,64.788,375.878Zm.788-5.189,3.613,3.613H65.576Z" transform="translate(-43.273 -317.334)" fill="#f786ff"/>
    <path id="Path_1012" data-name="Path 1012" d="M104,48h1.576v1.576H104Z" transform="translate(-79.334 -28.849)" fill="#f786ff"/>
    <path id="Path_1013" data-name="Path 1013" d="M136,48h1.576v1.576H136Z" transform="translate(-108.182 -28.849)" fill="#f786ff"/>
    <path id="Path_1014" data-name="Path 1014" d="M168,48h1.576v1.576H168Z" transform="translate(-137.031 -28.849)" fill="#f786ff"/>
    <path id="Path_1015" data-name="Path 1015" d="M176.468,131.22a.776.776,0,0,0-.468.719v8.666a.788.788,0,0,0,.468.72l7.091,3.151a.785.785,0,0,0,.64,0h0l7.091-3.151a.788.788,0,0,0,.468-.72v-8.666a.776.776,0,0,0-.468-.719h0l-7.091-3.151a.789.789,0,0,0-.64,0l-7.091,3.151Zm6.622,11.324-5.515-2.451v-6.942l5.515,2.451Zm7.091-2.451-5.515,2.451V135.6l5.515-2.451Zm-6.3-10.444,5.151,2.289-5.151,2.289-5.151-2.289Z" transform="translate(-144.243 -100.97)" fill="#f786ff" opacity="0.4"/>
    <path id="Path_1016" data-name="Path 1016" d="M248,320h1.576v3.939H248Z" transform="translate(-209.152 -274.061)" fill="#f786ff"/>
    <path id="Path_1017" data-name="Path 1017" d="M248,72h1.576v3.939H248Z" transform="translate(-209.152 -50.485)" fill="#f786ff"/>
    <path id="Path_1018" data-name="Path 1018" d="M0,0H1.576V3.656H0Z" transform="translate(25.898 29.322) rotate(-64.46)" fill="#f786ff"/>
    <path id="Path_1019" data-name="Path 1019" d="M0,0H3.656V1.576H0Z" transform="translate(49.378 29.465) rotate(-25.54)" fill="#f786ff"/>
    <path id="Path_1020" data-name="Path 1020" d="M0,0H3.656V1.576H0Z" transform="translate(25.898 42.068) rotate(-25.54)" fill="#f786ff"/>
    <path id="Path_1021" data-name="Path 1021" d="M112.969,52.241h-4.727V39.962l4.632-4.632a3.016,3.016,0,1,0-4.266-4.266l-.366.366V24.666a.788.788,0,0,0-.231-.557l-7.879-7.879A.788.788,0,0,0,99.575,16H75.151A3.155,3.155,0,0,0,72,19.151V42h1.576V19.151a1.578,1.578,0,0,1,1.576-1.576H98.787V22.3a3.155,3.155,0,0,0,3.151,3.151h4.727v7.552L94.291,45.381a.789.789,0,0,0-.215.4l-.788,3.939a.788.788,0,0,0,.927.927l3.939-.788a.788.788,0,0,0,.4-.215l8.109-8.109v10.7H90.909a.788.788,0,0,0-.788.788v2.364H86.181v1.576h3.939v2.364a.788.788,0,0,0,.788.788h22.06a.788.788,0,0,0,.788-.788v-6.3A.788.788,0,0,0,112.969,52.241ZM100.363,22.3V18.69l5.189,5.189h-3.613a1.578,1.578,0,0,1-1.576-1.576Zm-4.4,23.636,12.279-12.279,2.037,2.037L98,47.976ZM110.74,31.757a1.441,1.441,0,0,1,1.019,2.459l-.366.366-2.037-2.037.366-.366A1.431,1.431,0,0,1,110.74,31.757ZM95.332,47.537l1.07,1.07-1.337.267Zm16.849,11.008H91.7V53.817h1.576v1.576h1.576V53.817h1.576v1.576H98V53.817h1.576v1.576h1.576V53.817h1.576v1.576H104.3V53.817h1.576v1.576h1.576V53.817h1.576v1.576h1.576V53.817h1.576Z" transform="translate(-50.485 0)" fill="#f786ff"/>
  </g>
</svg>
