<svg xmlns="http://www.w3.org/2000/svg" width="80" height="80" viewBox="0 0 80 80">
  <g id="Group_5711" data-name="Group 5711" transform="translate(-395 -2279)">
    <rect id="Rectangle_69" data-name="Rectangle 69" width="80" height="80" rx="25" transform="translate(395 2279)" fill="#755bff" opacity="0.16"/>
    <g id="email" transform="translate(407 2283)">
      <path id="Path_977" data-name="Path 977" d="M48.607,29.3l-6.281-3.768V16.66a.66.66,0,0,0-.66-.66h-26.4a.66.66,0,0,0-.66.66v8.868L8.32,29.3a.66.66,0,0,0-.32.566V54.947a.66.66,0,0,0,.66.66H48.267a.66.66,0,0,0,.66-.66V29.862A.66.66,0,0,0,48.607,29.3Zm-6.281-2.229,5.208,3.125-5.208,3.125Zm-26.4-9.747H41.006V34.109L28.463,41.635,15.921,34.109ZM14.6,27.068v6.25L9.393,30.192ZM9.32,54.286v-22.6l11.923,7.154-10.3,15.444Zm3.214,0,9.842-14.764,5.747,3.448a.661.661,0,0,0,.68,0l5.746-3.448,9.766,14.764Zm35.073,0H45.9L35.683,38.842l11.923-7.154Z" fill="#755bff"/>
      <path id="Path_978" data-name="Path 978" d="M168.863,64.108a.661.661,0,0,0-.628-.05l-5.813,2.584H154.64a.66.66,0,0,0-.66.66v1.32h-1.32a.66.66,0,0,0-.66.66v2.64a.66.66,0,0,0,.66.66h1.32V73.9a.66.66,0,0,0,.66.66h.66v3.3a.66.66,0,0,0,.66.66h2.64a.66.66,0,0,0,.66-.66v-3.3h3.16l5.813,2.584a.66.66,0,0,0,.928-.6V64.661a.661.661,0,0,0-.3-.554ZM153.98,71.262h-.66v-1.32h.66Zm3.961,5.941h-1.32v-2.64h1.32Zm3.961-3.961h-6.6V67.962h6.6Zm5.941,2.285-4.621-2.054V67.731l4.621-2.054Z" transform="translate(-132.118 -44.04)" fill="#755bff" opacity="0.41"/>
    </g>
  </g>
</svg>
