<svg xmlns="http://www.w3.org/2000/svg" width="44.744" height="41.937" viewBox="0 0 44.744 41.937">
  <g id="ux_1_" data-name="ux (1)" transform="translate(-0.001 -0.5)">
    <path id="Path_986" data-name="Path 986" d="M46.4,29.776a2.2,2.2,0,1,0-2.2,2.2A2.2,2.2,0,0,0,46.4,29.776Zm-3.086,0a.887.887,0,1,1,.888.887A.889.889,0,0,1,43.311,29.776Zm0,0" transform="translate(-38.329 -24.712)" fill="#f1920a"/>
    <path id="Path_987" data-name="Path 987" d="M103.96,31.974a2.2,2.2,0,1,0-2.2-2.2A2.2,2.2,0,0,0,103.96,31.974Zm0-3.085a.887.887,0,1,1-.887.887A.888.888,0,0,1,103.96,28.889Zm0,0" transform="translate(-92.868 -24.712)" fill="#f1920a"/>
    <path id="Path_988" data-name="Path 988" d="M163.718,31.974a2.2,2.2,0,1,0-2.2-2.2A2.2,2.2,0,0,0,163.718,31.974Zm0-3.085a.887.887,0,1,1-.888.887A.888.888,0,0,1,163.718,28.889Zm0,0" transform="translate(-147.404 -24.712)" fill="#f1920a"/>
    <path id="Path_989" data-name="Path 989" d="M262.823,46.541h15.963a.655.655,0,0,0,0-1.311H262.823a.655.655,0,0,0,0,1.311Zm0,0" transform="translate(-239.257 -40.822)" fill="#f1920a"/>
    <path id="Path_990" data-name="Path 990" d="M42.007.5H2.737A2.74,2.74,0,0,0,0,3.237V39.7a2.74,2.74,0,0,0,2.737,2.737h39.27A2.74,2.74,0,0,0,44.744,39.7V3.237A2.74,2.74,0,0,0,42.007.5Zm0,40.626H2.737A1.428,1.428,0,0,1,1.311,39.7V9.629H4.965a.655.655,0,1,0,0-1.311H1.311V3.237A1.428,1.428,0,0,1,2.737,1.811h39.27a1.428,1.428,0,0,1,1.426,1.426V8.318H7.412a.655.655,0,1,0,0,1.311H43.433V39.7A1.428,1.428,0,0,1,42.007,41.126Zm0,0" fill="#f1920a"/>
    <path id="Path_991" data-name="Path 991" d="M95.363,123.66H89.635a2.077,2.077,0,0,0-2.075,2.075v.793a2.183,2.183,0,0,0-1.416,1.418l-10.237.039a2.183,2.183,0,0,0-1.415-1.414v-.793a2.077,2.077,0,0,0-2.075-2.075H66.688a2.078,2.078,0,0,0-2.075,2.075v5.728a2.077,2.077,0,0,0,2.075,2.075h.793A2.182,2.182,0,0,0,68.9,135v2.678a2.509,2.509,0,0,0,2.506,2.506h6.174a2.182,2.182,0,0,0,1.416,1.416v.838a2.032,2.032,0,0,0,2.03,2.03h.888a2.18,2.18,0,0,0,1.312,1.429,1.147,1.147,0,0,1-1.024.634h-7a2.181,2.181,0,0,0-1.464-1.595v-.793a2.077,2.077,0,0,0-2.075-2.075H65.929a2.077,2.077,0,0,0-2.075,2.075v5.728a2.077,2.077,0,0,0,2.075,2.075h5.728a2.077,2.077,0,0,0,2.075-2.075v-.793a2.183,2.183,0,0,0,1.35-1.236H82.2a2.461,2.461,0,0,0,2.389-1.882,2.181,2.181,0,0,0,1.5-1.492h.754a2.032,2.032,0,0,0,2.03-2.03V140.71a.655.655,0,1,0-1.311,0v1.724a.72.72,0,0,1-.719.719h-.79a2.172,2.172,0,0,0-4.1,0h-.923a.72.72,0,0,1-.719-.719V141.6a2.149,2.149,0,0,0,.4-.173,2.2,2.2,0,0,0,1.116-1.9,2.176,2.176,0,0,0-1.517-2.071v-.838a.72.72,0,0,1,.719-.719H86.84a.72.72,0,0,1,.719.719v1.724a.655.655,0,1,0,1.311,0v-1.724a2.032,2.032,0,0,0-2.03-2.03H81.022a2.032,2.032,0,0,0-2.03,2.03v.838a2.182,2.182,0,0,0-1.416,1.416H71.4a1.2,1.2,0,0,1-1.2-1.2V135a2.182,2.182,0,0,0,1.416-1.416h.793a2.077,2.077,0,0,0,2.075-2.075v-.793a2.181,2.181,0,0,0,1.416-1.418l10.237-.039a2.182,2.182,0,0,0,1.415,1.414v.793a2.077,2.077,0,0,0,2.075,2.075h5.728a2.077,2.077,0,0,0,2.075-2.075v-5.728A2.077,2.077,0,0,0,95.363,123.66Zm-22.285,24.2a.861.861,0,1,1,.861-.861A.862.862,0,0,1,73.077,147.865Zm-.655,2a.765.765,0,0,1-.764.764H65.929a.765.765,0,0,1-.764-.764V144.14a.765.765,0,0,1,.764-.764h5.728a.765.765,0,0,1,.764.764v.793a2.173,2.173,0,0,0,0,4.142Zm12.437-6a.861.861,0,0,1-1.722,0A.862.862,0,1,1,84.859,143.869Zm-5.081-5.2a.861.861,0,1,1-.992.851A.863.863,0,0,1,79.778,138.674ZM73.835,129.5a.861.861,0,1,1,.861-.861A.862.862,0,0,1,73.835,129.5Zm-4.283,4.284a.861.861,0,1,1,.861-.862A.862.862,0,0,1,69.552,133.787Zm3.628-2.281a.765.765,0,0,1-.764.764h-.793a2.172,2.172,0,0,0-4.142,0h-.793a.765.765,0,0,1-.764-.764v-5.728a.765.765,0,0,1,.764-.764h5.728a.765.765,0,0,1,.764.764v.793a2.172,2.172,0,0,0,0,4.142Zm15.035-3.768a.861.861,0,1,1-.861.861A.862.862,0,0,1,88.215,127.738Zm7.912,3.725a.765.765,0,0,1-.764.764H89.635a.765.765,0,0,1-.764-.764v-.793a2.174,2.174,0,0,0,1.514-2.182h0a2.177,2.177,0,0,0-1.514-1.959v-.793a.765.765,0,0,1,.764-.764h5.728a.765.765,0,0,1,.764.764Zm0,0" transform="translate(-58.274 -112.397)" fill="#f1920a" opacity="0.42"/>
  </g>
</svg>
