<svg xmlns="http://www.w3.org/2000/svg" width="38.787" height="39.607" viewBox="0 0 38.787 39.607">
  <g id="Group_5717" data-name="Group 5717" transform="translate(-396 -2280)">
    <path id="Path_992" data-name="Path 992" d="M41.336,39.1,37.857,26.338V7.941a1.986,1.986,0,0,0-1.98-1.98h-5.8L27.619,3.5a.66.66,0,0,0-.885-.04L24.886,4.964l-.231-2.37A.67.67,0,0,0,23.995,2H20.034a.67.67,0,0,0-.66.594l-.231,2.37L17.294,3.459a.66.66,0,0,0-.885.04L13.954,5.961h-5.8a1.986,1.986,0,0,0-1.98,1.98v18.4L2.693,39.1a1.973,1.973,0,0,0,1.908,2.5H39.428a1.973,1.973,0,0,0,1.908-2.5ZM16.925,4.858l2.33,1.908a.673.673,0,0,0,.673.1.665.665,0,0,0,.4-.548l.3-3H23.4l.3,3a.665.665,0,0,0,.4.548.673.673,0,0,0,.673-.1L27.1,4.858l1.954,1.954L27.15,9.142a.673.673,0,0,0-.1.673.665.665,0,0,0,.548.4l3,.3v2.772l-3,.3a.665.665,0,0,0-.548.4.673.673,0,0,0,.1.673l1.908,2.33L27.1,18.945l-2.33-1.908a.673.673,0,0,0-.673-.1.665.665,0,0,0-.4.548l-.3,3H20.628l-.3-3a.665.665,0,0,0-.4-.548.673.673,0,0,0-.673.1l-2.33,1.908-1.954-1.954,1.908-2.33a.673.673,0,0,0,.1-.673.665.665,0,0,0-.548-.4l-3-.3V10.515l3-.3a.665.665,0,0,0,.548-.4.673.673,0,0,0-.1-.673l-1.908-2.33ZM7.492,7.941a.66.66,0,0,1,.66-.66h5.492L15.077,9.03l-2.37.231a.67.67,0,0,0-.594.66v3.961a.67.67,0,0,0,.594.66l2.37.231-1.505,1.848a.66.66,0,0,0,.04.885l2.8,2.8a.66.66,0,0,0,.885.04l1.848-1.505.231,2.37a.67.67,0,0,0,.66.594h3.961a.67.67,0,0,0,.66-.594l.231-2.37,1.848,1.505a.66.66,0,0,0,.885-.04l2.8-2.8a.66.66,0,0,0,.04-.885l-1.505-1.848,2.37-.231a.67.67,0,0,0,.594-.66V9.921a.67.67,0,0,0-.594-.66l-2.37-.231,1.432-1.749h5.492a.66.66,0,0,1,.66.66V25.764H7.492ZM39.956,40.029a.654.654,0,0,1-.528.257H4.6a.654.654,0,0,1-.528-.257.673.673,0,0,1-.112-.581L7.333,27.084H36.7l3.373,12.364A.673.673,0,0,1,39.956,40.029Z" transform="translate(393.379 2278)" fill="#44d591"/>
    <path id="Path_993" data-name="Path 993" d="M34.522,52.5a.66.66,0,0,0-.64-.5H23.32a.66.66,0,0,0-.64.5l-.66,2.64a.66.66,0,0,0,.64.821H34.542a.66.66,0,0,0,.64-.821ZM23.506,54.64l.33-1.32h9.531l.33,1.32Z" transform="translate(386.792 2261.006)" fill="#44d591" opacity="0.44"/>
    <path id="Path_994" data-name="Path 994" d="M27,34h6.6v1.32H27Z" transform="translate(385.093 2267.124)" fill="#44d591" opacity="0.44"/>
    <path id="Path_995" data-name="Path 995" d="M12,42h2.64v1.32H12Z" transform="translate(390.191 2264.405)" fill="#44d591"/>
    <path id="Path_996" data-name="Path 996" d="M18,42h2.64v1.32H18Z" transform="translate(388.151 2264.405)" fill="#44d591"/>
    <path id="Path_997" data-name="Path 997" d="M24,42h2.64v1.32H24Z" transform="translate(386.112 2264.405)" fill="#44d591"/>
    <path id="Path_998" data-name="Path 998" d="M36,42h2.64v1.32H36Z" transform="translate(382.033 2264.405)" fill="#44d591"/>
    <path id="Path_999" data-name="Path 999" d="M42,42h2.64v1.32H42Z" transform="translate(379.994 2264.405)" fill="#44d591"/>
    <path id="Path_1000" data-name="Path 1000" d="M48,42h2.64v1.32H48Z" transform="translate(377.955 2264.405)" fill="#44d591"/>
    <path id="Path_1001" data-name="Path 1001" d="M30,42h2.64v1.32H30Z" transform="translate(384.073 2264.405)" fill="#44d591"/>
    <path id="Path_1002" data-name="Path 1002" d="M12,46h2.64v1.32H12Z" transform="translate(390.191 2263.045)" fill="#44d591"/>
    <path id="Path_1003" data-name="Path 1003" d="M18,46h2.64v1.32H18Z" transform="translate(388.151 2263.045)" fill="#44d591"/>
    <path id="Path_1004" data-name="Path 1004" d="M24,46h2.64v1.32H24Z" transform="translate(386.112 2263.045)" fill="#44d591"/>
    <path id="Path_1005" data-name="Path 1005" d="M36,46h2.64v1.32H36Z" transform="translate(382.033 2263.045)" fill="#44d591"/>
    <path id="Path_1006" data-name="Path 1006" d="M42,46h2.64v1.32H42Z" transform="translate(379.994 2263.045)" fill="#44d591"/>
    <path id="Path_1007" data-name="Path 1007" d="M48,46h2.64v1.32H48Z" transform="translate(377.955 2263.045)" fill="#44d591"/>
    <path id="Path_1008" data-name="Path 1008" d="M30,46h2.64v1.32H30Z" transform="translate(384.073 2263.045)" fill="#44d591"/>
    <path id="Path_1009" data-name="Path 1009" d="M29.961,18.921A3.961,3.961,0,1,0,26,14.961,3.961,3.961,0,0,0,29.961,18.921Zm0-6.6a2.64,2.64,0,1,1-2.64,2.64A2.64,2.64,0,0,1,29.961,12.32Z" transform="translate(385.433 2274.941)" fill="#44d591" opacity="0.44"/>
  </g>
</svg>
