<svg xmlns="http://www.w3.org/2000/svg" width="81.024" height="81.024" viewBox="0 0 81.024 81.024">
  <g id="coding" transform="translate(-4 -4)">
    <path id="Path_4607" data-name="Path 4607" d="M4,50.341a1.447,1.447,0,0,0,1.447,1.447h78.13a1.447,1.447,0,0,0,1.447-1.447V46H4Z" transform="translate(0 18.768)" fill="#ff465e"/>
    <path id="Path_4608" data-name="Path 4608" d="M30,38h5.787v2.894H30Z" transform="translate(11.618 15.193)" fill="#ff465e"/>
    <path id="Path_4609" data-name="Path 4609" d="M8,30H22.469v2.894H8Z" transform="translate(1.787 11.618)" fill="#ff465e"/>
    <path id="Path_4610" data-name="Path 4610" d="M27.149,52l-.969,5.787H43.021L42.052,52Z" transform="translate(9.911 21.449)" fill="#ff465e"/>
    <path id="Path_4611" data-name="Path 4611" d="M22,60.894H50.937L48.767,58H24.17Z" transform="translate(8.043 24.13)" fill="#ff465e"/>
    <path id="Path_4612" data-name="Path 4612" d="M58.512,4H18V32.937H58.512ZM32.045,26.127,30,28.173l-8.681-8.681a1.447,1.447,0,0,1,0-2.046L30,8.765l2.046,2.046-7.658,7.658Zm3.242,5.821-2.749-.914L41.219,4.99l2.749.914ZM55.194,19.492l-8.681,8.681-2.046-2.046,7.658-7.658L44.467,10.81l2.046-2.046,8.681,8.681a1.447,1.447,0,0,1,0,2.046Z" transform="translate(6.256)" fill="#ff465e"/>
    <path id="Path_4613" data-name="Path 4613" d="M83.577,16H67.662V29.022a1.447,1.447,0,0,1-1.447,1.447H22.809a1.447,1.447,0,0,1-1.447-1.447V16H5.447A1.447,1.447,0,0,0,4,17.447V56.512H85.024V17.447A1.447,1.447,0,0,0,83.577,16ZM82.13,40.6a1.447,1.447,0,0,1-1.447,1.447H63.321A1.447,1.447,0,0,1,61.874,40.6V39.15H50.3V40.6a1.447,1.447,0,0,1-1.447,1.447H45.959v2.894h2.894A1.447,1.447,0,0,1,50.3,46.384v5.787a1.447,1.447,0,0,1-1.447,1.447H40.172a1.447,1.447,0,0,1-1.447-1.447V46.384a1.447,1.447,0,0,1,1.447-1.447h2.894V42.043H40.172A1.447,1.447,0,0,1,38.725,40.6V39.15H27.15V40.6A1.447,1.447,0,0,1,25.7,42.043H8.341A1.447,1.447,0,0,1,6.894,40.6V34.809a1.447,1.447,0,0,1,1.447-1.447H25.7a1.447,1.447,0,0,1,1.447,1.447v1.447H38.725V34.809a1.447,1.447,0,0,1,1.447-1.447h8.681A1.447,1.447,0,0,1,50.3,34.809v1.447H61.874V34.809a1.447,1.447,0,0,1,1.447-1.447H80.684a1.447,1.447,0,0,1,1.447,1.447Z" transform="translate(0 5.362)" fill="#ff465e"/>
    <path id="Path_4614" data-name="Path 4614" d="M46,30H60.469v2.894H46Z" transform="translate(18.768 11.618)" fill="#ff465e"/>
    <path id="Path_4615" data-name="Path 4615" d="M30,30h5.787v2.894H30Z" transform="translate(11.618 11.618)" fill="#ff465e"/>
  </g>
</svg>
