<svg xmlns="http://www.w3.org/2000/svg" width="84.245" height="84.242" viewBox="0 0 84.245 84.242">
  <g id="layers_1_" data-name="layers (1)" transform="translate(0 -0.009)">
    <g id="Group_8078" data-name="Group 8078" transform="translate(0 36.263)">
      <g id="Group_8077" data-name="Group 8077">
        <path id="Path_4616" data-name="Path 4616" d="M82.925,209.031a2.975,2.975,0,0,0-.263-.157l-5.978-3.219L43.53,223.207a3.008,3.008,0,0,1-2.816,0L7.561,205.654l-5.978,3.219a2.979,2.979,0,0,0-1.077,4.29L42.122,235.2l41.617-22.033A2.978,2.978,0,0,0,82.925,209.031Z" transform="translate(0 -205.654)" fill="#ff465e"/>
      </g>
    </g>
    <g id="Group_8080" data-name="Group 8080" transform="translate(0.002 54.315)">
      <g id="Group_8079" data-name="Group 8079">
        <path id="Path_4617" data-name="Path 4617" d="M83.893,312.492a3.008,3.008,0,0,0-1.219-1.219L76.7,308.054,43.543,325.607a3.009,3.009,0,0,1-2.816,0L7.573,308.054l-5.978,3.219a3.009,3.009,0,0,0,0,5.3L40.709,337.63a3.008,3.008,0,0,0,2.852,0l39.114-21.061A3.009,3.009,0,0,0,83.893,312.492Z" transform="translate(-0.014 -308.054)" fill="#ff465e"/>
      </g>
    </g>
    <g id="Group_8082" data-name="Group 8082" transform="translate(0 0.009)">
      <g id="Group_8081" data-name="Group 8081">
        <path id="Path_4618" data-name="Path 4618" d="M82.925,21.587a2.978,2.978,0,0,0-.263-.157L43.549.368a3.008,3.008,0,0,0-2.852,0L1.583,21.43A2.979,2.979,0,0,0,.505,25.72L42.122,47.753,83.739,25.72A2.978,2.978,0,0,0,82.925,21.587Z" transform="translate(0 -0.009)" fill="#ff465e"/>
      </g>
    </g>
  </g>
</svg>
