<svg id="ux" xmlns="http://www.w3.org/2000/svg" width="80.525" height="75.088" viewBox="0 0 80.525 75.088">
  <path id="Path_4603" data-name="Path 4603" d="M0,315.723v5.233a7.086,7.086,0,0,0,7.077,7.077H30.311v8.4H23.793a2.359,2.359,0,1,0,0,4.718H56.732a2.359,2.359,0,1,0,0-4.718H50.215v-8.4H73.448a7.086,7.086,0,0,0,7.077-7.077v-5.233Zm39.243,2.989h2.038a2.359,2.359,0,0,1,0,4.718H39.243a2.359,2.359,0,0,1,0-4.718Zm0,0" transform="translate(0 -266.068)" fill="#ff465e"/>
  <path id="Path_4604" data-name="Path 4604" d="M80.525,44.937V7.077A7.086,7.086,0,0,0,73.448,0H7.077A7.086,7.086,0,0,0,0,7.077v37.86ZM64.7,28.767a2.359,2.359,0,0,1-2.359,2.359H55.127V39.1a2.359,2.359,0,0,1-2.359,2.359H18.184A2.359,2.359,0,0,1,15.825,39.1V20.053a2.359,2.359,0,0,1,2.359-2.359H25.4V9.718a2.359,2.359,0,0,1,2.359-2.359H62.341A2.36,2.36,0,0,1,64.7,9.718Zm0,0" fill="#ff465e"/>
  <path id="Path_4605" data-name="Path 4605" d="M191.484,82.406h22.651a2.359,2.359,0,0,1,2.359,2.359V91.12h4.854V76.789H191.483v5.617Zm0,0" transform="translate(-161.368 -64.712)" fill="#ff465e"/>
  <path id="Path_4606" data-name="Path 4606" d="M160.486,156.834V142.5H130.621v14.33Zm-13.575-4.143h-.862a2.359,2.359,0,1,1,0-4.718h.862a2.359,2.359,0,1,1,0,4.718Zm7.844,3.486h-.862a2.359,2.359,0,1,1,0-4.718h.862a2.359,2.359,0,1,1,0,4.718Zm-2.589-12.857h.862a2.359,2.359,0,0,1,0,4.718h-.862a2.359,2.359,0,0,1,0-4.718Zm-14.352.557h.862a2.359,2.359,0,1,1,0,4.718h-.862a2.359,2.359,0,1,1,0-4.718Zm-.292,11.08h-.862a2.359,2.359,0,1,1,0-4.718h.862a2.359,2.359,0,0,1,0,4.718Zm0,0" transform="translate(-110.078 -120.092)" fill="#ff465e"/>
</svg>
