<svg xmlns="http://www.w3.org/2000/svg" width="88.739" height="105.814" viewBox="0 0 88.739 105.814">
  <g id="Group_5739" data-name="Group 5739" transform="matrix(-0.259, 0.966, -0.966, -0.259, 639.866, -461.931)" opacity="0.48">
    <g id="Group_5736" data-name="Group 5736" transform="translate(605.695 408.273)">
      <path id="Path_1186" data-name="Path 1186" d="M599.977,408.276l91.475,0-45.734,67.359Z" transform="translate(-599.977 -408.273)" fill="#ff2f8b"/>
    </g>
    <g id="Group_5738" data-name="Group 5738" transform="translate(591.17 418.659)">
      <g id="Group_5737" data-name="Group 5737">
        <path id="Path_1187" data-name="Path 1187" d="M602.013,417.423h69.735l1.938-2.852H591.17l1.939,2.852Z" transform="translate(-591.17 -414.57)" fill="#09e8e3"/>
        <path id="Path_1188" data-name="Path 1188" d="M600.1,421.752h64.888l1.939-2.855H594.108l1.941,2.855Z" transform="translate(-589.262 -411.762)" fill="#09e8e3"/>
        <path id="Path_1189" data-name="Path 1189" d="M598.984,426.078h59.258l1.936-2.854H597.048Z" transform="translate(-587.353 -408.952)" fill="#09e8e3"/>
        <path id="Path_1190" data-name="Path 1190" d="M610.741,443.384H631.23l1.939-2.852H608.8Z" transform="translate(-579.724 -397.715)" fill="#09e8e3"/>
        <path id="Path_1191" data-name="Path 1191" d="M619.662,449.184h-4.986l1.941,2.856h1.1Z" transform="translate(-575.908 -392.097)" fill="#09e8e3"/>
        <path id="Path_1192" data-name="Path 1192" d="M613.677,447.711h10.8l1.939-2.854H611.737Z" transform="translate(-577.816 -394.906)" fill="#09e8e3"/>
        <path id="Path_1193" data-name="Path 1193" d="M646.675,431.876H602.923l1.941,2.857h39.874Z" transform="translate(-583.539 -403.334)" fill="#09e8e3"/>
        <path id="Path_1194" data-name="Path 1194" d="M601.924,430.4H651.49l1.938-2.854H599.984Z" transform="translate(-585.447 -406.143)" fill="#09e8e3"/>
        <path id="Path_1195" data-name="Path 1195" d="M639.922,436.2h-34.06l1.939,2.854h30.18Z" transform="translate(-581.631 -400.525)" fill="#09e8e3"/>
      </g>
    </g>
  </g>
</svg>
