<svg xmlns="http://www.w3.org/2000/svg" width="613.614" height="542.849" viewBox="0 0 613.614 542.849">
  <g id="Contact_us-pana" data-name="Contact us-pana" transform="translate(-16.629 -31.167)">
    <g id="freepik--background-complete--inject-64" transform="translate(48.447 31.167)">
      <rect id="Rectangle_80" data-name="Rectangle 80" width="228.887" height="204.77" transform="translate(0.514 76.044)" fill="#fafafa"/>
      <path id="Path_1025" data-name="Path 1025" d="M270.161,293.8V279.034c0-9.612-.079-23.668-.132-41.561-.066-35.785-.158-86.905-.264-148.442l.514.514L41.3,89.638h0l.607-.607V293.8l-.541-.527,165.544.264,46.7.145h12.473l-12.249.066-46.571.145-165.9.264h-.541v-.541c0-60.165,0-130.272-.066-204.77V88.24h.633l228.86.092h.527v.514c-.105,61.668-.2,112.907-.264,148.758,0,17.853-.105,31.869-.132,41.455v10.878A26.582,26.582,0,0,1,270.161,293.8Z" transform="translate(-40.76 -12.987)" fill="#e0e0e0"/>
      <path id="Path_1026" data-name="Path 1026" d="M120.71,116.567c0,.343-12.052.62-26.9.62s-26.912-.277-26.912-.62S78.9,116,93.812,116,120.71,116.237,120.71,116.567Z" transform="translate(-32.433 -4.144)" fill="#e0e0e0"/>
      <path id="Path_1027" data-name="Path 1027" d="M216.96,128.25c0,.33-33.1.607-73.839.607s-73.931-.277-73.931-.607,33.1-.62,73.931-.62S216.96,127.907,216.96,128.25Z" transform="translate(-31.704 -0.44)" fill="#e0e0e0"/>
      <rect id="Rectangle_81" data-name="Rectangle 81" width="9.639" height="9.639" transform="translate(34.862 153.851)" fill="#e0e0e0"/>
      <rect id="Rectangle_82" data-name="Rectangle 82" width="9.639" height="9.639" transform="translate(58.596 153.851)" fill="#e0e0e0"/>
      <rect id="Rectangle_83" data-name="Rectangle 83" width="9.639" height="9.639" transform="translate(82.765 153.416)" fill="#e0e0e0"/>
      <rect id="Rectangle_84" data-name="Rectangle 84" width="9.639" height="9.639" transform="translate(106.064 153.851)" fill="#e0e0e0"/>
      <rect id="Rectangle_85" data-name="Rectangle 85" width="9.639" height="9.639" transform="translate(129.811 153.851)" fill="#e0e0e0"/>
      <rect id="Rectangle_86" data-name="Rectangle 86" width="9.639" height="9.639" transform="translate(153.545 153.851)" fill="#e0e0e0"/>
      <rect id="Rectangle_87" data-name="Rectangle 87" width="9.639" height="9.639" transform="translate(177.279 153.851)" fill="#ebebeb"/>
      <rect id="Rectangle_88" data-name="Rectangle 88" width="9.639" height="9.639" transform="translate(34.862 174.355)" fill="#ebebeb"/>
      <rect id="Rectangle_89" data-name="Rectangle 89" width="9.639" height="9.639" transform="translate(58.596 174.355)" fill="#e0e0e0"/>
      <rect id="Rectangle_90" data-name="Rectangle 90" width="9.639" height="9.639" transform="translate(82.33 174.355)" fill="#ebebeb"/>
      <rect id="Rectangle_91" data-name="Rectangle 91" width="9.639" height="9.639" transform="translate(106.064 174.355)" fill="#e0e0e0"/>
      <rect id="Rectangle_92" data-name="Rectangle 92" width="9.639" height="9.639" transform="translate(129.811 174.355)" fill="#e0e0e0"/>
      <rect id="Rectangle_93" data-name="Rectangle 93" width="9.639" height="9.639" transform="translate(153.98 173.907)" fill="#e0e0e0"/>
      <rect id="Rectangle_94" data-name="Rectangle 94" width="9.639" height="9.639" transform="translate(177.279 174.355)" fill="#e0e0e0"/>
      <rect id="Rectangle_95" data-name="Rectangle 95" width="9.639" height="9.639" transform="translate(34.862 194.845)" fill="#e0e0e0"/>
      <rect id="Rectangle_96" data-name="Rectangle 96" width="9.639" height="9.639" transform="translate(59.031 194.41)" fill="#e0e0e0"/>
      <rect id="Rectangle_97" data-name="Rectangle 97" width="9.639" height="9.639" transform="translate(82.33 194.845)" fill="#e0e0e0"/>
      <rect id="Rectangle_98" data-name="Rectangle 98" width="9.639" height="9.639" transform="translate(106.064 194.845)" fill="#ebebeb"/>
      <rect id="Rectangle_99" data-name="Rectangle 99" width="9.639" height="9.639" transform="translate(129.811 194.845)" fill="#e0e0e0"/>
      <rect id="Rectangle_100" data-name="Rectangle 100" width="9.639" height="9.639" transform="translate(153.545 194.845)" fill="#e0e0e0"/>
      <rect id="Rectangle_101" data-name="Rectangle 101" width="9.639" height="9.639" transform="translate(177.279 194.845)" fill="#e0e0e0"/>
      <rect id="Rectangle_102" data-name="Rectangle 102" width="9.639" height="9.639" transform="translate(34.862 215.348)" fill="#e0e0e0"/>
      <rect id="Rectangle_103" data-name="Rectangle 103" width="9.639" height="9.639" transform="translate(58.596 215.348)" fill="#e0e0e0"/>
      <rect id="Rectangle_104" data-name="Rectangle 104" width="9.639" height="9.639" transform="translate(82.33 215.348)" fill="#e0e0e0"/>
      <rect id="Rectangle_105" data-name="Rectangle 105" width="9.639" height="9.639" transform="translate(106.512 214.913)" fill="#e0e0e0"/>
      <rect id="Rectangle_106" data-name="Rectangle 106" width="9.639" height="9.639" transform="translate(129.811 215.348)" fill="#e0e0e0"/>
      <rect id="Rectangle_107" data-name="Rectangle 107" width="9.639" height="9.639" transform="translate(153.545 215.348)" fill="#ebebeb"/>
      <rect id="Rectangle_108" data-name="Rectangle 108" width="9.639" height="9.639" transform="translate(177.279 215.348)" fill="#e0e0e0"/>
      <rect id="Rectangle_109" data-name="Rectangle 109" width="9.639" height="9.639" transform="translate(34.862 235.852)" fill="#e0e0e0"/>
      <rect id="Rectangle_110" data-name="Rectangle 110" width="9.639" height="9.639" transform="translate(58.596 235.852)" fill="#ebebeb"/>
      <rect id="Rectangle_111" data-name="Rectangle 111" width="9.639" height="9.639" transform="translate(82.33 235.852)" fill="#e0e0e0"/>
      <rect id="Rectangle_112" data-name="Rectangle 112" width="9.639" height="9.639" transform="translate(106.064 235.852)" fill="#e0e0e0"/>
      <rect id="Rectangle_113" data-name="Rectangle 113" width="9.639" height="9.639" transform="translate(129.811 235.852)" fill="#e0e0e0"/>
      <rect id="Rectangle_114" data-name="Rectangle 114" width="9.639" height="9.639" transform="translate(153.98 235.417)" fill="#e0e0e0"/>
      <rect id="Rectangle_115" data-name="Rectangle 115" width="9.639" height="9.639" transform="translate(177.279 235.852)" fill="#e0e0e0"/>
      <rect id="Rectangle_116" data-name="Rectangle 116" width="14.715" height="73.193" transform="matrix(1, -0.005, 0.005, 1, 473.156, 27.372)" fill="#e0e0e0"/>
      <rect id="Rectangle_117" data-name="Rectangle 117" width="38.093" height="40.4" transform="matrix(1, -0.005, 0.005, 1, 345.721, 27.693)" fill="#ebebeb"/>
      <rect id="Rectangle_118" data-name="Rectangle 118" width="38.093" height="40.4" transform="matrix(1, -0.005, 0.005, 1, 383.641, 27.475)" fill="#f5f5f5"/>
      <path id="Path_1028" data-name="Path 1028" d="M303.066,60.943q37.974.316,76-.356a.409.409,0,0,0,0-.8c-25.3-.145-50.685,0-75.988.461a.356.356,0,0,0,0,.7Z" transform="translate(42.709 -22.069)" fill="#e0e0e0"/>
      <rect id="Rectangle_119" data-name="Rectangle 119" width="69.211" height="32.924" transform="matrix(1, -0.005, 0.005, 1, 321.992, 67.588)" fill="#ebebeb"/>
      <rect id="Rectangle_120" data-name="Rectangle 120" width="69.211" height="32.924" transform="matrix(1, -0.005, 0.005, 1, 390.871, 67.216)" fill="#f5f5f5"/>
      <path id="Path_1029" data-name="Path 1029" d="M285.07,89.78c45.978.527,92.114,0,138.078-.686a.409.409,0,0,0,0-.8c-45.978-.237-92.114-.211-138.078.791a.356.356,0,0,0,0,.7Z" transform="translate(36.972 -13.011)" fill="#e0e0e0"/>
      <rect id="Rectangle_121" data-name="Rectangle 121" width="268.126" height="11.801" transform="translate(296.146 100.543)" fill="#e0e0e0"/>
      <rect id="Rectangle_122" data-name="Rectangle 122" width="10.878" height="40.255" transform="translate(340.04 106.212)" fill="#e0e0e0"/>
      <rect id="Rectangle_123" data-name="Rectangle 123" width="10.891" height="40.255" transform="translate(502.525 106.212)" fill="#e0e0e0"/>
      <rect id="Rectangle_124" data-name="Rectangle 124" width="14.715" height="100.658" transform="matrix(1, -0.005, 0.005, 1, 487.513, 0.08)" fill="#ebebeb"/>
      <rect id="Rectangle_125" data-name="Rectangle 125" width="22.85" height="81.578" transform="translate(502.636 16.302) rotate(-0.573)" fill="#f5f5f5"/>
      <path id="Path_1030" data-name="Path 1030" d="M444.52,57.416a84.387,84.387,0,0,1-11.432.4,84.226,84.226,0,0,1-11.419-.4c0-.224,5.116-.4,11.419-.4S444.52,57.191,444.52,57.416Z" transform="translate(80.578 -22.932)" fill="#e0e0e0"/>
      <path id="Path_1031" data-name="Path 1031" d="M444.52,54.816a84.387,84.387,0,0,1-11.432.4,84.227,84.227,0,0,1-11.419-.4c0-.224,5.116-.4,11.419-.4S444.52,54.591,444.52,54.816Z" transform="translate(80.578 -23.76)" fill="#e0e0e0"/>
      <path id="Path_1032" data-name="Path 1032" d="M444.52,98.1a165.2,165.2,0,0,1-22.85,0c0-.224,5.116-.4,11.419-.4S444.52,97.819,444.52,98.1Z" transform="translate(80.578 -9.974)" fill="#e0e0e0"/>
      <path id="Path_1033" data-name="Path 1033" d="M444.52,95.456a165.2,165.2,0,0,1-22.85,0c0-.224,5.116-.4,11.419-.4S444.52,95.231,444.52,95.456Z" transform="translate(80.578 -10.815)" fill="#e0e0e0"/>
      <path id="Path_1034" data-name="Path 1034" d="M430.666,98.571c-.211,0-.4-8.228-.4-18.381s.185-18.381.4-18.381.4,8.228.4,18.381S430.89,98.571,430.666,98.571Z" transform="translate(83.317 -21.406)" fill="#e0e0e0"/>
      <rect id="Rectangle_126" data-name="Rectangle 126" width="24.881" height="61.576" transform="translate(525.296 38.795)" fill="#ebebeb"/>
      <path id="Path_1035" data-name="Path 1035" d="M421.155,45.243a4.233,4.233,0,1,1-4.219-4.233A4.232,4.232,0,0,1,421.155,45.243Z" transform="translate(77.717 -28.032)" fill="#e0e0e0"/>
      <rect id="Rectangle_127" data-name="Rectangle 127" width="2.611" height="59.888" transform="translate(493.334 28.84)" fill="#e0e0e0"/>
    </g>
    <g id="freepik--Plant--inject-64" transform="translate(16.629 349.102)">
      <path id="Path_1036" data-name="Path 1036" d="M76.265,343.65c6.909-3.56,15.031-4.022,22.692-2.756,4.114.686,8.4,1.912,11.208,5.01s3.323,8.531.105,11.181c-1.912,1.582-4.575,1.82-7.054,1.793-6-.066-12.658-1.121-17.444,2.479-2.743,2.07-4.562,5.485-7.819,6.5s-6.817-.9-8.5-3.784a13.186,13.186,0,0,1-.963-9.744,14.873,14.873,0,0,1,7.779-10.68Z" transform="translate(-0.275 -250.643)" fill="#ff465e"/>
      <path id="Path_1037" data-name="Path 1037" d="M63.232,334.788c4.219,6.026,12.421,4.022,16.231.356s5.406-9.019,6.87-14.1c3.336-11.616,6.711-23.734,4.219-35.6A19.686,19.686,0,0,0,86,275.77a10.337,10.337,0,0,0-9.8-3.27c-4.14,1.094-6.7,5.142-8.557,9.006a84.822,84.822,0,0,0-8.4,36.445c0,5.868.672,12.025,3.956,16.877" transform="translate(-3.052 -272.292)" fill="#ff465e"/>
      <path id="Path_1038" data-name="Path 1038" d="M65.219,338.766c4.589-5.446,5.459-13.37,3.415-20.187s-6.593-12.605-11.946-17.339a64.358,64.358,0,0,0-21.4-12.618,22.68,22.68,0,0,0-9.625-1.635,10.1,10.1,0,0,0-8.083,4.879c-2.255,4.3-.092,9.507,2.242,13.766a163.058,163.058,0,0,0,14.056,21.4c4.219,5.432,9.045,10.786,15.467,13.185s13.093,2.176,16.561-2.228" transform="translate(-16.629 -267.62)" fill="#ff465e"/>
      <path id="Path_1039" data-name="Path 1039" d="M62.086,402.005a13.66,13.66,0,0,0,.382-2.729c.185-2,.435-4.5.725-7.476a107.029,107.029,0,0,1,1.675-10.97,85.838,85.838,0,0,1,3.956-12.935,47.9,47.9,0,0,1,6.593-11.709,24.564,24.564,0,0,1,8.36-6.936,23.3,23.3,0,0,1,7.067-2.136,13.37,13.37,0,0,0,2.729-.4,12.456,12.456,0,0,0-2.769,0,21.505,21.505,0,0,0-7.344,1.9,24.71,24.71,0,0,0-8.808,7,46.888,46.888,0,0,0-6.843,11.946,79.116,79.116,0,0,0-3.956,13.186,93.35,93.35,0,0,0-1.464,11.1c-.237,3.178-.316,5.749-.369,7.529a12.17,12.17,0,0,0,.066,2.624Z" transform="translate(-2.183 -248.608)" fill="#263238"/>
      <path id="Path_1040" data-name="Path 1040" d="M62.6,414.14a5.868,5.868,0,0,0,0-1.319v-3.639c0-3.151,0-7.713.158-13.344.277-11.274,1.319-23.4,3.125-40.506,1.767-16.073,4.153-34.8,6.672-46.953.527-2.769,1.081-5.274,1.582-7.437s.91-4.074,1.319-5.6.633-2.637.857-3.521a5.275,5.275,0,0,0,.224-1.319,4.721,4.721,0,0,0-.448,1.187c-.277.91-.62,2.07-1.055,3.481s-.949,3.375-1.49,5.564-1.174,4.654-1.767,7.41a416.321,416.321,0,0,0-7.015,43.512c-1.872,17.141-2.716,32.74-2.8,44.026,0,5.657,0,10.232.2,13.383.092,1.477.171,2.637.224,3.626a5.407,5.407,0,0,0,.211,1.45Z" transform="translate(-2.185 -266.492)" fill="#263238"/>
      <path id="Path_1041" data-name="Path 1041" d="M72.217,381.8a23.931,23.931,0,0,0,0-3.8,103.35,103.35,0,0,0-1.16-10.285,134.822,134.822,0,0,0-3.336-14.979,122.464,122.464,0,0,0-6.3-17.682A94.462,94.462,0,0,0,42.958,306.4a48.369,48.369,0,0,0-4.325-4.022c-.672-.554-1.253-1.121-1.859-1.556l-1.675-1.16a23.737,23.737,0,0,0-3.1-2.1c-.185.237,4.523,3.02,10.469,9.335A99.643,99.643,0,0,1,60.39,335.452a141.222,141.222,0,0,1,6.3,17.563,151.449,151.449,0,0,1,3.547,14.834c.817,4.285,1.239,7.766,1.516,10.192a26.923,26.923,0,0,0,.461,3.758Z" transform="translate(-11.733 -264.24)" fill="#263238"/>
      <path id="Path_1042" data-name="Path 1042" d="M40.45,401.71l3.006,41.31H96.528l3.019-41.31Z" transform="translate(-9.04 -231.066)" fill="#263238"/>
      <rect id="Rectangle_128" data-name="Rectangle 128" width="70.555" height="16.284" transform="translate(26.281 154.359)" fill="#263238"/>
      <path id="Path_1043" data-name="Path 1043" d="M36.56,431.84v4.509h69.4V431.84Z" transform="translate(-10.279 -221.469)" fill="#455a64"/>
      <path id="Path_1044" data-name="Path 1044" d="M42.327,443.211,39.07,435.26h63.554l-3.8,7.951Z" transform="translate(-9.48 -220.379)" fill="#455a64"/>
      <path id="Path_1045" data-name="Path 1045" d="M98.342,413.4a1.61,1.61,0,0,1-.251.369c-.211.29-.461.633-.791,1.055l-3.085,3.956-.145.185-.132-.185-7.595-10.548h.435L79.3,418.775l-.237.33-.264-.3L69.94,408.253h.514c-.158.185-.33.4-.488.607L62.055,418.8l-.264.33-.237-.343L54.065,408.24H54.5c-3.679,4.206-6.817,7.766-9.23,10.548l-.158.185-.119-.211c-1.226-2.031-2.189-3.666-2.888-4.839-.3-.527-.554-.949-.738-1.319a1.858,1.858,0,0,1-.237-.461,5.136,5.136,0,0,1,.316.409l.817,1.239,3.033,4.76h-.29l9.058-10.627.237-.264.2.29L62.055,418.5h-.527l7.911-9.955.488-.607.264-.316.251.3c3.112,3.705,6.092,7.278,8.847,10.548h-.5l7.555-10.548.224-.3.211.3,7.437,10.627h-.264l3.217-3.837.857-1Q98.329,413.3,98.342,413.4Z" transform="translate(-8.824 -229.184)" fill="#e0e0e0"/>
      <path id="Path_1046" data-name="Path 1046" d="M100.181,401.58c0,.185-13.3.33-29.694.33s-29.707-.145-29.707-.33,13.291-.33,29.707-.33S100.181,401.4,100.181,401.58Z" transform="translate(-8.935 -231.213)" fill="#455a64"/>
      <path id="Path_1047" data-name="Path 1047" d="M103.456,435.68c0,.185-14.5.33-32.278.33s-32.278-.145-32.278-.33,14.5-.33,32.278-.33S103.456,435.5,103.456,435.68Z" transform="translate(-9.534 -220.351)" fill="#263238"/>
    </g>
    <g id="freepik--Chair--inject-64" transform="translate(453.557 397.648)">
      <path id="Path_1048" data-name="Path 1048" d="M367.91,309.11H491.234a19.95,19.95,0,0,1,19.95,19.95V484.147H348V329.06a19.95,19.95,0,0,1,19.91-19.95Z" transform="translate(-348 -309.11)" fill="#455a64"/>
      <path id="Path_1049" data-name="Path 1049" d="M461.423,309.79c.2,0,.343,38.963.343,87.024s-.145,87.024-.343,87.024-.343-38.963-.343-87.024S461.238,309.79,461.423,309.79Z" transform="translate(-311.979 -308.893)" fill="#263238"/>
    </g>
    <g id="freepik--Character--inject-64" transform="translate(256.162 176.758)">
      <path id="Path_1050" data-name="Path 1050" d="M411.684,167.418A138.528,138.528,0,0,1,436.5,240.386c.765,17.537-1.6,36.22,6.725,51.674,11.946,22.178,37.776,21.426,45.688,45.332,3.441,10.4-2.9,33.28-4.615,44.105-1.938,12.289,5.577,22.613,3.639,34.915-1.78,11.274-10.219,19.317-20.345,24.565-9.019,4.668-17.352,4.8-26.727.91-17.879-7.4-32.753-15.2-45.477-29.76-17.879-20.437-23.286-48.786-26.371-75.724a664.375,664.375,0,0,1,4.048-178.993" transform="translate(-145.249 -136.543)" fill="#263238"/>
      <path id="Path_1051" data-name="Path 1051" d="M437.278,422.626a4.738,4.738,0,0,1,.567-.145c.382-.092.962-.185,1.7-.409a29.008,29.008,0,0,0,14.319-9.006,16.89,16.89,0,0,0,3.191-5.657,31.033,31.033,0,0,0,1.121-7.239,71.321,71.321,0,0,0-1.714-16.8c-1.147-5.986-2.637-12.368-3.085-19.29a39.951,39.951,0,0,1,.752-10.548,67.63,67.63,0,0,1,3.349-10.548,113.049,113.049,0,0,0,3.771-10.72,27.348,27.348,0,0,0,.923-11.471,25.937,25.937,0,0,0-4.285-10.654,48.886,48.886,0,0,0-7.476-8.465c-5.446-5.09-11.34-9.23-16.376-14A92.759,92.759,0,0,1,412.7,258.216a90.276,90.276,0,0,1-4.9-13.186c-.633-1.965-1-3.863-1.45-5.577s-.646-3.323-.936-4.747c-.409-2.888-.725-5.116-.8-6.593,0-.738-.105-1.319-.132-1.74a3.193,3.193,0,0,1,0-.593,2.951,2.951,0,0,0,.092.593c.092.4.119.989.211,1.727.119,1.516.475,3.745.923,6.593.3,1.424.633,3.006.989,4.734a47.6,47.6,0,0,0,1.5,5.538,91.942,91.942,0,0,0,4.971,13.054,93.2,93.2,0,0,0,21.321,29.193c5.01,4.668,10.918,8.847,16.416,13.963a49.907,49.907,0,0,1,7.582,8.584,26.583,26.583,0,0,1,4.391,10.944,27.953,27.953,0,0,1-.936,11.748c-1.028,3.745-2.466,7.292-3.8,10.773a68.725,68.725,0,0,0-3.349,10.417,39.256,39.256,0,0,0-.752,10.4c.356,6.83,1.886,13.185,3.02,19.211a71.835,71.835,0,0,1,1.635,16.93,32.382,32.382,0,0,1-1.187,7.357,17.84,17.84,0,0,1-3.31,5.762,27.32,27.32,0,0,1-8.333,6.527A26.692,26.692,0,0,1,439.6,422.2a15.418,15.418,0,0,1-2.321.422Z" transform="translate(-132.619 -114.764)" fill="#455a64"/>
      <path id="Path_1052" data-name="Path 1052" d="M243.16,453.183l63.29-30.05S331.094,303.475,335.762,294.5s24.129-16.746,24.129-16.746l-3.257,162.023-5.8,37.407-89.239,8.452Z" transform="translate(-184.001 -98.21)" fill="#ff465e"/>
      <path id="Path_1053" data-name="Path 1053" d="M202.5,432.3c-.356,0-2.11,1.081-.646,3.863s12.2,11.972,15.348,8.768-1.661-7.107-1.661-7.107Z" transform="translate(-197.34 -48.978)" fill="#ffbe9d"/>
      <path id="Path_1054" data-name="Path 1054" d="M216.946,445.388s12.948,1.635,17.919,3.534c5.419,2.057,12.012.646,16.442-2.347a46.8,46.8,0,0,0,7.015-5.722l16.508-.264a19.778,19.778,0,0,0,3.217-20.451,22.193,22.193,0,0,0-3.771-6.448c-1.965-2.123-5.063-3.837-10.417-4.76l-19.607,4.233s-30.327-2.176-35.785.382c0,0-6.791,4.022-8.887,5.709-.791.646-3.2,8.373,1.74,12.394,0,0-4.3,3.415-1.965,6.487l1.108,1.319s-2.888,3.745-1.4,5.38,14.5,9.23,19.132,7.437.8-6.131-1.253-6.922" transform="translate(-198.293 -56.423)" fill="#ffbe9d"/>
      <path id="Path_1055" data-name="Path 1055" d="M203.863,421.09a14.272,14.272,0,0,1,1.609.58c1.015.382,2.505.936,4.378,1.53.923.3,1.951.607,3.072.9s2.321.541,3.573.949a7.635,7.635,0,0,1,3.56,2.149,4.364,4.364,0,0,1,.949,4.338,3.4,3.4,0,0,1-1.6,1.727,6.2,6.2,0,0,1-2.162.606,18.294,18.294,0,0,1-4.127-.224,36.92,36.92,0,0,1-6.7-1.74c-1.859-.659-3.323-1.319-4.338-1.714a8.613,8.613,0,0,1-1.543-.738,13.881,13.881,0,0,1,1.622.541c1.028.369,2.518.936,4.378,1.543a39.552,39.552,0,0,0,6.593,1.622,18.226,18.226,0,0,0,3.956.185,5.526,5.526,0,0,0,1.965-.554,2.848,2.848,0,0,0,1.319-1.45,3.863,3.863,0,0,0-.765-3.771,7.212,7.212,0,0,0-3.31-2.017c-1.213-.409-2.426-.672-3.534-.989s-2.149-.646-3.072-.963c-1.872-.646-3.336-1.319-4.338-1.7a9.008,9.008,0,0,1-1.49-.8Z" transform="translate(-197.578 -52.549)" fill="#eb996e"/>
      <path id="Path_1056" data-name="Path 1056" d="M204.638,414a11.115,11.115,0,0,1,1.6.58c1.028.4,2.505.963,4.351,1.569s4.074,1.319,6.593,1.885a9.1,9.1,0,0,1,3.837,1.556,3.2,3.2,0,0,1,1.121,1.991,4.1,4.1,0,0,1-.33,2.307,5.525,5.525,0,0,1-3.389,2.874,8.9,8.9,0,0,1-4.127.33,39.66,39.66,0,0,1-6.593-1.925l-4.364-1.529a12.19,12.19,0,0,1-1.582-.62,10.076,10.076,0,0,1,1.648.422l4.417,1.319a44.843,44.843,0,0,0,6.593,1.793,8.558,8.558,0,0,0,3.89-.343,5.05,5.05,0,0,0,3.072-2.637,3.072,3.072,0,0,0-.646-3.679,8.767,8.767,0,0,0-3.613-1.464,64.092,64.092,0,0,1-6.593-2c-1.846-.686-3.3-1.319-4.3-1.74a10.639,10.639,0,0,1-1.582-.686Z" transform="translate(-197.192 -54.808)" fill="#eb996e"/>
      <path id="Path_1057" data-name="Path 1057" d="M208.969,417.274a16.414,16.414,0,0,1-.593-2.637A14.5,14.5,0,0,1,207.73,412a4.654,4.654,0,0,1,1.174,2.466,4.378,4.378,0,0,1,.066,2.809Z" transform="translate(-195.287 -55.445)" fill="#eb996e"/>
      <path id="Path_1058" data-name="Path 1058" d="M254.427,420.8l-11.537-4.378s-32.027-14.952-32.568-14.135-2.281.712-1.9,4.615,19.04,11.788,19.633,13.185-.4,8.2,6.5,13.093,11.867,5.01,11.867,5.01" transform="translate(-195.084 -58.549)" fill="#ffbe9d"/>
      <path id="Path_1059" data-name="Path 1059" d="M246.488,438.159h-.3l-.791-.079a19.183,19.183,0,0,1-2.993-.725,29.286,29.286,0,0,1-9.784-5.63,13.792,13.792,0,0,1-3.956-6.738,30.614,30.614,0,0,1-.686-4.312,2.4,2.4,0,0,0-.119-.488.95.95,0,0,0-.3-.316,10.436,10.436,0,0,0-.936-.607c-.646-.382-1.319-.752-2.031-1.121-2.769-1.49-5.736-2.98-8.716-4.694a52,52,0,0,1-4.443-2.808,16.2,16.2,0,0,1-2.083-1.741,5.275,5.275,0,0,1-.883-1.108,2.163,2.163,0,0,1-.264-.725,3.26,3.26,0,0,1,0-.712,5.05,5.05,0,0,1,.488-2.782,3.39,3.39,0,0,1,1.015-1.015,2.255,2.255,0,0,0,.448-.382l.105-.119a.33.33,0,0,1,.224-.066.994.994,0,0,1,.224,0l.356.092c1.727.527,3.323,1.226,4.918,1.885q4.747,1.978,9.058,3.956c5.762,2.637,10.9,4.984,15.229,7.015,1.081.488,2.1,1,3.072,1.424l2.822,1.108,4.523,1.793,2.848,1.147.725.316a.273.273,0,0,1,.251.119c0,.013-.092,0-.264-.079l-.752-.251-2.888-1.068-4.562-1.622-2.848-1.068c-1-.409-2.017-.91-3.1-1.4l-15.269-6.9q-4.331-1.978-9.072-3.956c-1.582-.646-3.191-1.319-4.852-1.859l-.29-.066H210.5v-.132h0c.369.237.092.079.171.132h0a2.413,2.413,0,0,1-.554.5,2.7,2.7,0,0,0-.87.857,4.588,4.588,0,0,0-.422,2.492,2.466,2.466,0,0,0,.277,1.187,5.077,5.077,0,0,0,.791,1,15.452,15.452,0,0,0,2.017,1.675c1.424,1.028,2.914,1.925,4.391,2.782,2.967,1.714,5.907,3.217,8.689,4.707.7.382,1.319.752,2.044,1.16a11.385,11.385,0,0,1,.989.633,1.319,1.319,0,0,1,.448.514,2.639,2.639,0,0,1,.132.593,34.188,34.188,0,0,0,.646,4.272,13.555,13.555,0,0,0,3.771,6.593,29.985,29.985,0,0,0,9.586,5.709,21.187,21.187,0,0,0,2.94.8c.343.079.607.105.791.132Z" transform="translate(-195.148 -58.635)" fill="#eb996e"/>
      <path id="Path_1060" data-name="Path 1060" d="M213.625,430.56a3.955,3.955,0,0,1,1.226.356,12.407,12.407,0,0,1,3.019,1.74,11.067,11.067,0,0,1,1.74,1.7,3.6,3.6,0,0,1,.936,2.637,2.98,2.98,0,0,1-2.136,2.307,5.7,5.7,0,0,1-3.349-.105,61.379,61.379,0,0,1-10.627-4.259,31.846,31.846,0,0,1-2.98-1.767,5.092,5.092,0,0,1-1.015-.765,6.228,6.228,0,0,1,1.121.58c.712.409,1.741.976,3.046,1.609a74.441,74.441,0,0,0,10.548,4.088,5.274,5.274,0,0,0,3.059.119,2.505,2.505,0,0,0,1.806-1.872,3.231,3.231,0,0,0-.791-2.347,10.983,10.983,0,0,0-1.635-1.674A18.311,18.311,0,0,0,213.625,430.56Z" transform="translate(-197.609 -49.532)" fill="#eb996e"/>
      <g id="Group_5729" data-name="Group 5729" transform="translate(135.157 264.046)" opacity="0.3">
        <path id="Path_1061" data-name="Path 1061" d="M332.024,456.765c-10.364-34.955-19.5-79.97-29.865-114.925-3.8,32.265.949,74.867,6.883,106.8.7,3.745,1.015,7.41,3.956,9.876l19.027-1.754" transform="translate(-300.798 -341.84)"/>
      </g>
      <path id="Path_1062" data-name="Path 1062" d="M318.163,417.856c-.145,0-.58-2.281-1.991-5.775A40.99,40.99,0,0,0,313.2,406.2a44.61,44.61,0,0,0-4.879-6.408,43.434,43.434,0,0,0-6.039-5.34,39.287,39.287,0,0,0-5.643-3.4c-3.375-1.661-5.643-2.268-5.6-2.4a7.091,7.091,0,0,1,1.609.382,13.393,13.393,0,0,1,1.833.607,24.031,24.031,0,0,1,2.373.976,36.922,36.922,0,0,1,5.8,3.323,42.194,42.194,0,0,1,6.184,5.38,42.658,42.658,0,0,1,4.9,6.593,37.713,37.713,0,0,1,2.888,6.026c.356.883.567,1.714.791,2.439a13.563,13.563,0,0,1,.475,1.886,8.427,8.427,0,0,1,.264,1.6Z" transform="translate(-168.749 -62.883)" fill="#263238"/>
      <path id="Path_1063" data-name="Path 1063" d="M334.6,283.932S301.46,357.969,301.46,371.6s24.828,108.029,24.828,108.029c-.237,3.758-1.2,22.574-1.2,22.574l139.225.488h0l2.123-29.931-10.865-28.52,10.852-80.629s7.3-46.808,7.911-59.9c.817-16.376-54.667-35.363-53.151-37.631l-9.573-12.869-54.865,44.554L345.9,266.435l-13,12.276Z" transform="translate(-165.43 -106.027)" fill="#ff465e"/>
      <path id="Path_1064" data-name="Path 1064" d="M418.176,295.08c-15.071,25.487-42.642,71.927-42.642,71.927l-49.419,56.355s-3.23,28.626,3.23,37.407S346.9,475.55,346.9,475.55s13.04,0,29.615-13.858S438.8,390.569,438.8,390.569l15.7-18.948s18.723-45.991,15.229-69.4c-1.319-9.032-5.2-12.777-10.311-16.917C446.538,274.933,426.6,280.827,418.176,295.08Z" transform="translate(-157.833 -97.476)" fill="#ff465e"/>
      <path id="Path_1065" data-name="Path 1065" d="M461.158,337.4a4.068,4.068,0,0,1-.237.527c-.171.369-.422.857-.725,1.5-.659,1.319-1.661,3.23-3.033,5.657-2.729,4.865-6.975,11.735-12.513,20.029-2.782,4.14-5.881,8.636-9.3,13.41s-7.292,9.691-10.482,15.44-6.092,12.025-9.586,18.3a115.615,115.615,0,0,1-12.566,18.341,73.5,73.5,0,0,1-16.64,14.715,52.4,52.4,0,0,1-19.277,7.463,43.209,43.209,0,0,1-18.671-.791,35.376,35.376,0,0,1-7.911-3.2,36.119,36.119,0,0,1-6.514-4.4,29.548,29.548,0,0,1-4.905-5.182,29.14,29.14,0,0,1-3.244-5.485,34.7,34.7,0,0,1-2.637-9.81,45.335,45.335,0,0,1-.224-6.421c0-.712.079-1.318.105-1.674a3.95,3.95,0,0,1,0-.567,3.772,3.772,0,0,1,0,.567c0,.409,0,.963,0,1.675a48.792,48.792,0,0,0,.343,6.382,35.047,35.047,0,0,0,2.743,9.691,29.467,29.467,0,0,0,3.244,5.38,28.883,28.883,0,0,0,4.879,5.076,35.676,35.676,0,0,0,6.448,4.312,35.264,35.264,0,0,0,7.793,3.125,42.92,42.92,0,0,0,18.46.712,51.871,51.871,0,0,0,19.013-7.41,73.113,73.113,0,0,0,16.495-14.6,114.409,114.409,0,0,0,12.487-18.222c3.494-6.237,6.316-12.566,9.625-18.288a171.55,171.55,0,0,1,10.548-15.467c3.428-4.747,6.593-9.23,9.348-13.344,5.591-8.241,9.889-15.071,12.684-19.884,1.411-2.413,2.452-4.3,3.138-5.591l.8-1.477a2.548,2.548,0,0,1,.3-.488Z" transform="translate(-158.674 -79.208)" fill="#263238"/>
      <path id="Path_1066" data-name="Path 1066" d="M325.066,386.83c0,.092-.7.527-1.609,1.543a7.911,7.911,0,0,0-.9,9.7,18.613,18.613,0,0,0,1.319,1.806c0,.079-.831-.369-1.7-1.53a7.779,7.779,0,0,1,.963-10.324,3.956,3.956,0,0,1,1.925-1.2Z" transform="translate(-159.315 -63.462)" fill="#263238"/>
      <path id="Path_1067" data-name="Path 1067" d="M330.93,409.615a3.95,3.95,0,0,1,.778.185l.923.251,1.319.237a18.367,18.367,0,0,0,8.149-.765,29.838,29.838,0,0,0,10.548-6.171,79.434,79.434,0,0,0,9.823-11.405,68.947,68.947,0,0,1,10.14-11.326c1.793-1.5,3.547-2.835,5.01-4.272a14.042,14.042,0,0,0,3.3-4.549,8.294,8.294,0,0,0-.752-7.779,6.118,6.118,0,0,0-2.387-1.78,4.048,4.048,0,0,1,.765.224,5.05,5.05,0,0,1,1.833,1.4,8.518,8.518,0,0,1,1,8.122,14.661,14.661,0,0,1-3.349,4.773c-1.49,1.477-3.257,2.848-5.01,4.351a70.412,70.412,0,0,0-9.995,11.26,77.864,77.864,0,0,1-9.968,11.471,29.84,29.84,0,0,1-10.759,6.144,17.921,17.921,0,0,1-8.346.567l-1.318-.3c-.369-.105-.672-.237-.91-.316a3.572,3.572,0,0,1-.791-.317Z" transform="translate(-156.042 -71.296)" fill="#263238"/>
      <path id="Path_1068" data-name="Path 1068" d="M412.368,285.51a7.141,7.141,0,0,1-.554.791c-.435.554-.989,1.319-1.688,2.2-1.5,1.872-3.573,4.668-6.1,8.149a266.7,266.7,0,0,0-17.576,28.573c-6.224,11.551-11.366,22.27-15.308,29.918-1.951,3.837-3.56,6.922-4.734,9.032l-1.279,2.413a4.84,4.84,0,0,1-.514.818,5.121,5.121,0,0,1,.382-.883l1.239-2.492,4.523-9.111c3.824-7.714,8.913-18.46,15.137-30.036a239.97,239.97,0,0,1,17.8-28.533c2.637-3.441,4.707-6.21,6.276-8.03l1.793-2.123a4.191,4.191,0,0,1,.607-.686Z" transform="translate(-145.314 -95.738)" fill="#263238"/>
      <g id="Group_5730" data-name="Group 5730" transform="translate(164.115 326.703)" opacity="0.3">
        <path id="Path_1069" data-name="Path 1069" d="M322.813,398.7c6.421,3.481,13.489,3.112,20.662,1.714a32.067,32.067,0,0,0,18.46-11.049,32.028,32.028,0,0,1-8.531,16.851c-4.562,4.47-11.181,7.054-17.458,5.907s-12.632-7.054-13.185-13.423" transform="translate(-322.76 -389.36)"/>
      </g>
      <g id="Group_5731" data-name="Group 5731" transform="translate(219.275 262.464)" opacity="0.3">
        <path id="Path_1070" data-name="Path 1070" d="M370.272,376.162a28.336,28.336,0,0,1,3.956,21.255c5.446-8.333,6.725-18.882,5.274-28.731s-5.472-19.145-9.929-28.045c0,0-4.905,8.307-4.958,9.23-.237,4.8,1.53,13.818,2.452,18.526a10.3,10.3,0,0,1,2.993,9.309" transform="translate(-364.594 -340.64)"/>
      </g>
      <g id="Group_5732" data-name="Group 5732" transform="translate(185.95 264.916)" opacity="0.3">
        <path id="Path_1071" data-name="Path 1071" d="M339.32,448.116c13.106,10.219,32.555,10.693,46.888,2.307,13.805-8.083,22.31-22.639,30.195-36.55,12.223-21.545,27.122-48.193,35.851-71.373,0,0-24.459,33.372-31.83,47.758a237.408,237.408,0,0,1-16.693,28.059A71.94,71.94,0,0,1,340.6,449.078" transform="translate(-339.32 -342.5)"/>
      </g>
      <path id="Path_1072" data-name="Path 1072" d="M324.079,466.251a1.317,1.317,0,0,1,0-.409v-1.2c0-1.121.092-2.637.171-4.575.185-3.956.435-9.625.752-16.39v.158c-2.36-7.911-5.129-17.51-8-27.874-3.8-13.739-7-26.239-9.164-35.324-1.068-4.536-1.912-8.228-2.439-10.786-.251-1.226-.448-2.215-.593-2.94a8.8,8.8,0,0,1-.171-1.042,5.389,5.389,0,0,1,.3,1l.725,2.927c.646,2.637,1.543,6.25,2.637,10.72,2.281,9.058,5.564,21.532,9.362,35.258,2.861,10.364,5.591,19.963,7.911,27.887v.092c-.409,6.764-.752,12.394-1,16.4-.132,1.912-.237,3.441-.316,4.562a11.652,11.652,0,0,1-.105,1.187,1.384,1.384,0,0,1-.066.343Z" transform="translate(-164.42 -70.139)" fill="#263238"/>
      <path id="Path_1073" data-name="Path 1073" d="M431.208,284.181c0,.105-1.424-.4-3.705-.963a44.7,44.7,0,0,0-9.085-1.319,43.748,43.748,0,0,0-9.151.712c-2.321.435-3.731.831-3.758.725a3.4,3.4,0,0,1,.949-.422,27.2,27.2,0,0,1,2.7-.778,35.891,35.891,0,0,1,9.23-.923,36.426,36.426,0,0,1,9.23,1.477,22.423,22.423,0,0,1,2.637.949C430.918,283.97,431.208,284.128,431.208,284.181Z" transform="translate(-132.285 -97.111)" fill="#263238"/>
      <path id="Path_1074" data-name="Path 1074" d="M401.7,265a3.877,3.877,0,0,1-.356.686l-1.121,1.886c-.989,1.635-2.452,3.956-4.312,6.843-3.732,5.709-9.072,13.5-15.387,21.782-5.076,6.685-9.995,12.684-14.016,17.378l-.29.33-.171-.4c-1.925-4.193-3.507-7.674-4.654-10.192-.514-1.16-.923-2.11-1.253-2.835a5.27,5.27,0,0,1-.382-1.015,5.4,5.4,0,0,1,.541.949c.356.712.8,1.635,1.384,2.769,1.2,2.492,2.861,5.933,4.852,10.1l-.448-.066c3.956-4.747,8.821-10.759,13.9-17.431,6.3-8.281,11.682-16.007,15.519-21.651l4.5-6.711,1.226-1.82A2.911,2.911,0,0,1,401.7,265Z" transform="translate(-146.859 -102.271)" fill="#263238"/>
      <path id="Path_1075" data-name="Path 1075" d="M415.889,433.638c-.2,0,.409-6.87,1.319-15.3s1.846-15.229,2.031-15.2-.422,6.856-1.319,15.282S416.047,433.651,415.889,433.638Z" transform="translate(-128.991 -58.267)" fill="#263238"/>
      <path id="Path_1076" data-name="Path 1076" d="M343.5,424.9a98.224,98.224,0,0,1,1.569,11.5,93.414,93.414,0,0,1,.883,11.564,101.686,101.686,0,0,1-1.569-11.5A100,100,0,0,1,343.5,424.9Z" transform="translate(-152.038 -51.335)" fill="#263238"/>
      <path id="Path_1077" data-name="Path 1077" d="M397.679,311a1.688,1.688,0,0,0-2.558-1.015l-.092.079a1.6,1.6,0,1,0,2.637.936Z" transform="translate(-135.794 -88.028)" fill="#fff"/>
      <path id="Path_1078" data-name="Path 1078" d="M387.246,285.581a1.688,1.688,0,0,0-2.558-1.015l-.079.079a1.6,1.6,0,1,0,2.637.936Z" transform="translate(-139.113 -96.125)" fill="#fff"/>
      <path id="Path_1079" data-name="Path 1079" d="M363.316,306.051a1.688,1.688,0,0,0-2.558-1.015h-.079a1.6,1.6,0,1,0,2.637.949Z" transform="translate(-146.736 -89.604)" fill="#fff"/>
      <path id="Path_1080" data-name="Path 1080" d="M337.446,295.771a1.675,1.675,0,0,0-2.545-1.015l-.092.079a1.6,1.6,0,1,0,2.637.936Z" transform="translate(-154.977 -92.879)" fill="#fff"/>
      <path id="Path_1081" data-name="Path 1081" d="M332.885,285.641a1.688,1.688,0,0,0-2.558-1.015l-.092.079a1.609,1.609,0,1,0,2.637.936Z" transform="translate(-156.441 -96.106)" fill="#fff"/>
      <path id="Path_1082" data-name="Path 1082" d="M334.87,273.941a1.688,1.688,0,0,0-2.558-1.015l-.092.066a1.6,1.6,0,1,0,2.637.949Z" transform="translate(-155.802 -99.833)" fill="#fff"/>
      <path id="Path_1083" data-name="Path 1083" d="M320.54,290.041a1.688,1.688,0,0,0-2.558-1.015l-.092.066a1.6,1.6,0,1,0,2.637.949Z" transform="translate(-160.367 -94.704)" fill="#fff"/>
      <path id="Path_1084" data-name="Path 1084" d="M353.766,294.681a1.675,1.675,0,0,0-2.545-1.015l-.092.079a1.6,1.6,0,1,0,2.637.936Z" transform="translate(-149.778 -93.226)" fill="#fff"/>
      <path id="Path_1085" data-name="Path 1085" d="M325.63,315.551a1.688,1.688,0,0,0-2.558-1.015h-.092a1.6,1.6,0,1,0,2.637.949Z" transform="translate(-158.746 -86.578)" fill="#fff"/>
      <path id="Path_1086" data-name="Path 1086" d="M299.906,375.571a1.688,1.688,0,0,0-2.558-1.015l-.079.066a1.6,1.6,0,1,0,2.637.949Z" transform="translate(-166.935 -67.459)" fill="#fff"/>
      <path id="Path_1087" data-name="Path 1087" d="M309.089,340.951a1.688,1.688,0,0,0-2.558-1.015l-.092.079a1.6,1.6,0,1,0,2.637.936Z" transform="translate(-164.014 -78.487)" fill="#fff"/>
      <path id="Path_1088" data-name="Path 1088" d="M376.77,280.171a1.688,1.688,0,0,0-2.558-1.015l-.092.066a1.6,1.6,0,1,0,2.637.949Z" transform="translate(-142.455 -97.848)" fill="#fff"/>
      <path id="Path_1089" data-name="Path 1089" d="M409.015,349.091a1.688,1.688,0,0,0-2.558-1.015l-.092.079a1.609,1.609,0,1,0,2.637.936Z" transform="translate(-132.19 -75.894)" fill="#fff"/>
      <path id="Path_1090" data-name="Path 1090" d="M421.576,289.781a1.675,1.675,0,0,0-2.545-1.015l-.092.066a1.6,1.6,0,1,0,2.637.949Z" transform="translate(-128.178 -94.787)" fill="#fff"/>
      <path id="Path_1091" data-name="Path 1091" d="M416.655,328.621a1.688,1.688,0,0,0-2.558-1.015l-.092.079a1.609,1.609,0,1,0,2.637.936Z" transform="translate(-129.756 -82.415)" fill="#fff"/>
      <path id="Path_1092" data-name="Path 1092" d="M388.439,356.671a1.688,1.688,0,0,0-2.558-1.015l-.092.079a1.6,1.6,0,1,0,2.637.936Z" transform="translate(-138.737 -73.48)" fill="#fff"/>
      <path id="Path_1093" data-name="Path 1093" d="M389.635,333.311a1.688,1.688,0,0,0-2.558-1.015l-.092.079a1.609,1.609,0,1,0,2.637.936Z" transform="translate(-138.363 -80.921)" fill="#fff"/>
      <path id="Path_1094" data-name="Path 1094" d="M406.636,289.981a1.675,1.675,0,0,0-2.545-1.015l-.092.079a1.6,1.6,0,1,0,2.637.936Z" transform="translate(-132.936 -94.724)" fill="#fff"/>
      <path id="Path_1095" data-name="Path 1095" d="M383.766,267.361a1.675,1.675,0,0,0-2.545-1.015l-.092.066a1.6,1.6,0,1,0,2.637.949Z" transform="translate(-140.222 -101.929)" fill="#fff"/>
      <path id="Path_1096" data-name="Path 1096" d="M382.9,303.833a1.675,1.675,0,0,0-2.558-1.015l-.079.066a1.6,1.6,0,1,0,2.637.949Z" transform="translate(-140.499 -90.314)" fill="#fff"/>
      <path id="Path_1097" data-name="Path 1097" d="M353.644,415.074a1.675,1.675,0,0,0-2.492-1.015l-.092.066a1.6,1.6,0,1,0,2.637.949Z" transform="translate(-149.801 -54.866)" fill="#fff"/>
      <path id="Path_1098" data-name="Path 1098" d="M320.109,396.781a1.688,1.688,0,0,0-2.558-1.015l-.092.079a1.6,1.6,0,1,0,2.637.936Z" transform="translate(-160.503 -60.703)" fill="#fff"/>
      <path id="Path_1099" data-name="Path 1099" d="M292.976,405.751a1.688,1.688,0,0,0-2.558-1.015l-.079.066a1.6,1.6,0,1,0,2.637.949Z" transform="translate(-169.143 -57.845)" fill="#fff"/>
      <path id="Path_1100" data-name="Path 1100" d="M290.08,421.2a1.688,1.688,0,0,0-2.558-1.015l-.092.066a1.6,1.6,0,1,0,2.637.949Z" transform="translate(-170.07 -52.924)" fill="#fff"/>
      <path id="Path_1101" data-name="Path 1101" d="M315.506,426.371a1.688,1.688,0,0,0-2.558-1.015l-.079.079a1.6,1.6,0,1,0,2.637.936Z" transform="translate(-161.966 -51.277)" fill="#fff"/>
      <path id="Path_1102" data-name="Path 1102" d="M307.014,391.771a1.688,1.688,0,0,0-2.558-1.015l-.092.079a1.609,1.609,0,1,0,2.637.936Z" transform="translate(-164.682 -62.299)" fill="#fff"/>
      <path id="Path_1103" data-name="Path 1103" d="M338.206,400.573a1.675,1.675,0,0,0-2.558-1.015l-.079.066a1.6,1.6,0,1,0,2.637.949Z" transform="translate(-154.735 -59.497)" fill="#fff"/>
      <path id="Path_1104" data-name="Path 1104" d="M412.376,391.723a1.661,1.661,0,0,0-2.545-1.015l-.092.066a1.6,1.6,0,1,0,2.637.949Z" transform="translate(-131.108 -62.317)" fill="#fff"/>
      <path id="Path_1105" data-name="Path 1105" d="M366.489,435.691a1.688,1.688,0,0,0-2.558-1.015l-.092.079a1.6,1.6,0,1,0,2.637.936Z" transform="translate(-145.729 -48.308)" fill="#fff"/>
      <path id="Path_1106" data-name="Path 1106" d="M386.056,411.211a1.675,1.675,0,0,0-2.545-1.015l-.092.079a1.6,1.6,0,1,0,2.637.936Z" transform="translate(-139.492 -56.106)" fill="#fff"/>
      <path id="Path_1107" data-name="Path 1107" d="M397.68,431.129a1.688,1.688,0,0,0-2.532-1.068l-.079.079a1.6,1.6,0,1,0,2.637.936Z" transform="translate(-135.781 -49.771)" fill="#fff"/>
      <path id="Path_1108" data-name="Path 1108" d="M365.339,326.861a1.688,1.688,0,0,0-2.558-1.015l-.092.079a1.6,1.6,0,1,0,2.637.936Z" transform="translate(-146.096 -82.975)" fill="#fff"/>
      <path id="Path_1109" data-name="Path 1109" d="M391.67,377.691a1.688,1.688,0,0,0-2.558-1.015l-.092.066a1.6,1.6,0,1,0,2.637.949Z" transform="translate(-137.709 -66.784)" fill="#fff"/>
      <path id="Path_1110" data-name="Path 1110" d="M383.13,396.941a1.688,1.688,0,0,0-2.558-1.015l-.092.066a1.6,1.6,0,1,0,2.637.949Z" transform="translate(-140.429 -60.652)" fill="#fff"/>
      <path id="Path_1111" data-name="Path 1111" d="M411.2,412.4a1.688,1.688,0,0,0-2.558-1.015l-.092.079a1.6,1.6,0,1,0,2.637.936Z" transform="translate(-131.487 -55.727)" fill="#fff"/>
      <path id="Path_1112" data-name="Path 1112" d="M334.39,434.733a1.675,1.675,0,0,0-2.558-1.015l-.092.066a1.6,1.6,0,1,0,2.637.949Z" transform="translate(-155.955 -48.616)" fill="#fff"/>
      <path id="Path_1113" data-name="Path 1113" d="M270.395,428.881a1.688,1.688,0,0,0-2.558-1.015l-.092.079a1.609,1.609,0,1,0,2.637.936Z" transform="translate(-176.347 -50.477)" fill="#fff"/>
      <path id="Path_1114" data-name="Path 1114" d="M326.775,418.371a1.688,1.688,0,0,0-2.558-1.015l-.092.079a1.609,1.609,0,1,0,2.637.936Z" transform="translate(-158.387 -53.825)" fill="#fff"/>
      <path id="Path_1115" data-name="Path 1115" d="M272.766,406.943a1.675,1.675,0,0,0-2.558-1.015l-.079.066a1.6,1.6,0,1,0,2.637.949Z" transform="translate(-175.581 -57.468)" fill="#fff"/>
      <path id="Path_1116" data-name="Path 1116" d="M362.97,370.641a1.688,1.688,0,0,0-2.558-1.015l-.092.066a1.6,1.6,0,1,0,2.637.949Z" transform="translate(-146.851 -69.029)" fill="#fff"/>
      <path id="Path_1117" data-name="Path 1117" d="M344.09,315.551a1.688,1.688,0,0,0-2.558-1.015h-.092a1.6,1.6,0,1,0,2.637.949Z" transform="translate(-152.865 -86.578)" fill="#fff"/>
      <path id="Path_1118" data-name="Path 1118" d="M339.366,363.311a1.688,1.688,0,0,0-2.558-1.015l-.079.079a1.6,1.6,0,1,0,2.637.936Z" transform="translate(-154.365 -71.364)" fill="#fff"/>
      <path id="Path_1119" data-name="Path 1119" d="M331.686,347.741a1.688,1.688,0,0,0-2.558-1.015h-.079a1.6,1.6,0,1,0,2.637.949Z" transform="translate(-156.812 -76.324)" fill="#fff"/>
      <path id="Path_1120" data-name="Path 1120" d="M365.665,396.721a1.688,1.688,0,0,0-2.558-1.015l-.092.079a1.609,1.609,0,1,0,2.637.936Z" transform="translate(-145.999 -60.722)" fill="#fff"/>
      <path id="Path_1121" data-name="Path 1121" d="M341.709,387.121a1.675,1.675,0,0,0-2.558-1.055l-.092.079a1.6,1.6,0,1,0,2.637.936Z" transform="translate(-153.623 -63.793)" fill="#fff"/>
      <path id="Path_1122" data-name="Path 1122" d="M351.956,334.361a1.675,1.675,0,0,0-2.545-1.015l-.092.066a1.6,1.6,0,1,0,2.637.949Z" transform="translate(-150.355 -80.586)" fill="#fff"/>
      <path id="Path_1123" data-name="Path 1123" d="M315.506,371.711a1.688,1.688,0,0,0-2.558-1.015l-.079.079a1.6,1.6,0,1,0,2.637.936Z" transform="translate(-161.966 -68.689)" fill="#fff"/>
      <path id="Path_1124" data-name="Path 1124" d="M371.77,354.571a1.688,1.688,0,0,0-2.558-1.015l-.092.066a1.6,1.6,0,1,0,2.637.949Z" transform="translate(-144.048 -74.149)" fill="#fff"/>
      <path id="Path_1125" data-name="Path 1125" d="M423.959,309.811A1.688,1.688,0,0,0,421.4,308.8l-.092.079a1.6,1.6,0,1,0,2.637.936Z" transform="translate(-127.422 -88.407)" fill="#fff"/>
      <path id="Path_1126" data-name="Path 1126" d="M402.769,275.921a1.688,1.688,0,0,0-2.558-1.015l-.092.079a1.6,1.6,0,1,0,2.637.936Z" transform="translate(-134.172 -99.202)" fill="#fff"/>
      <path id="Path_1127" data-name="Path 1127" d="M361.71,280.171a1.688,1.688,0,0,0-2.558-1.015l-.092.066a1.6,1.6,0,1,0,2.637.949Z" transform="translate(-147.252 -97.848)" fill="#fff"/>
      <path id="Path_1128" data-name="Path 1128" d="M323.913,158.21c-10.377,6.593-14.5,20.451-12.553,28.639,1,4.127,2.874,8.28,2.057,12.434-.7,3.6-3.3,6.487-5.274,9.6a28.9,28.9,0,0,0,36.128,41.745" transform="translate(-164.69 -136.289)" fill="#263238"/>
      <path id="Path_1129" data-name="Path 1129" d="M315.849,217.553c-25.263-55.564,34.836-83.477,67.615-74.221,30.814,8.7,43.96,24.037,49.037,44.646s4.826,42.958-3.257,62.591c-3.956,9.678-11.155,19.515-21.558,20.728" transform="translate(-162.77 -141.585)" fill="#263238"/>
      <path id="Path_1130" data-name="Path 1130" d="M344.048,348.817c-.435-26.556-.752-63.013-.752-62.868s-22.771-3.784-27.558-33.531c-2.347-14.807-1.6-39.082-.356-58.926,1.134-17.866,12.961-39.781,30.762-37.9l55.577,14.043a10.456,10.456,0,0,1,9.362,10.627h0L407.47,295.205" transform="translate(-161.368 -137.157)" fill="#ffbe9d"/>
      <path id="Path_1131" data-name="Path 1131" d="M322.64,198.9a3.784,3.784,0,0,0,3.613,3.863,3.626,3.626,0,0,0,3.956-3.375,3.811,3.811,0,0,0-3.613-3.877,3.639,3.639,0,0,0-3.956,3.389Z" transform="translate(-158.683 -124.41)" fill="#263238"/>
      <path id="Path_1132" data-name="Path 1132" d="M352.56,198.9a3.784,3.784,0,0,0,3.613,3.85,3.626,3.626,0,0,0,3.956-3.375,3.784,3.784,0,0,0-3.613-3.863,3.626,3.626,0,0,0-3.956,3.389Z" transform="translate(-149.152 -124.411)" fill="#263238"/>
      <path id="Path_1133" data-name="Path 1133" d="M319.533,193.717c.462.514,3.428-1.53,7.529-1.319s7.041,2.294,7.516,1.806c.224-.211-.237-1.121-1.516-2.123a10.417,10.417,0,0,0-5.986-2.07,10.1,10.1,0,0,0-6.013,1.727C319.77,192.635,319.309,193.479,319.533,193.717Z" transform="translate(-159.69 -126.16)" fill="#263238"/>
      <path id="Path_1134" data-name="Path 1134" d="M349.115,194.538c.475.5,3.362-1.661,7.463-1.661s7.133,2.031,7.568,1.53c.224-.224-.264-1.121-1.582-2.07a10.416,10.416,0,0,0-6.065-1.846,10,10,0,0,0-5.934,1.952C349.3,193.417,348.878,194.314,349.115,194.538Z" transform="translate(-150.27 -126.006)" fill="#263238"/>
      <path id="Path_1135" data-name="Path 1135" d="M340.937,225.833c0-.237-2.532-.672-6.672-1.213-1.055-.105-2.044-.316-2.215-1.028a5.274,5.274,0,0,1,.7-3.112c.976-2.532,2.017-5.2,3.1-7.99,4.312-11.366,7.423-20.728,6.962-20.9s-4.325,8.913-8.623,20.292l-2.98,8.043a6.039,6.039,0,0,0-.541,4.114,2.637,2.637,0,0,0,1.727,1.529,6.7,6.7,0,0,0,1.78.251C338.339,226.044,340.923,226.057,340.937,225.833Z" transform="translate(-156.173 -125.656)" fill="#263238"/>
      <path id="Path_1136" data-name="Path 1136" d="M336.27,257a75.777,75.777,0,0,0,39.873-10.627s-10.074,20.7-39.873,17.919Z" transform="translate(-154.341 -108.206)" fill="#eb996e"/>
      <path id="Path_1137" data-name="Path 1137" d="M348.336,189.88c.4,1.121,4.509.58,9.322,1.174s8.716,1.885,9.362.883c.29-.475-.4-1.53-1.965-2.637a16.363,16.363,0,0,0-14.24-1.569C349.048,188.469,348.151,189.353,348.336,189.88Z" transform="translate(-150.505 -127.189)" fill="#263238"/>
      <path id="Path_1138" data-name="Path 1138" d="M320.265,186.028c.725.936,3.56,0,6.962-.079s6.289.633,6.949-.343c.29-.475-.158-1.411-1.424-2.294a9.625,9.625,0,0,0-5.657-1.53,9.731,9.731,0,0,0-5.551,1.872C320.344,184.591,319.949,185.553,320.265,186.028Z" transform="translate(-159.473 -128.783)" fill="#263238"/>
      <path id="Path_1139" data-name="Path 1139" d="M384.215,204.355c.435-.211,15.941-7.067,16.126,10.759s-17.761,14.333-17.8,13.818S384.215,204.355,384.215,204.355Z" transform="translate(-139.602 -122.057)" fill="#ffbe9d"/>
      <path id="Path_1140" data-name="Path 1140" d="M386.623,220.882c.079,0,.316.211.844.448a3.138,3.138,0,0,0,2.321,0c1.872-.712,3.428-3.718,3.481-6.936a9.981,9.981,0,0,0-.91-4.43A3.56,3.56,0,0,0,390,207.6a1.569,1.569,0,0,0-1.82.87c-.237.5-.119.857-.211.883s-.4-.29-.251-1.028a1.964,1.964,0,0,1,.686-1.121,2.321,2.321,0,0,1,1.714-.475,4.364,4.364,0,0,1,3.27,2.729,10.549,10.549,0,0,1,1.134,4.958c-.079,3.586-1.886,6.975-4.457,7.74a3.349,3.349,0,0,1-2.848-.435C386.663,221.317,386.57,220.909,386.623,220.882Z" transform="translate(-138.306 -120.837)" fill="#eb996e"/>
      <path id="Path_1141" data-name="Path 1141" d="M336.7,148.88c-9.915,5.129-14,25.408-9.9,35.8s15.163,15.453,26.068,17.84,21.6,2.637,32.357-.316c.738,7.226,5.076,14.649,12.091,16.561,9.3,2.518,18.657-5.986,20.728-15.387s-1.042-19.079-4.1-28.217" transform="translate(-157.861 -139.261)" fill="#263238"/>
      <path id="Path_1142" data-name="Path 1142" d="M401.289,201.039a12.912,12.912,0,0,1-1.384,1.319,46.558,46.558,0,0,1-4.1,3.1,25.367,25.367,0,0,1-6.936,3.362,14.992,14.992,0,0,1-9.454-.145,14.622,14.622,0,0,1-7.16-6.184,19.871,19.871,0,0,1-2.571-7.278,26.559,26.559,0,0,1-.277-5.169,5.763,5.763,0,0,1,.224-1.872c.2,0,0,2.7.765,6.909a20.462,20.462,0,0,0,2.637,6.909,14.069,14.069,0,0,0,6.711,5.723,14.425,14.425,0,0,0,8.847.185,26.661,26.661,0,0,0,6.79-3.046C399.047,202.555,401.183,200.894,401.289,201.039Z" transform="translate(-143.794 -126.745)" fill="#263238"/>
      <path id="Path_1143" data-name="Path 1143" d="M339.467,227.273a16.849,16.849,0,0,0,2.215,4.338,5.749,5.749,0,0,0,4.1,2.387,5.274,5.274,0,0,0,4.378-2.387,8.32,8.32,0,0,0,1.213-4.984c-.066-1.569-.791-3.441-2.347-3.626a3.824,3.824,0,0,0-1.886.422l-8.2,3.323" transform="translate(-153.491 -115.651)" fill="#eb996e"/>
      <path id="Path_1144" data-name="Path 1144" d="M343.108,234.228c0-.251,1.846.475,4.378-.541a6.224,6.224,0,0,0,3.31-2.993,6.592,6.592,0,0,0,.105-5.366,6.209,6.209,0,0,0-.712-1.226c-.33-.343-.277-.33-.62-.277a8.638,8.638,0,0,0-1.319.514l-1.319.554c-1.754.712-3.349,1.319-4.681,1.833-2.637,1-4.391,1.53-4.47,1.319s1.477-1.055,4.061-2.294c1.319-.62,2.835-1.319,4.562-2.123l1.319-.593c.488-.2.844-.409,1.5-.62a1.925,1.925,0,0,1,1.213,0,2.242,2.242,0,0,1,.91.712,7.5,7.5,0,0,1,.672,8.109,6.949,6.949,0,0,1-4.167,3.362,6.5,6.5,0,0,1-3.547.145C343.464,234.6,343.081,234.32,343.108,234.228Z" transform="translate(-153.861 -115.868)" fill="#263238"/>
      <path id="Path_1145" data-name="Path 1145" d="M402.733,194.731c-1.82-.132-16.548,1.78-15.387,29.14,1.081,25.567,19.013,19.936,24.736,10.311C417.461,225.071,420.6,195.984,402.733,194.731Z" transform="translate(-138.092 -124.657)" fill="#455a64"/>
      <path id="Path_1146" data-name="Path 1146" d="M410.467,206.316a4.453,4.453,0,0,1-.066-.712c0-.541,0-1.226-.079-2.1,0-1.886-.132-4.523-.224-7.793-.132-6.711-.316-16.06-.541-26.832l.33.316H402.3l.343-.343c0,2.031.105,4.18.171,6.369.251,10.258.488,19.778.686,27.835v.237h-.224a13.726,13.726,0,0,0-7.819,5.037,18.461,18.461,0,0,0-3.125,6.593,29.084,29.084,0,0,0-.8,4.681c0,.541-.066.963-.079,1.239a3.709,3.709,0,0,0,0,.435,1.833,1.833,0,0,1,0-.435v-1.253a24.519,24.519,0,0,1,.659-4.747,18.461,18.461,0,0,1,3.072-6.8,14.214,14.214,0,0,1,8.056-5.274l-.224.29c-.224-8-.5-17.563-.791-27.835-.066-2.176-.119-4.325-.171-6.369V168.5h8.267v.33c.119,10.786.224,20.121.3,26.846v9.876A2.837,2.837,0,0,1,410.467,206.316Z" transform="translate(-136.767 -133.011)" fill="#455a64"/>
      <path id="Path_1147" data-name="Path 1147" d="M410.6,177.346s-7.7-18.011-26.041-26.912a109.662,109.662,0,0,0-21.98-8.149s10.707-2.532,28.019,5.169c7.911,3.507,15.823,8.056,21.1,14.9,3.323,4.338,7.489,12.816,7.476,14.992Z" transform="translate(-145.96 -141.488)" fill="#455a64"/>
      <path id="Path_1148" data-name="Path 1148" d="M363,367.337s.105-.132.33-.356.567-.567.989-1.028a48.934,48.934,0,0,0,3.56-4.219,68.916,68.916,0,0,0,4.813-7.384c1.714-2.993,3.507-6.527,5.446-10.469,3.89-7.911,8.386-17.431,13.054-28.375,2.321-5.472,4.694-11.287,7.067-17.418l1.767-4.641a26.95,26.95,0,0,1,2.123-4.681,9.678,9.678,0,0,1,3.824-3.639,5.432,5.432,0,0,1,2.637-.672,2.73,2.73,0,0,1,1.4.5,2.993,2.993,0,0,1,.883,1.187v.2a4.562,4.562,0,0,1-.712,1.754,2.769,2.769,0,0,1-1.648,1.081,5.972,5.972,0,0,1-3.679-.672,5.828,5.828,0,0,1-3.257-6.395,5.129,5.129,0,0,1,2.149-3.217,5.986,5.986,0,0,1,3.745-1.068,4.127,4.127,0,0,1,3.455,1.912,1.991,1.991,0,0,1-.132,2.149,3.8,3.8,0,0,1-1.675,1.213,5.5,5.5,0,0,1-6.316-1.793,4.628,4.628,0,0,1-.857-3.323,5.71,5.71,0,0,1,1.319-3.112,4.773,4.773,0,0,1,2.967-1.635,3.8,3.8,0,0,1,3.2,1.108,2.373,2.373,0,0,1,.633,1.675,2.216,2.216,0,0,1-.765,1.622,3.692,3.692,0,0,1-3.217.87,4.048,4.048,0,0,1-2.571-2.057,8.478,8.478,0,0,1-.963-3.046,10.786,10.786,0,0,1,.7-6.145,4.575,4.575,0,0,1,2.255-2.228,4.127,4.127,0,0,1,3.125.105,2.967,2.967,0,0,1,1.938,2.439,2.716,2.716,0,0,1-1.675,2.637,3.323,3.323,0,0,1-3.033,0,4.193,4.193,0,0,1-1.886-2.321,5.789,5.789,0,0,1-.171-2.874,13.081,13.081,0,0,1,.607-2.743,5.023,5.023,0,0,1,1.6-2.334,6.394,6.394,0,0,1,2.492-1.226,2.637,2.637,0,0,1,1.45,0,3.073,3.073,0,0,1,1.2.765,3.455,3.455,0,0,1,.778,1.16,1.938,1.938,0,0,1,0,1.464,2.373,2.373,0,0,1-2.36,1.319,4.3,4.3,0,0,1-2.479-.831,6.8,6.8,0,0,1-2.637-4.153,7,7,0,0,1,.725-4.826,5.34,5.34,0,0,1,1.49-1.806,4.813,4.813,0,0,1,2.1-.91,3.389,3.389,0,0,1,2.242.316,2.334,2.334,0,0,1,1.213,1.859,3.283,3.283,0,0,1-2.479,3.164,3.586,3.586,0,0,1-3.586-1.319,5.749,5.749,0,0,1-1.319-3.375,21.1,21.1,0,0,1,1.319-6.3c.541-1.9,1.028-3.639,1.477-5.2.884-3.1,1.569-5.512,2.057-7.173.224-.8.409-1.424.541-1.859s.211-.633.211-.633a2.242,2.242,0,0,1-.145.646c-.145.422-.277,1.081-.475,1.885-.448,1.675-1.108,4.1-1.938,7.2l-1.411,5.208c-.448,1.912-1.319,3.956-1.226,6.2a5.485,5.485,0,0,0,1.319,3.138,3.2,3.2,0,0,0,3.165,1.187,2.848,2.848,0,0,0,2.136-2.637,1.886,1.886,0,0,0-.976-1.49,2.993,2.993,0,0,0-1.925-.251,4.312,4.312,0,0,0-1.9.831,4.957,4.957,0,0,0-1.318,1.648,6.592,6.592,0,0,0-.488,4.351,6.3,6.3,0,0,0,2.452,3.811,3.864,3.864,0,0,0,2.162.725,1.806,1.806,0,0,0,1.82-.962,2.018,2.018,0,0,0-.7-2,2.638,2.638,0,0,0-.962-.62,2.267,2.267,0,0,0-1.147,0,5.01,5.01,0,0,0-3.652,3.2,11.988,11.988,0,0,0-.567,2.637,5.129,5.129,0,0,0,.158,2.637,3.468,3.468,0,0,0,1.582,1.965,2.756,2.756,0,0,0,2.466,0,2.07,2.07,0,0,0,1.319-1.965,2.334,2.334,0,0,0-1.543-1.886,3.586,3.586,0,0,0-2.637-.092,3.955,3.955,0,0,0-1.912,1.912,10.245,10.245,0,0,0-.62,5.762,7.911,7.911,0,0,0,.883,2.809,3.4,3.4,0,0,0,2.123,1.727,3.006,3.006,0,0,0,2.637-.7,1.635,1.635,0,0,0,.092-2.36,3.151,3.151,0,0,0-2.637-.883,4.048,4.048,0,0,0-2.532,1.424,4.536,4.536,0,0,0-.475,5.577,4.839,4.839,0,0,0,5.512,1.556,3.284,3.284,0,0,0,1.319-.989,1.319,1.319,0,0,0,.079-1.424,3.468,3.468,0,0,0-2.888-1.543,4.945,4.945,0,0,0-5.182,3.732,5.09,5.09,0,0,0,2.769,5.551,5.182,5.182,0,0,0,3.23.633,2.637,2.637,0,0,0,1.846-2.307v.2a1.978,1.978,0,0,0-1.727-1.319,4.707,4.707,0,0,0-2.334.607,8.965,8.965,0,0,0-3.573,3.4,25.75,25.75,0,0,0-2.07,4.549l-1.793,4.654c-2.373,6.118-4.773,11.867-7.12,17.4-4.694,10.944-9.23,20.49-13.185,28.349-1.965,3.956-3.784,7.45-5.538,10.443a67.632,67.632,0,0,1-4.918,7.344A34.664,34.664,0,0,1,363,367.337Z" transform="translate(-145.827 -113.299)" fill="#fff"/>
      <path id="Path_1149" data-name="Path 1149" d="M437.013,194.649a17.3,17.3,0,0,0-1.2-4.879,19.211,19.211,0,0,0-9.467-9.48,25.566,25.566,0,0,0-9.124-2.228,42.932,42.932,0,0,0-10.825.817c-7.555,1.4-15.493,4.654-24.38,6a49.71,49.71,0,0,1-13.054,0,52.53,52.53,0,0,1-11.735-3.191A51.792,51.792,0,0,1,340.087,170.4a46.15,46.15,0,0,1-8.28-11.076,15.7,15.7,0,0,1-.976-1.938l-.633-1.464c-.158-.356-.277-.659-.382-.9a1.133,1.133,0,0,1-.105-.316,1.319,1.319,0,0,1,.171.29l.435.87.7,1.424a16.53,16.53,0,0,0,1.028,1.912,48.011,48.011,0,0,0,8.386,10.852A51.424,51.424,0,0,0,369,184.206a48.879,48.879,0,0,0,12.869,0c8.768-1.319,16.719-4.562,24.367-5.933a43.2,43.2,0,0,1,10.97-.765,25.645,25.645,0,0,1,9.3,2.36,19.237,19.237,0,0,1,9.507,9.81,14.388,14.388,0,0,1,.91,3.666v.976a1.133,1.133,0,0,1,.092.33Z" transform="translate(-156.431 -137.404)" fill="#455a64"/>
      <path id="Path_1150" data-name="Path 1150" d="M417.381,167.126a6.414,6.414,0,0,1-.949.158c-.62.092-1.543.224-2.716.435-2.347.382-5.709,1.134-9.85,2.162a104.8,104.8,0,0,1-14.754,2.861,74.14,74.14,0,0,1-18.381-.409,77.794,77.794,0,0,1-17.761-4.773,75.159,75.159,0,0,1-13.383-6.922c-1.767-1.2-3.349-2.307-4.694-3.362s-2.479-1.965-3.349-2.782l-2-1.886c-.448-.435-.686-.672-.659-.7a5.152,5.152,0,0,1,.752.593l2.083,1.78c.9.791,2.1,1.635,3.415,2.637s2.954,2.1,4.72,3.257a79.548,79.548,0,0,0,30.933,11.432,75.671,75.671,0,0,0,18.236.448,107.713,107.713,0,0,0,14.689-2.637c4.153-.963,7.555-1.648,9.929-1.965,1.187-.158,2.11-.251,2.743-.29A4.855,4.855,0,0,1,417.381,167.126Z" transform="translate(-156.696 -138.295)" fill="#455a64"/>
      <path id="Path_1151" data-name="Path 1151" d="M399.485,241.582a2.52,2.52,0,0,1-.514-.158,8.388,8.388,0,0,1-1.319-.7,12.1,12.1,0,0,1-3.863-4.114,19.87,19.87,0,0,1-2.373-8.03,57.577,57.577,0,0,1,0-10.232,62.337,62.337,0,0,1,1.688-10.087,29.1,29.1,0,0,1,2.94-7.819,12.078,12.078,0,0,1,3.956-4.1,7.223,7.223,0,0,1,1.319-.686c.33-.119.514-.171.514-.145a16.058,16.058,0,0,0-1.74,1.055,12.644,12.644,0,0,0-3.613,4.114,29.668,29.668,0,0,0-2.743,7.74,65.925,65.925,0,0,0-1.635,9.995,61.643,61.643,0,0,0,0,10.1,20.055,20.055,0,0,0,2.162,7.911,12.341,12.341,0,0,0,3.586,4.14C398.852,241.265,399.524,241.516,399.485,241.582Z" transform="translate(-136.848 -124.408)" fill="#263238"/>
      <rect id="Rectangle_129" data-name="Rectangle 129" width="21.308" height="8.03" rx="2.85" transform="translate(186.11 116.478) rotate(-11.1)" fill="#455a64"/>
      <path id="Path_1152" data-name="Path 1152" d="M354.47,233.653l62.565-19.62a2.954,2.954,0,0,1,3.692,1.912h0a2.966,2.966,0,0,1-2.044,3.758l-63.976,17.273Z" transform="translate(-148.544 -118.55)" fill="#455a64"/>
      <path id="Path_1153" data-name="Path 1153" d="M392.26,225a14,14,0,0,1,2.07-.725l5.722-1.74c2.4-.738,5.353-1.53,8.465-2.545a5.67,5.67,0,0,0,2.044-1.319,3.085,3.085,0,0,0,.883-2.176,1.9,1.9,0,0,0-1.319-1.793,4.787,4.787,0,0,0-2.637.079l-18.763,6.039-5.709,1.767a13.067,13.067,0,0,1-2.017.646,14.115,14.115,0,0,1,2.044-.8l5.643-1.978c4.786-1.622,11.353-3.877,18.737-6.237a5.406,5.406,0,0,1,3.006,0,2.637,2.637,0,0,1,1.741,2.426,3.745,3.745,0,0,1-1.081,2.637,6.329,6.329,0,0,1-2.4,1.319c-3.23,1.015-6.118,1.727-8.557,2.413l-5.723,1.543A11.7,11.7,0,0,1,392.26,225Z" transform="translate(-140.093 -118.517)" fill="#263238"/>
      <path id="Path_1154" data-name="Path 1154" d="M319.578,186c2.136,7.516-5.5,13.963-8.188,21.308-2.637,7.094-.4,15.045,2.809,21.9s7.423,13.344,9.058,20.714c4.048,18.2-12.408,37.8-9.23,56.17,1.134,6.7,3.837,13.686,6.171,20.055a26.5,26.5,0,0,1,0,18.631c-3.56,10.548-9.6,15.493-13.845,25.751-2.176,5.274-2,11.129-1.9,16.8s.079,11.6-2.452,16.693-8.307,9.019-13.792,7.542a20.213,20.213,0,0,0,24.156,4.6c7.212-3.85,11.247-11.656,14.7-19.066,16.719-35.878,25.567-38.91,25.052-78.493,0-2.545-.5-42.194-.5-42.194a39.557,39.557,0,0,1-9.876-4.153c-18.671-12.9-19.356-35.864-19.211-53.678" transform="translate(-169.651 -127.436)" fill="#263238"/>
      <path id="Path_1155" data-name="Path 1155" d="M344.881,277.08v14.939s-11.485,58.609-14.939,91.164-4.022,41.152-4.022,41.152,8.241,12.856,25.474-8.979S371.7,390.079,378.6,389.7c0,0-8.426-91.547-8.043-94.935a13.832,13.832,0,0,1,3.059-6.514Z" transform="translate(-157.638 -98.423)" fill="#ffbe9d"/>
      <path id="Path_1156" data-name="Path 1156" d="M362.9,262.448s-18.763,24.894-20.292,28.322-2.307,5.353-2.307,5.353l28.731,11.115L397,276.6l10.337-27.2-3.072-32.173s-6.118-.382-7.265,4.984a40.309,40.309,0,0,0-.778,10.337l-8.57-6.9-13.832-4.206s-3.257,5.353,2.11,8.043,6.9,2.637,6.9,2.637l4.826,8.426-2.11,9.441-9.784-9.23a5.577,5.577,0,0,0-7.12-.448l-6.329,4.589-5.92-2.637L344.9,252.532l-4.6,4.206s3.072,5.749,9.23,3.072l6.131-2.637Z" transform="translate(-153.058 -117.493)" fill="#ffbe9d"/>
      <path id="Path_1157" data-name="Path 1157" d="M340.4,301.3a6.2,6.2,0,0,1,0-.8,22.3,22.3,0,0,1,.185-2.334,27.459,27.459,0,0,1,.725-3.758,16.667,16.667,0,0,1,2-4.826c4.3-6.593,11.063-15.823,19.5-27.175v.343l-7.278-5.353h.251L352,259.066a26.189,26.189,0,0,1-4.035,1.569,6.593,6.593,0,0,1-4.483-.514,8.255,8.255,0,0,1-3.375-3.217l-.105-.185.171-.158c4.931-4.641,10.43-9.322,16.073-14.333l.171-.145.185.105,5.1,3.019h-.33l5.96-3.956c1.042-.672,1.978-1.319,3.1-2a3.718,3.718,0,0,1,3.85.33L385.9,249.4l-.541.185c.633-2.835,1.319-5.907,2-9.006v.237l-4.826-8.426.3.171a9.612,9.612,0,0,1-2.387-.646c-.752-.277-1.5-.593-2.255-.923s-1.49-.7-2.228-1.055c-.382-.185-.752-.435-1.121-.646a6.975,6.975,0,0,1-1-.87,4.852,4.852,0,0,1-1.319-3.52,7.766,7.766,0,0,1,1.015-3.586l.132-.224.264.079,13.818,4.219h.066l8.571,6.9-.541.29a40.952,40.952,0,0,1,.725-10.192,6.21,6.21,0,0,1,2.8-4.246,8.887,8.887,0,0,1,4.879-1.226h.356v.29c1.081,11.432,2.1,22.218,3.033,32.173h0v.066c-3.824,10.021-7.3,19.119-10.39,27.175h0L375.6,300.508l-5.881,6.369c-.672.7-1.187,1.253-1.543,1.635l-.541.541s.158-.211.488-.593l1.49-1.675,5.8-6.448L396.961,276.6v.066l10.285-27.215v.132c-.963-9.955-1.991-20.728-3.1-32.173l.3.3a8.122,8.122,0,0,0-4.483,1.134,5.512,5.512,0,0,0-2.492,3.824,39.562,39.562,0,0,0-.712,10.008v.765l-.593-.475-8.7-6.936h.119l-13.818-4.206.382-.158a7.185,7.185,0,0,0-.91,3.244,4.18,4.18,0,0,0,1.134,3.046,7.084,7.084,0,0,0,.883.765c.356.2.672.409,1.042.593.738.356,1.464.725,2.2,1.042a19.368,19.368,0,0,0,4.364,1.516h.211l.079.132,4.826,8.426.066.119v.132c-.7,3.1-1.319,6.171-2.017,9.006l-.119.554-.435-.369-11.577-9.8a3.046,3.046,0,0,0-3.165-.29c-.976.58-2.031,1.319-3.033,1.965l-5.973,3.956-.158.105-.171-.092-5.1-3.033h.369c-5.643,4.984-11.155,9.665-16.1,14.28l.066-.343a7.607,7.607,0,0,0,3.112,2.98,5.947,5.947,0,0,0,4.114.475,26.113,26.113,0,0,0,3.956-1.516L355.6,256.9h.145l.119.079,7.265,5.38.2.145-.145.2c-8.478,11.353-15.308,20.5-19.66,27.03a17.139,17.139,0,0,0-2.044,4.734,30.552,30.552,0,0,0-.778,3.718c-.145,1.015-.211,1.806-.251,2.321S340.4,301.3,340.4,301.3Z" transform="translate(-153.153 -117.592)" fill="#eb996e"/>
      <path id="Path_1158" data-name="Path 1158" d="M372.118,262.159c-.132,0,.369-2.031.58-5.274a12.1,12.1,0,0,0-.9-5.538,14.806,14.806,0,0,0-4.575-5.142,113.667,113.667,0,0,0-10.641-7.239l-3.362-1.978a6.458,6.458,0,0,1-1.213-.778,4.747,4.747,0,0,1,1.319.541c.844.382,2.044.989,3.494,1.793a88.162,88.162,0,0,1,10.812,7.12,14.808,14.808,0,0,1,4.72,5.419,11.866,11.866,0,0,1,.817,5.828,24.8,24.8,0,0,1-.646,3.877,5.129,5.129,0,0,1-.409,1.371Z" transform="translate(-149.327 -111.442)" fill="#eb996e"/>
      <path id="Path_1159" data-name="Path 1159" d="M382.558,252.51a25.731,25.731,0,0,1,.488-3.455,54.061,54.061,0,0,0,.593-8.307,55.168,55.168,0,0,0-.738-8.32A26.807,26.807,0,0,1,382.36,229a13.183,13.183,0,0,1,1.015,3.336,40.731,40.731,0,0,1,.145,16.811,13.184,13.184,0,0,1-.962,3.362Z" transform="translate(-139.659 -113.739)" fill="#eb996e"/>
    </g>
    <g id="freepik--speech-bubble--inject-64" transform="translate(237.004 94.653)">
      <path id="Path_1160" data-name="Path 1160" d="M317.737,202.476l-13.713-24.222a64.886,64.886,0,1,0-15.546,17.3h0Z" transform="translate(-183.725 -79.304)" fill="#fff"/>
      <path id="Path_1161" data-name="Path 1161" d="M317.776,202.487l-29.351-6.725h-.251l.158-.211h0l.237.237a66.086,66.086,0,0,1-13.33,8.03,64.781,64.781,0,0,1-17.761,5.063,58.212,58.212,0,0,1-10.258.514c-1.754-.092-3.56-.145-5.367-.29l-5.472-.831a65.3,65.3,0,0,1-40.44-26.081A64.464,64.464,0,0,1,185,157.142a65.927,65.927,0,0,1,.765-28.81A63.844,63.844,0,0,1,199.647,101.7l2.637-2.914a38.109,38.109,0,0,1,2.848-2.637,38.706,38.706,0,0,1,2.94-2.637l3.112-2.321a27.689,27.689,0,0,1,3.217-2.057l3.283-1.991,3.441-1.648a28.062,28.062,0,0,1,3.468-1.543A66.257,66.257,0,0,1,253.6,79.48a64.016,64.016,0,0,1,26.635,7.911,65.637,65.637,0,0,1,30.749,37.829,69.79,69.79,0,0,1,2.822,21.1,64.081,64.081,0,0,1-3.165,18.183,65.371,65.371,0,0,1-6.5,13.95v-.171l13.594,24.3c-.58-1.015-4.984-8.65-13.884-24.143v-.158a65.781,65.781,0,0,0,6.395-13.9,64.5,64.5,0,0,0,3.072-18.077,69.514,69.514,0,0,0-2.861-20.9A65.163,65.163,0,0,0,279.92,87.971,63.489,63.489,0,0,0,253.55,80.2a65.506,65.506,0,0,0-28.731,4.444,27.433,27.433,0,0,0-3.428,1.529l-3.4,1.648L214.731,89.8a24.144,24.144,0,0,0-3.178,2.11l-3.085,2.294c-1.042.738-1.925,1.7-2.9,2.532a31.353,31.353,0,0,0-2.822,2.637l-2.637,2.874a63.29,63.29,0,0,0-13.739,26.371,65.452,65.452,0,0,0-.778,28.52A63.962,63.962,0,0,0,196.4,181.918a64.978,64.978,0,0,0,40.057,25.83l5.419.831c1.793.158,3.586.2,5.274.3a58.649,58.649,0,0,0,10.179-.475,64.437,64.437,0,0,0,30.946-12.9l1.028-.791-.791,1.042h0l-.105-.277Z" transform="translate(-183.764 -79.315)" fill="#263238"/>
      <path id="Path_1162" data-name="Path 1162" d="M225.018,129.9a5.274,5.274,0,1,1-5.274-5.274A5.274,5.274,0,0,1,225.018,129.9Z" transform="translate(-173.982 -64.88)" fill="#263238"/>
      <path id="Path_1163" data-name="Path 1163" d="M240.978,129.9a5.274,5.274,0,1,1-5.274-5.274A5.274,5.274,0,0,1,240.978,129.9Z" transform="translate(-168.898 -64.88)" fill="#263238"/>
      <path id="Path_1164" data-name="Path 1164" d="M256.736,127.264a5.274,5.274,0,1,1-7.186-1.925A5.274,5.274,0,0,1,256.736,127.264Z" transform="translate(-163.652 -64.878)" fill="#263238"/>
    </g>
    <g id="freepik--Table--inject-64" transform="translate(31.622 572.711)">
      <path id="Path_1165" data-name="Path 1165" d="M626.62,442.223c0,.2-134.043.343-299.31.343S28,442.421,28,442.223s134-.343,299.376-.343S626.62,442.038,626.62,442.223Z" transform="translate(-28 -441.88)" fill="#263238"/>
    </g>
    <g id="freepik--Device--inject-64" transform="translate(120.031 244.143)">
      <path id="Path_1166" data-name="Path 1166" d="M353.55,446.243a35.39,35.39,0,0,1,28.2-15.928c19.264-.659,28.889,15.928,28.889,15.928Z" transform="translate(-12.706 -117.002)" fill="#455a64"/>
      <path id="Path_1167" data-name="Path 1167" d="M384.127,445.791a21.4,21.4,0,0,1-.567-2.874,18.579,18.579,0,0,0-7.634-11.234,24.384,24.384,0,0,1-2.466-1.582,6.883,6.883,0,0,1,2.782,1.081,16.337,16.337,0,0,1,7.911,11.63,6.949,6.949,0,0,1-.026,2.98Z" transform="translate(-6.363 -117.064)" fill="#263238"/>
      <path id="Path_1168" data-name="Path 1168" d="M387.692,443.647v-.132a7.384,7.384,0,0,0-7.4-7.265H216.347a7.4,7.4,0,0,0-7.4,7.4Z" transform="translate(-58.768 -115.105)" fill="#455a64"/>
      <path id="Path_1169" data-name="Path 1169" d="M106.47,233.974c0,3.455,2.637,209.359,2.637,209.359l152.951,36.8h12.566L266.581,192.69h-11.5Z" transform="translate(-91.412 -192.69)" fill="#263238"/>
      <path id="Path_1170" data-name="Path 1170" d="M142.452,376.29l-47.4,86.866h43.327c-7.753-.765,68.564,0,68.564,0l-68.564-18.183,21.453-48.72L158,376.29Z" transform="translate(-95.05 -134.205)" fill="#263238"/>
      <path id="Path_1171" data-name="Path 1171" d="M133.039,428.644,127.91,266.727l46.571-4.457,5.736,172.875-16.627.844Z" transform="translate(-84.583 -170.526)" fill="#263238"/>
      <path id="Path_1172" data-name="Path 1172" d="M197.191,435.771V424.208c0-7.529-.066-18.46-.105-32.212,0-27.518-.066-66.244-.119-111.154l.33.33H142.248l.343-.343v7.463c0,43.8,0,84.558-.066,118.524h0v.066c-14.267,26.147-26.094,47.85-34.375,63.013-4.14,7.568-7.4,13.5-9.625,17.563-1.108,2-1.965,3.534-2.545,4.6s-.91,1.556-.91,1.556.277-.554.831-1.6,1.4-2.637,2.466-4.654c2.2-4.074,5.406-10.034,9.494-17.629L142.01,406.6V280.42h55.616v.33c0,44.91-.092,83.635-.119,111.154,0,13.739-.079,24.683-.105,32.212v10.812A1.683,1.683,0,0,1,197.191,435.771Z" transform="translate(-95.044 -164.744)" fill="#455a64"/>
      <path id="Path_1173" data-name="Path 1173" d="M151.45,391.43c.171.066-6.421,15.322-14.728,34.045s-15.19,33.86-15.361,33.781,6.421-15.322,14.728-34.058S151.279,391.351,151.45,391.43Z" transform="translate(-86.67 -129.382)" fill="#455a64"/>
      <path id="Path_1174" data-name="Path 1174" d="M226.072,480v-2.914c0-1.938-.066-4.747-.105-8.36,0-7.252-.224-17.748-.475-30.722-.488-25.949-1.661-61.774-3.1-101.344s-2.532-75.434-2.9-101.383c-.2-12.975-.29-23.483-.251-30.735v-8.36c0,1.938,0,4.747.105,8.36,0,7.252.211,17.748.475,30.722.567,25.949,1.74,61.813,3.178,101.37s2.532,75.408,2.9,101.357c.2,12.975.277,23.483.251,30.735v10.535A2.479,2.479,0,0,1,226.072,480Z" transform="translate(-55.492 -192.505)" fill="#455a64"/>
      <path id="Path_1175" data-name="Path 1175" d="M166.273,279.83c.2,0,.343,34.44.343,76.911s-.145,76.911-.343,76.911-.343-34.427-.343-76.911S166.088,279.83,166.273,279.83Z" transform="translate(-72.471 -164.932)" fill="#455a64"/>
      <path id="Path_1176" data-name="Path 1176" d="M105.568,451.894a5.793,5.793,0,0,1-.659-.923c-.224-.316-.475-.7-.765-1.134a15.311,15.311,0,0,1-.949-1.609,40.572,40.572,0,0,1-4.18-11.142,55.194,55.194,0,0,1-.817-17.629,70.542,70.542,0,0,1,5.722-20.846,43.289,43.289,0,0,1,5.973-9.507,24.016,24.016,0,0,1,1.754-2.057c.607-.659,1.187-1.319,1.793-1.951,1.319-1.2,2.466-2.426,3.771-3.468a60.78,60.78,0,0,1,7.661-5.551c1.319-.712,2.518-1.464,3.758-2.057a39.022,39.022,0,0,1,3.6-1.648,41.242,41.242,0,0,1,11.5-3.059,21.712,21.712,0,0,1,3.23-.2,6.8,6.8,0,0,1,1.134,0,8.791,8.791,0,0,1-1.121.118,28.452,28.452,0,0,0-3.2.33,43.209,43.209,0,0,0-11.353,3.244c-1.173.435-2.307,1.094-3.547,1.661a39.376,39.376,0,0,0-3.705,2.083,60.848,60.848,0,0,0-7.542,5.551c-1.319,1.028-2.466,2.255-3.718,3.441-.593.62-1.174,1.319-1.767,1.925a25.551,25.551,0,0,0-1.714,2.044,42.851,42.851,0,0,0-5.881,9.375,70.687,70.687,0,0,0-5.709,20.622,55.7,55.7,0,0,0,.659,17.458,42.616,42.616,0,0,0,3.956,11.115,14.028,14.028,0,0,0,.9,1.635l.7,1.173A8.49,8.49,0,0,1,105.568,451.894Z" transform="translate(-94.162 -136.498)" fill="#455a64"/>
    </g>
  </g>
</svg>
